<svg version="1.1" viewBox="0.0 0.0 720.0 540.0" fill="none" stroke="none" stroke-linecap="square" stroke-miterlimit="10" xmlns:xlink="http://www.w3.org/1999/xlink" xmlns="http://www.w3.org/2000/svg"><clipPath id="p.0"><path d="m0 0l720.0 0l0 540.0l-720.0 0l0 -540.0z" clip-rule="nonzero"/></clipPath><g clip-path="url(#p.0)"><path fill="#000000" fill-opacity="0.0" d="m0 0l720.0 0l0 540.0l-720.0 0z" fill-rule="evenodd"/><path fill="#ffffff" d="m404.16754 100.618126l311.937 0l0 311.937l-311.937 0z" fill-rule="evenodd"/><path stroke="#000000" stroke-width="0.7060367454068242" stroke-linejoin="round" stroke-linecap="butt" d="m404.16754 100.618126l311.937 0l0 311.937l-311.937 0z" fill-rule="evenodd"/><path fill="#000000" fill-opacity="0.0" d="m652.1453 187.1092l0 14.598419l0.12597656 0l0 14.598434" fill-rule="evenodd"/><path stroke="#000000" stroke-width="2.0" stroke-linejoin="round" stroke-linecap="butt" d="m652.1453 187.1092l0 14.598434l0.12597656 0l0 2.5984192" fill-rule="evenodd"/><path fill="#000000" stroke="#000000" stroke-width="2.0" stroke-linecap="butt" d="m648.96783 204.30606l3.3034668 9.076202l3.3034668 -9.076202z" fill-rule="evenodd"/><path fill="#000000" fill-opacity="0.0" d="m413.98788 111.081665l85.543304 0l0 51.46457l-85.543304 0z" fill-rule="evenodd"/><path fill="#000000" d="m421.1285 132.44167l0 -11.453125l3.453125 0l2.078125 7.8125l2.0625 -7.8125l3.46875 0l0 11.453125l-2.15625 0l0 -9.015625l-2.265625 9.015625l-2.234375 0l-2.265625 -9.015625l0 9.015625l-2.140625 0zm12.828125 -4.265625q0 -1.09375 0.53125 -2.109375q0.546875 -1.03125 1.53125 -1.5625q1.0 -0.546875 2.21875 -0.546875q1.875 0 3.078125 1.21875q1.203125 1.21875 1.203125 3.09375q0 1.875 -1.21875 3.125q-1.203125 1.234375 -3.046875 1.234375q-1.140625 0 -2.1875 -0.515625q-1.03125 -0.515625 -1.578125 -1.515625q-0.53125 -1.0 -0.53125 -2.421875zm2.25 0.109375q0 1.234375 0.578125 1.890625q0.59375 0.65625 1.453125 0.65625q0.859375 0 1.4375 -0.65625q0.59375 -0.65625 0.59375 -1.90625q0 -1.21875 -0.59375 -1.875q-0.578125 -0.65625 -1.4375 -0.65625q-0.859375 0 -1.453125 0.65625q-0.578125 0.65625 -0.578125 1.890625zm15.6484375 4.15625l-2.046875 0l0 -1.21875q-0.5 0.703125 -1.203125 1.0625q-0.6875 0.34375 -1.390625 0.34375q-1.421875 0 -2.453125 -1.15625q-1.015625 -1.15625 -1.015625 -3.21875q0 -2.109375 0.984375 -3.203125q1.0 -1.09375 2.515625 -1.09375q1.390625 0 2.40625 1.15625l0 -4.125l2.203125 0l0 11.453125zm-5.859375 -4.328125q0 1.328125 0.359375 1.921875q0.53125 0.859375 1.484375 0.859375q0.765625 0 1.296875 -0.640625q0.53125 -0.65625 0.53125 -1.9375q0 -1.421875 -0.515625 -2.046875q-0.515625 -0.640625 -1.328125 -0.640625q-0.78125 0 -1.3125 0.625q-0.515625 0.625 -0.515625 1.859375zm13.4765625 4.328125l0 -1.25q-0.453125 0.671875 -1.1875 1.0625q-0.734375 0.375 -1.5625 0.375q-0.828125 0 -1.5 -0.359375q-0.65625 -0.375 -0.953125 -1.03125q-0.296875 -0.671875 -0.296875 -1.84375l0 -5.25l2.1875 0l0 3.8125q0 1.75 0.125 2.140625q0.125 0.390625 0.4375 0.625q0.328125 0.234375 0.8125 0.234375q0.5625 0 1.0 -0.3125q0.453125 -0.3125 0.609375 -0.765625q0.171875 -0.453125 0.171875 -2.234375l0 -3.5l2.203125 0l0 8.296875l-2.046875 0zm4.3203125 0l0 -11.453125l2.1875 0l0 11.453125l-2.1875 0zm9.2421875 -2.640625l2.1875 0.359375q-0.421875 1.203125 -1.328125 1.84375q-0.90625 0.625 -2.28125 0.625q-2.15625 0 -3.203125 -1.421875q-0.8125 -1.125 -0.8125 -2.859375q0 -2.0625 1.078125 -3.21875q1.078125 -1.171875 2.71875 -1.171875q1.859375 0 2.921875 1.21875q1.078125 1.21875 1.03125 3.75l-5.5 0q0.015625 0.96875 0.515625 1.515625q0.515625 0.546875 1.28125 0.546875q0.515625 0 0.859375 -0.28125q0.359375 -0.28125 0.53125 -0.90625zm0.125 -2.21875q-0.015625 -0.953125 -0.484375 -1.453125q-0.46875 -0.5 -1.140625 -0.5q-0.71875 0 -1.1875 0.53125q-0.46875 0.515625 -0.46875 1.421875l3.28125 0zm13.5625 4.859375l-2.1875 0l0 -8.28125q-1.203125 1.125 -2.84375 1.671875l0 -2.0q0.859375 -0.28125 1.859375 -1.0625q1.015625 -0.78125 1.390625 -1.828125l1.78125 0l0 11.5z" fill-rule="nonzero"/><path fill="#000000" d="m424.78476 155.01666l-1.515625 0q-1.1875 -1.8125 -1.8125 -3.75q-0.625 -1.953125 -0.625 -3.78125q0 -2.25 0.765625 -4.265625q0.671875 -1.75 1.703125 -3.234375l1.5 0q-1.0625 2.375 -1.46875 4.03125q-0.40625 1.65625 -0.40625 3.515625q0 1.28125 0.234375 2.625q0.25 1.34375 0.65625 2.5625q0.28125 0.796875 0.96875 2.296875zm1.71875 -3.375l0 -11.453125l7.84375 0l0 1.9375l-5.53125 0l0 2.703125l4.78125 0l0 1.9375l-4.78125 0l0 4.875l-2.3125 0zm11.8359375 0l-2.1875 0l0 -8.296875l2.03125 0l0 1.171875q0.53125 -0.828125 0.9375 -1.09375q0.421875 -0.265625 0.953125 -0.265625q0.75 0 1.453125 0.40625l-0.6875 1.921875q-0.546875 -0.359375 -1.03125 -0.359375q-0.453125 0 -0.78125 0.25q-0.3125 0.25 -0.5 0.921875q-0.1875 0.65625 -0.1875 2.78125l0 2.5625zm3.6171875 -4.265625q0 -1.09375 0.53125 -2.109375q0.546875 -1.03125 1.53125 -1.5625q1.0 -0.546875 2.21875 -0.546875q1.875 0 3.078125 1.21875q1.203125 1.21875 1.203125 3.09375q0 1.875 -1.21875 3.125q-1.203125 1.234375 -3.046875 1.234375q-1.140625 0 -2.1875 -0.515625q-1.03125 -0.515625 -1.578125 -1.515625q-0.53125 -1.0 -0.53125 -2.421875zm2.25 0.109375q0 1.234375 0.578125 1.890625q0.59375 0.65625 1.453125 0.65625q0.859375 0 1.4375 -0.65625q0.59375 -0.65625 0.59375 -1.90625q0 -1.21875 -0.59375 -1.875q-0.578125 -0.65625 -1.4375 -0.65625q-0.859375 0 -1.453125 0.65625q-0.578125 0.65625 -0.578125 1.890625zm15.5859375 4.15625l-2.203125 0l0 -4.234375q0 -1.34375 -0.140625 -1.734375q-0.140625 -0.40625 -0.453125 -0.625q-0.3125 -0.21875 -0.765625 -0.21875q-0.5625 0 -1.015625 0.3125q-0.453125 0.3125 -0.625 0.828125q-0.171875 0.515625 -0.171875 1.90625l0 3.765625l-2.1875 0l0 -8.296875l2.03125 0l0 1.21875q1.09375 -1.40625 2.734375 -1.40625q0.734375 0 1.328125 0.265625q0.609375 0.25 0.90625 0.65625q0.3125 0.40625 0.4375 0.921875q0.125 0.515625 0.125 1.484375l0 5.15625zm6.0234375 -8.296875l0 1.75l-1.5 0l0 3.34375q0 1.015625 0.046875 1.1875q0.046875 0.15625 0.1875 0.265625q0.15625 0.109375 0.375 0.109375q0.3125 0 0.890625 -0.203125l0.1875 1.703125q-0.765625 0.328125 -1.734375 0.328125q-0.59375 0 -1.078125 -0.203125q-0.46875 -0.203125 -0.703125 -0.515625q-0.21875 -0.3125 -0.296875 -0.859375q-0.078125 -0.375 -0.078125 -1.546875l0 -3.609375l-1.0 0l0 -1.75l1.0 0l0 -1.65625l2.203125 -1.28125l0 2.9375l1.5 0zm0.921875 11.671875q0.640625 -1.390625 0.90625 -2.140625q0.265625 -0.734375 0.484375 -1.703125q0.234375 -0.984375 0.34375 -1.84375q0.109375 -0.875 0.109375 -1.796875q0 -1.859375 -0.40625 -3.515625q-0.390625 -1.65625 -1.453125 -4.03125l1.484375 0q1.1875 1.6875 1.828125 3.578125q0.65625 1.875 0.65625 3.8125q0 1.625 -0.515625 3.5q-0.578125 2.09375 -1.921875 4.140625l-1.515625 0z" fill-rule="nonzero"/><path fill="#ffffff" d="m4.301075 100.61942l311.937 0l0 311.937l-311.937 0z" fill-rule="evenodd"/><path stroke="#000000" stroke-width="0.7060367454068242" stroke-linejoin="round" stroke-linecap="butt" d="m4.301075 100.61942l311.937 0l0 311.937l-311.937 0z" fill-rule="evenodd"/><path fill="#cfe2f3" d="m170.66228 216.90434l92.0945 0l0 60.377945l-92.0945 0z" fill-rule="evenodd"/><path stroke="#000000" stroke-width="0.7060367454068242" stroke-linejoin="round" stroke-linecap="butt" d="m170.66228 216.90434l92.0945 0l0 60.377945l-92.0945 0z" fill-rule="evenodd"/><path fill="#000000" d="m200.71825 251.6971l3.625 -4.890625l-3.203125 -4.5l1.484375 0l1.703125 2.40625q0.53125 0.75 0.75 1.15625q0.328125 -0.515625 0.75 -1.078125l1.890625 -2.484375l1.359375 0l-3.3125 4.421875l3.5625 4.96875l-1.53125 0l-2.375 -3.359375q-0.203125 -0.28125 -0.40625 -0.625q-0.3125 0.515625 -0.453125 0.703125l-2.359375 3.28125l-1.484375 0zm9.660522 0l0 -9.390625l3.515625 0q1.078125 0 1.71875 0.28125q0.65625 0.28125 1.015625 0.875q0.375 0.59375 0.375 1.25q0 0.59375 -0.328125 1.125q-0.3125 0.53125 -0.984375 0.859375q0.859375 0.25 1.3125 0.859375q0.46875 0.59375 0.46875 1.421875q0 0.65625 -0.28125 1.234375q-0.28125 0.5625 -0.703125 0.875q-0.40625 0.296875 -1.03125 0.453125q-0.609375 0.15625 -1.5 0.15625l-3.578125 0zm1.234375 -5.453125l2.03125 0q0.828125 0 1.1875 -0.109375q0.46875 -0.140625 0.703125 -0.453125q0.25 -0.328125 0.25 -0.828125q0 -0.46875 -0.234375 -0.828125q-0.21875 -0.359375 -0.640625 -0.484375q-0.40625 -0.125 -1.421875 -0.125l-1.875 0l0 2.828125zm0 4.34375l2.34375 0q0.59375 0 0.84375 -0.046875q0.421875 -0.078125 0.703125 -0.25q0.296875 -0.1875 0.484375 -0.53125q0.1875 -0.34375 0.1875 -0.78125q0 -0.53125 -0.265625 -0.921875q-0.265625 -0.390625 -0.75 -0.546875q-0.46875 -0.15625 -1.375 -0.15625l-2.171875 0l0 3.234375zm12.082397 -1.078125l1.1875 0.140625q-0.28125 1.046875 -1.046875 1.625q-0.765625 0.578125 -1.953125 0.578125q-1.484375 0 -2.359375 -0.921875q-0.875 -0.921875 -0.875 -2.578125q0 -1.71875 0.875 -2.65625q0.890625 -0.953125 2.296875 -0.953125q1.375 0 2.234375 0.9375q0.859375 0.921875 0.859375 2.59375q0 0.109375 0 0.3125l-5.078125 0q0.0625 1.125 0.625 1.71875q0.578125 0.59375 1.4375 0.59375q0.625 0 1.078125 -0.328125q0.453125 -0.34375 0.71875 -1.0625zm-3.796875 -1.875l3.796875 0q-0.078125 -0.859375 -0.4375 -1.28125q-0.546875 -0.671875 -1.421875 -0.671875q-0.796875 0 -1.34375 0.53125q-0.53125 0.53125 -0.59375 1.421875zm11.0963745 1.875l1.1875 0.140625q-0.28125 1.046875 -1.046875 1.625q-0.765625 0.578125 -1.953125 0.578125q-1.484375 0 -2.359375 -0.921875q-0.875 -0.921875 -0.875 -2.578125q0 -1.71875 0.875 -2.65625q0.890625 -0.953125 2.296875 -0.953125q1.375 0 2.234375 0.9375q0.859375 0.921875 0.859375 2.59375q0 0.109375 0 0.3125l-5.078125 0q0.0625 1.125 0.625 1.71875q0.578125 0.59375 1.4375 0.59375q0.625 0 1.078125 -0.328125q0.453125 -0.34375 0.71875 -1.0625zm-3.796875 -1.875l3.796875 0q-0.078125 -0.859375 -0.4375 -1.28125q-0.546875 -0.671875 -1.421875 -0.671875q-0.796875 0 -1.34375 0.53125q-0.53125 0.53125 -0.59375 1.421875z" fill-rule="nonzero"/><path fill="#000000" fill-opacity="0.0" d="m179.56024 110.59291l101.19684 0l0 52.44095l-101.19684 0z" fill-rule="evenodd"/><path fill="#000000" d="m186.70087 131.95291l0 -11.453125l3.453125 0l2.078125 7.8125l2.0625 -7.8125l3.46875 0l0 11.453125l-2.15625 0l0 -9.015625l-2.265625 9.015625l-2.234375 0l-2.265625 -9.015625l0 9.015625l-2.140625 0zm12.828125 -4.265625q0 -1.09375 0.53125 -2.109375q0.546875 -1.03125 1.53125 -1.5625q1.0 -0.546875 2.21875 -0.546875q1.875 0 3.078125 1.21875q1.203125 1.21875 1.203125 3.09375q0 1.875 -1.21875 3.125q-1.203125 1.234375 -3.046875 1.234375q-1.140625 0 -2.1875 -0.515625q-1.03125 -0.515625 -1.578125 -1.515625q-0.53125 -1.0 -0.53125 -2.421875zm2.25 0.109375q0 1.234375 0.578125 1.890625q0.59375 0.65625 1.453125 0.65625q0.859375 0 1.4375 -0.65625q0.59375 -0.65625 0.59375 -1.90625q0 -1.21875 -0.59375 -1.875q-0.578125 -0.65625 -1.4375 -0.65625q-0.859375 0 -1.453125 0.65625q-0.578125 0.65625 -0.578125 1.890625zm15.6484375 4.15625l-2.046875 0l0 -1.21875q-0.5 0.703125 -1.203125 1.0625q-0.6875 0.34375 -1.390625 0.34375q-1.421875 0 -2.453125 -1.15625q-1.015625 -1.15625 -1.015625 -3.21875q0 -2.109375 0.984375 -3.203125q1.0 -1.09375 2.515625 -1.09375q1.390625 0 2.40625 1.15625l0 -4.125l2.203125 0l0 11.453125zm-5.859375 -4.328125q0 1.328125 0.359375 1.921875q0.53125 0.859375 1.484375 0.859375q0.765625 0 1.296875 -0.640625q0.53125 -0.65625 0.53125 -1.9375q0 -1.421875 -0.515625 -2.046875q-0.515625 -0.640625 -1.328125 -0.640625q-0.78125 0 -1.3125 0.625q-0.515625 0.625 -0.515625 1.859375zm13.4765625 4.328125l0 -1.25q-0.453125 0.671875 -1.1875 1.0625q-0.734375 0.375 -1.5625 0.375q-0.828125 0 -1.5 -0.359375q-0.65625 -0.375 -0.953125 -1.03125q-0.296875 -0.671875 -0.296875 -1.84375l0 -5.25l2.1875 0l0 3.8125q0 1.75 0.125 2.140625q0.125 0.390625 0.4375 0.625q0.328125 0.234375 0.8125 0.234375q0.5625 0 1.0 -0.3125q0.453125 -0.3125 0.609375 -0.765625q0.171875 -0.453125 0.171875 -2.234375l0 -3.5l2.203125 0l0 8.296875l-2.046875 0zm4.3203125 0l0 -11.453125l2.1875 0l0 11.453125l-2.1875 0zm9.2421875 -2.640625l2.1875 0.359375q-0.421875 1.203125 -1.328125 1.84375q-0.90625 0.625 -2.28125 0.625q-2.15625 0 -3.203125 -1.421875q-0.8125 -1.125 -0.8125 -2.859375q0 -2.0625 1.078125 -3.21875q1.078125 -1.171875 2.71875 -1.171875q1.859375 0 2.921875 1.21875q1.078125 1.21875 1.03125 3.75l-5.5 0q0.015625 0.96875 0.515625 1.515625q0.515625 0.546875 1.28125 0.546875q0.515625 0 0.859375 -0.28125q0.359375 -0.28125 0.53125 -0.90625zm0.125 -2.21875q-0.015625 -0.953125 -0.484375 -1.453125q-0.46875 -0.5 -1.140625 -0.5q-0.71875 0 -1.1875 0.53125q-0.46875 0.515625 -0.46875 1.421875l3.28125 0zm15.359375 2.8125l0 2.046875l-7.6875 0q0.125 -1.15625 0.75 -2.1875q0.625 -1.046875 2.46875 -2.75q1.484375 -1.390625 1.8125 -1.875q0.453125 -0.6875 0.453125 -1.34375q0 -0.734375 -0.390625 -1.125q-0.390625 -0.40625 -1.09375 -0.40625q-0.6875 0 -1.09375 0.421875q-0.40625 0.40625 -0.46875 1.375l-2.1875 -0.21875q0.203125 -1.8125 1.234375 -2.59375q1.03125 -0.796875 2.578125 -0.796875q1.6875 0 2.65625 0.921875q0.96875 0.90625 0.96875 2.265625q0 0.765625 -0.28125 1.46875q-0.265625 0.703125 -0.875 1.46875q-0.390625 0.5 -1.4375 1.453125q-1.03125 0.953125 -1.3125 1.265625q-0.28125 0.3125 -0.453125 0.609375l4.359375 0z" fill-rule="nonzero"/><path fill="#000000" d="m190.35712 154.52791l-1.515625 0q-1.1875 -1.8125 -1.8125 -3.75q-0.625 -1.953125 -0.625 -3.78125q0 -2.25 0.765625 -4.265625q0.671875 -1.75 1.703125 -3.234375l1.5 0q-1.0625 2.375 -1.46875 4.03125q-0.40625 1.65625 -0.40625 3.515625q0 1.28125 0.234375 2.625q0.25 1.34375 0.65625 2.5625q0.28125 0.796875 0.96875 2.296875zm1.703125 -3.375l0 -11.453125l4.875 0q1.828125 0 2.65625 0.3125q0.84375 0.296875 1.34375 1.09375q0.5 0.78125 0.5 1.796875q0 1.296875 -0.765625 2.140625q-0.75 0.828125 -2.265625 1.046875q0.75 0.4375 1.234375 0.96875q0.5 0.515625 1.328125 1.859375l1.390625 2.234375l-2.765625 0l-1.671875 -2.5q-0.890625 -1.328125 -1.21875 -1.671875q-0.328125 -0.359375 -0.703125 -0.484375q-0.359375 -0.125 -1.15625 -0.125l-0.46875 0l0 4.78125l-2.3125 0zm2.3125 -6.609375l1.71875 0q1.65625 0 2.0625 -0.140625q0.421875 -0.140625 0.65625 -0.484375q0.234375 -0.34375 0.234375 -0.859375q0 -0.578125 -0.3125 -0.9375q-0.296875 -0.359375 -0.859375 -0.453125q-0.28125 -0.03125 -1.6875 -0.03125l-1.8125 0l0 2.90625zm14.0234375 3.96875l2.1875 0.359375q-0.421875 1.203125 -1.328125 1.84375q-0.90625 0.625 -2.28125 0.625q-2.15625 0 -3.203125 -1.421875q-0.8125 -1.125 -0.8125 -2.859375q0 -2.0625 1.078125 -3.21875q1.078125 -1.171875 2.71875 -1.171875q1.859375 0 2.921875 1.21875q1.078125 1.21875 1.03125 3.75l-5.5 0q0.015625 0.96875 0.515625 1.515625q0.515625 0.546875 1.28125 0.546875q0.515625 0 0.859375 -0.28125q0.359375 -0.28125 0.53125 -0.90625zm0.125 -2.21875q-0.015625 -0.953125 -0.484375 -1.453125q-0.46875 -0.5 -1.140625 -0.5q-0.71875 0 -1.1875 0.53125q-0.46875 0.515625 -0.46875 1.421875l3.28125 0zm5.6171875 -0.90625l-2.0 -0.359375q0.34375 -1.203125 1.15625 -1.78125q0.828125 -0.578125 2.4375 -0.578125q1.46875 0 2.1875 0.34375q0.71875 0.34375 1.015625 0.890625q0.296875 0.53125 0.296875 1.953125l-0.03125 2.5625q0 1.09375 0.109375 1.625q0.109375 0.515625 0.390625 1.109375l-2.171875 0q-0.078125 -0.21875 -0.203125 -0.65625q-0.0625 -0.1875 -0.078125 -0.25q-0.5625 0.546875 -1.203125 0.828125q-0.640625 0.265625 -1.375 0.265625q-1.28125 0 -2.015625 -0.6875q-0.734375 -0.703125 -0.734375 -1.765625q0 -0.703125 0.328125 -1.25q0.34375 -0.5625 0.9375 -0.84375q0.609375 -0.296875 1.75 -0.515625q1.546875 -0.296875 2.140625 -0.546875l0 -0.21875q0 -0.625 -0.3125 -0.890625q-0.3125 -0.28125 -1.1875 -0.28125q-0.578125 0 -0.90625 0.234375q-0.328125 0.234375 -0.53125 0.8125zm2.9375 1.78125q-0.421875 0.140625 -1.34375 0.34375q-0.90625 0.1875 -1.1875 0.375q-0.4375 0.296875 -0.4375 0.765625q0 0.46875 0.34375 0.8125q0.34375 0.328125 0.875 0.328125q0.59375 0 1.140625 -0.390625q0.390625 -0.296875 0.515625 -0.734375q0.09375 -0.28125 0.09375 -1.0625l0 -0.4375zm6.4140625 3.984375l-2.1875 0l0 -8.296875l2.03125 0l0 1.171875q0.53125 -0.828125 0.9375 -1.09375q0.421875 -0.265625 0.953125 -0.265625q0.75 0 1.453125 0.40625l-0.6875 1.921875q-0.546875 -0.359375 -1.03125 -0.359375q-0.453125 0 -0.78125 0.25q-0.3125 0.25 -0.5 0.921875q-0.1875 0.65625 -0.1875 2.78125l0 2.5625zm3.5234375 3.375q0.640625 -1.390625 0.90625 -2.140625q0.265625 -0.734375 0.484375 -1.703125q0.234375 -0.984375 0.34375 -1.84375q0.109375 -0.875 0.109375 -1.796875q0 -1.859375 -0.40625 -3.515625q-0.390625 -1.65625 -1.453125 -4.03125l1.484375 0q1.1875 1.6875 1.828125 3.578125q0.65625 1.875 0.65625 3.8125q0 1.625 -0.515625 3.5q-0.578125 2.09375 -1.921875 4.140625l-1.515625 0z" fill-rule="nonzero"/><path fill="#000000" fill-opacity="0.0" d="m453.6569 261.22754l-190.33072 0.56692505" fill-rule="evenodd"/><path stroke="#000000" stroke-width="2.0" stroke-linejoin="round" stroke-linecap="butt" d="m453.65686 261.22754l-178.33075 0.53118896" fill-rule="evenodd"/><path fill="#000000" stroke="#000000" stroke-width="2.0" stroke-linecap="butt" d="m275.31628 258.4553l-9.066315 3.3304749l9.085999 3.2764282z" fill-rule="evenodd"/><path fill="#000000" fill-opacity="0.0" d="m128.83386 236.24913l41.826782 0" fill-rule="evenodd"/><path stroke="#000000" stroke-width="1.8083989501312336" stroke-linejoin="round" stroke-linecap="butt" d="m128.83386 236.24911l30.97638 0" fill-rule="evenodd"/><path fill="#000000" stroke="#000000" stroke-width="1.8083989501312336" stroke-linecap="butt" d="m159.81024 239.23611l8.206696 -2.9869995l-8.206696 -2.9869843z" fill-rule="evenodd"/><path fill="#000000" fill-opacity="0.0" d="m169.40663 261.28574l-40.566925 -0.28344727" fill-rule="evenodd"/><path stroke="#000000" stroke-width="1.8083989501312336" stroke-linejoin="round" stroke-linecap="butt" d="m169.40663 261.28574l-29.716797 -0.2076416" fill-rule="evenodd"/><path fill="#000000" stroke="#000000" stroke-width="1.8083989501312336" stroke-linecap="butt" d="m139.7107 258.0912l-8.227356 2.9295654l8.185623 3.0442505z" fill-rule="evenodd"/><path fill="#000000" fill-opacity="0.0" d="m262.31235 233.16536l191.1496 0.09448242" fill-rule="evenodd"/><path stroke="#000000" stroke-width="1.8083989501312336" stroke-linejoin="round" stroke-linecap="butt" d="m262.31235 233.16536l180.2992 0.08911133" fill-rule="evenodd"/><path fill="#000000" stroke="#000000" stroke-width="1.8083989501312336" stroke-linecap="butt" d="m442.61008 236.24147l8.20816 -2.9829407l-8.2052 -2.991043z" fill-rule="evenodd"/><path fill="#cfe2f3" d="m453.48495 214.01944l92.09451 0l0 60.37796l-92.09451 0z" fill-rule="evenodd"/><path stroke="#000000" stroke-width="0.7060367454068242" stroke-linejoin="round" stroke-linecap="butt" d="m453.48495 214.01944l92.09451 0l0 60.37796l-92.09451 0z" fill-rule="evenodd"/><path fill="#000000" d="m483.54092 248.8122l3.625 -4.890625l-3.203125 -4.5l1.484375 0l1.703125 2.40625q0.53125 0.75 0.75 1.15625q0.328125 -0.515625 0.75 -1.078125l1.890625 -2.484375l1.359375 0l-3.3125 4.421875l3.5625 4.96875l-1.53125 0l-2.375 -3.359375q-0.203125 -0.28125 -0.40625 -0.625q-0.3125 0.515625 -0.453125 0.703125l-2.359375 3.28125l-1.484375 0zm9.660522 0l0 -9.390625l3.515625 0q1.078125 0 1.71875 0.28125q0.65625 0.28125 1.015625 0.875q0.375 0.59375 0.375 1.25q0 0.59375 -0.328125 1.125q-0.3125 0.53125 -0.984375 0.859375q0.859375 0.25 1.3125 0.859375q0.46875 0.59375 0.46875 1.421875q0 0.65625 -0.28125 1.234375q-0.28125 0.5625 -0.703125 0.875q-0.40625 0.296875 -1.03125 0.453125q-0.609375 0.15625 -1.5 0.15625l-3.578125 0zm1.234375 -5.453125l2.03125 0q0.828125 0 1.1875 -0.109375q0.46875 -0.140625 0.703125 -0.453125q0.25 -0.328125 0.25 -0.828125q0 -0.46875 -0.234375 -0.828125q-0.21875 -0.359375 -0.640625 -0.484375q-0.40625 -0.125 -1.421875 -0.125l-1.875 0l0 2.828125zm0 4.34375l2.34375 0q0.59375 0 0.84375 -0.046875q0.421875 -0.078125 0.703125 -0.25q0.296875 -0.1875 0.484375 -0.53125q0.1875 -0.34375 0.1875 -0.78125q0 -0.53125 -0.265625 -0.921875q-0.265625 -0.390625 -0.75 -0.546875q-0.46875 -0.15625 -1.375 -0.15625l-2.171875 0l0 3.234375zm12.082397 -1.078125l1.1875 0.140625q-0.28125 1.046875 -1.046875 1.625q-0.765625 0.578125 -1.953125 0.578125q-1.484375 0 -2.359375 -0.921875q-0.875 -0.921875 -0.875 -2.578125q0 -1.71875 0.875 -2.65625q0.890625 -0.953125 2.296875 -0.953125q1.375 0 2.234375 0.9375q0.859375 0.921875 0.859375 2.59375q0 0.109375 0 0.3125l-5.078125 0q0.0625 1.125 0.625 1.71875q0.578125 0.59375 1.4375 0.59375q0.625 0 1.078125 -0.328125q0.453125 -0.34375 0.71875 -1.0625zm-3.796875 -1.875l3.796875 0q-0.078125 -0.859375 -0.4375 -1.28125q-0.546875 -0.671875 -1.421875 -0.671875q-0.796875 0 -1.34375 0.53125q-0.53125 0.53125 -0.59375 1.421875zm11.096405 1.875l1.1875 0.140625q-0.28125 1.046875 -1.046875 1.625q-0.765625 0.578125 -1.953125 0.578125q-1.4844055 0 -2.3594055 -0.921875q-0.875 -0.921875 -0.875 -2.578125q0 -1.71875 0.875 -2.65625q0.890625 -0.953125 2.296875 -0.953125q1.3750305 0 2.2344055 0.9375q0.859375 0.921875 0.859375 2.59375q0 0.109375 0 0.3125l-5.0781555 0q0.0625 1.125 0.625 1.71875q0.578125 0.59375 1.4375305 0.59375q0.625 0 1.078125 -0.328125q0.453125 -0.34375 0.71875 -1.0625zm-3.7969055 -1.875l3.7969055 0q-0.078125 -0.859375 -0.4375 -1.28125q-0.546875 -0.671875 -1.4219055 -0.671875q-0.796875 0 -1.34375 0.53125q-0.53125 0.53125 -0.59375 1.421875z" fill-rule="nonzero"/><path fill="#000000" fill-opacity="0.0" d="m545.732 231.6924l41.826782 0" fill-rule="evenodd"/><path stroke="#000000" stroke-width="1.8083989501312336" stroke-linejoin="round" stroke-linecap="butt" d="m545.732 231.6924l30.97638 0" fill-rule="evenodd"/><path fill="#000000" stroke="#000000" stroke-width="1.8083989501312336" stroke-linecap="butt" d="m576.7084 234.6794l8.206665 -2.9869995l-8.206665 -2.9869843z" fill-rule="evenodd"/><path fill="#000000" fill-opacity="0.0" d="m586.30475 256.729l-40.566895 -0.28344727" fill-rule="evenodd"/><path stroke="#000000" stroke-width="1.8083989501312336" stroke-linejoin="round" stroke-linecap="butt" d="m586.30475 256.72903l-29.716797 -0.20767212" fill-rule="evenodd"/><path fill="#000000" stroke="#000000" stroke-width="1.8083989501312336" stroke-linecap="butt" d="m556.6088 253.53445l-8.227356 2.9295654l8.185608 3.044281z" fill-rule="evenodd"/><path fill="#cfe2f3" d="m27.270979 210.10318l101.19685 0l0 73.98425l-101.19685 0z" fill-rule="evenodd"/><path stroke="#000000" stroke-width="0.7060367454068242" stroke-linejoin="round" stroke-linecap="butt" d="m27.270979 210.10318l101.19685 0l0 73.98425l-101.19685 0z" fill-rule="evenodd"/><path fill="#000000" d="m59.874836 251.69908l0 -9.390625l1.234375 0l0 8.28125l4.625004 0l0 1.109375l-5.859379 0zm7.2057533 -8.0625l0 -1.328125l1.15625 0l0 1.328125l-1.15625 0zm0 8.0625l0 -6.8125l1.15625 0l0 6.8125l-1.15625 0zm3.0565796 0l0 -9.390625l3.234375 0q1.09375 0 1.671875 0.125q0.8125 0.1875 1.375 0.671875q0.75 0.640625 1.109375 1.625q0.375 0.96875 0.375 2.21875q0 1.078125 -0.25 1.90625q-0.25 0.8125 -0.640625 1.359375q-0.390625 0.546875 -0.859375 0.859375q-0.46875 0.296875 -1.125 0.46875q-0.65625 0.15625 -1.5 0.15625l-3.390625 0zm1.234375 -1.109375l2.015625 0q0.921875 0 1.453125 -0.171875q0.53125 -0.171875 0.84375 -0.484375q0.4375 -0.453125 0.6875 -1.1875q0.25 -0.75 0.25 -1.8125q0 -1.46875 -0.484375 -2.265625q-0.484375 -0.796875 -1.171875 -1.0625q-0.5 -0.1875 -1.609375 -0.1875l-1.984375 0l0 7.171875zm7.2128296 1.109375l3.609375 -9.390625l1.328125 0l3.859375 9.390625l-1.421875 0l-1.09375 -2.84375l-3.9375 0l-1.03125 2.84375l-1.3125 0zm2.703125 -3.859375l3.1875 0l-0.984375 -2.59375q-0.4375 -1.1875 -0.65625 -1.953125q-0.1875 0.90625 -0.515625 1.796875l-1.03125 2.75zm7.0980225 3.859375l0 -9.390625l4.171875 0q1.25 0 1.90625 0.25q0.65625 0.25 1.046875 0.890625q0.390625 0.640625 0.390625 1.421875q0 1.0 -0.65625 1.6875q-0.640625 0.6875 -2.0 0.859375q0.5 0.25 0.75 0.46875q0.546875 0.5 1.03125 1.25l1.640625 2.5625l-1.5625 0l-1.25 -1.953125q-0.546875 -0.84375 -0.90625 -1.296875q-0.34375 -0.453125 -0.625 -0.625q-0.265625 -0.1875 -0.5625 -0.25q-0.203125 -0.046875 -0.6875 -0.046875l-1.4375 0l0 4.171875l-1.25 0zm1.25 -5.25l2.671875 0q0.84375 0 1.328125 -0.171875q0.484375 -0.171875 0.734375 -0.5625q0.25 -0.390625 0.25 -0.84375q0 -0.671875 -0.484375 -1.09375q-0.484375 -0.4375 -1.53125 -0.4375l-2.96875 0l0 3.109375z" fill-rule="nonzero"/><path fill="#cfe2f3" d="m448.93073 312.1365l101.19684 0l0 73.98425l-101.19684 0z" fill-rule="evenodd"/><path stroke="#000000" stroke-width="0.7060367454068242" stroke-linejoin="round" stroke-linecap="butt" d="m448.93073 312.1365l101.19684 0l0 73.98425l-101.19684 0z" fill-rule="evenodd"/><path fill="#000000" d="m460.09552 353.73242l0 -9.390625l1.25 0l0 3.859375l4.875 0l0 -3.859375l1.25 0l0 9.390625l-1.25 0l0 -4.421875l-4.875 0l0 4.421875l-1.25 0zm13.74408 -0.84375q-0.640625 0.546875 -1.234375 0.78125q-0.59375 0.21875 -1.28125 0.21875q-1.125 0 -1.734375 -0.546875q-0.59375 -0.546875 -0.59375 -1.40625q0 -0.5 0.21875 -0.90625q0.234375 -0.421875 0.609375 -0.671875q0.375 -0.25 0.828125 -0.375q0.34375 -0.09375 1.03125 -0.171875q1.390625 -0.171875 2.046875 -0.390625q0.015625 -0.25 0.015625 -0.3125q0 -0.703125 -0.328125 -0.984375q-0.4375 -0.390625 -1.3125 -0.390625q-0.8125 0 -1.203125 0.28125q-0.390625 0.28125 -0.578125 1.015625l-1.125 -0.15625q0.15625 -0.734375 0.5 -1.171875q0.359375 -0.453125 1.015625 -0.6875q0.671875 -0.234375 1.5625 -0.234375q0.859375 0 1.40625 0.203125q0.546875 0.203125 0.796875 0.515625q0.265625 0.3125 0.359375 0.78125q0.0625 0.296875 0.0625 1.0625l0 1.53125q0 1.609375 0.078125 2.046875q0.078125 0.421875 0.28125 0.8125l-1.203125 0q-0.171875 -0.359375 -0.21875 -0.84375zm-0.109375 -2.578125q-0.625 0.265625 -1.875 0.4375q-0.71875 0.109375 -1.015625 0.234375q-0.28125 0.125 -0.453125 0.375q-0.15625 0.25 -0.15625 0.546875q0 0.46875 0.34375 0.78125q0.359375 0.296875 1.03125 0.296875q0.671875 0 1.1875 -0.28125q0.515625 -0.296875 0.765625 -0.8125q0.171875 -0.390625 0.171875 -1.15625l0 -0.421875zm2.9557495 6.03125l0 -9.421875l1.0625 0l0 0.890625q0.359375 -0.515625 0.828125 -0.765625q0.46875 -0.265625 1.140625 -0.265625q0.875 0 1.53125 0.453125q0.671875 0.4375 1.015625 1.265625q0.34375 0.8125 0.34375 1.78125q0 1.046875 -0.375 1.890625q-0.375 0.828125 -1.09375 1.28125q-0.71875 0.4375 -1.5 0.4375q-0.578125 0 -1.046875 -0.234375q-0.453125 -0.25 -0.75 -0.625l0 3.3125l-1.15625 0zm1.046875 -5.96875q0 1.3125 0.53125 1.9375q0.53125 0.625 1.296875 0.625q0.765625 0 1.3125 -0.640625q0.546875 -0.65625 0.546875 -2.015625q0 -1.3125 -0.53125 -1.953125q-0.53125 -0.65625 -1.28125 -0.65625q-0.734375 0 -1.3125 0.703125q-0.5625 0.6875 -0.5625 2.0zm8.7838745 2.328125l0.15625 1.015625q-0.484375 0.109375 -0.875 0.109375q-0.625 0 -0.96875 -0.203125q-0.34375 -0.203125 -0.484375 -0.515625q-0.140625 -0.328125 -0.140625 -1.375l0 -3.90625l-0.84375 0l0 -0.90625l0.84375 0l0 -1.671875l1.140625 -0.703125l0 2.375l1.171875 0l0 0.90625l-1.171875 0l0 3.984375q0 0.484375 0.0625 0.625q0.0625 0.140625 0.203125 0.234375q0.140625 0.078125 0.390625 0.078125q0.1875 0 0.515625 -0.046875zm1.1309204 -7.03125l0 -1.328125l1.15625 0l0 1.328125l-1.15625 0zm0 8.0625l0 -6.8125l1.15625 0l0 6.8125l-1.15625 0zm7.3534546 -2.5l1.125 0.15625q-0.1875 1.171875 -0.953125 1.84375q-0.765625 0.65625 -1.875 0.65625q-1.390625 0 -2.25 -0.90625q-0.84375 -0.921875 -0.84375 -2.625q0 -1.109375 0.359375 -1.9375q0.375 -0.828125 1.109375 -1.234375q0.75 -0.40625 1.625 -0.40625q1.109375 0 1.8125 0.5625q0.71875 0.546875 0.90625 1.578125l-1.125 0.171875q-0.15625 -0.671875 -0.5625 -1.015625q-0.40625 -0.359375 -0.984375 -0.359375q-0.875 0 -1.421875 0.625q-0.53125 0.625 -0.53125 1.984375q0 1.375 0.515625 2.0q0.53125 0.609375 1.375 0.609375q0.6875 0 1.140625 -0.40625q0.453125 -0.421875 0.578125 -1.296875zm5.8652954 2.5l0 -9.390625l1.875 0l2.21875 6.640625q0.3125 0.9375 0.453125 1.390625q0.15625 -0.5 0.5 -1.5l2.25 -6.53125l1.671875 0l0 9.390625l-1.203125 0l0 -7.859375l-2.71875 7.859375l-1.125 0l-2.71875 -8.0l0 8.0l-1.203125 0zm10.401978 -3.40625q0 -1.890625 1.046875 -2.796875q0.875 -0.75 2.140625 -0.75q1.40625 0 2.296875 0.921875q0.890625 0.90625 0.890625 2.53125q0 1.3125 -0.390625 2.078125q-0.390625 0.75 -1.15625 1.171875q-0.75 0.40625 -1.640625 0.40625q-1.421875 0 -2.3125 -0.90625q-0.875 -0.921875 -0.875 -2.65625zm1.1875 0q0 1.3125 0.5625 1.96875q0.578125 0.640625 1.4375 0.640625q0.859375 0 1.421875 -0.65625q0.578125 -0.65625 0.578125 -1.984375q0 -1.265625 -0.578125 -1.90625q-0.5625 -0.65625 -1.421875 -0.65625q-0.859375 0 -1.4375 0.65625q-0.5625 0.640625 -0.5625 1.9375zm9.0651245 2.375l0.15625 1.015625q-0.484375 0.109375 -0.875 0.109375q-0.625 0 -0.96875 -0.203125q-0.34375 -0.203125 -0.484375 -0.515625q-0.140625 -0.328125 -0.140625 -1.375l0 -3.90625l-0.84375 0l0 -0.90625l0.84375 0l0 -1.671875l1.140625 -0.703125l0 2.375l1.171875 0l0 0.90625l-1.171875 0l0 3.984375q0 0.484375 0.0625 0.625q0.0625 0.140625 0.203125 0.234375q0.140625 0.078125 0.390625 0.078125q0.1875 0 0.515625 -0.046875zm0.6934204 -2.375q0 -1.890625 1.046875 -2.796875q0.875 -0.75 2.140625 -0.75q1.40625 0 2.296875 0.921875q0.890625 0.90625 0.890625 2.53125q0 1.3125 -0.390625 2.078125q-0.390625 0.75 -1.15625 1.171875q-0.75 0.40625 -1.640625 0.40625q-1.421875 0 -2.3125 -0.90625q-0.875 -0.921875 -0.875 -2.65625zm1.1875 0q0 1.3125 0.5625 1.96875q0.578125 0.640625 1.4375 0.640625q0.859375 0 1.421875 -0.65625q0.578125 -0.65625 0.578125 -1.984375q0 -1.265625 -0.578125 -1.90625q-0.5625 -0.65625 -1.421875 -0.65625q-0.859375 0 -1.4375 0.65625q-0.5625 0.640625 -0.5625 1.9375zm6.5338745 3.40625l0 -6.8125l1.03125 0l0 1.03125q0.390625 -0.71875 0.71875 -0.9375q0.34375 -0.234375 0.75 -0.234375q0.59375 0 1.1875 0.359375l-0.390625 1.078125q-0.421875 -0.25 -0.84375 -0.25q-0.390625 0 -0.6875 0.234375q-0.296875 0.21875 -0.421875 0.625q-0.203125 0.609375 -0.203125 1.34375l0 3.5625l-1.140625 0zm3.9176025 -2.03125l1.140625 -0.1875q0.09375 0.6875 0.53125 1.0625q0.4375 0.359375 1.234375 0.359375q0.796875 0 1.171875 -0.3125q0.390625 -0.328125 0.390625 -0.765625q0 -0.390625 -0.34375 -0.625q-0.234375 -0.140625 -1.171875 -0.390625q-1.28125 -0.3125 -1.765625 -0.546875q-0.484375 -0.234375 -0.75 -0.640625q-0.25 -0.421875 -0.25 -0.921875q0 -0.453125 0.203125 -0.84375q0.21875 -0.390625 0.578125 -0.640625q0.265625 -0.203125 0.71875 -0.328125q0.46875 -0.140625 1.015625 -0.140625q0.796875 0 1.390625 0.234375q0.609375 0.21875 0.890625 0.625q0.296875 0.390625 0.40625 1.046875l-1.125 0.15625q-0.078125 -0.53125 -0.453125 -0.828125q-0.359375 -0.296875 -1.03125 -0.296875q-0.796875 0 -1.140625 0.265625q-0.328125 0.265625 -0.328125 0.609375q0 0.234375 0.140625 0.40625q0.140625 0.1875 0.4375 0.3125q0.171875 0.0625 1.015625 0.296875q1.21875 0.328125 1.703125 0.53125q0.484375 0.203125 0.765625 0.609375q0.28125 0.390625 0.28125 0.984375q0 0.578125 -0.34375 1.09375q-0.328125 0.5 -0.96875 0.78125q-0.640625 0.28125 -1.4375 0.28125q-1.328125 0 -2.03125 -0.546875q-0.6875 -0.5625 -0.875 -1.640625z" fill-rule="nonzero"/><path fill="#cfe2f3" d="m587.308 312.1365l101.19684 0l0 73.98425l-101.19684 0z" fill-rule="evenodd"/><path stroke="#000000" stroke-width="0.7060367454068242" stroke-linejoin="round" stroke-linecap="butt" d="m587.308 312.1365l101.19684 0l0 73.98425l-101.19684 0z" fill-rule="evenodd"/><path fill="#000000" d="m602.4065 353.73242l0 -9.390625l1.234375 0l0 8.28125l4.625 0l0 1.109375l-5.859375 0zm14.0494995 -3.296875l1.234375 0.3125q-0.390625 1.53125 -1.40625 2.34375q-1.015625 0.796875 -2.484375 0.796875q-1.515625 0 -2.46875 -0.609375q-0.953125 -0.625 -1.453125 -1.796875q-0.484375 -1.171875 -0.484375 -2.515625q0 -1.46875 0.5625 -2.5625q0.5625 -1.09375 1.59375 -1.65625q1.03125 -0.578125 2.28125 -0.578125q1.40625 0 2.359375 0.71875q0.96875 0.71875 1.34375 2.03125l-1.21875 0.28125q-0.328125 -1.03125 -0.953125 -1.484375q-0.625 -0.46875 -1.5625 -0.46875q-1.078125 0 -1.8125 0.515625q-0.71875 0.515625 -1.015625 1.390625q-0.296875 0.875 -0.296875 1.796875q0 1.203125 0.34375 2.109375q0.359375 0.890625 1.09375 1.328125q0.734375 0.4375 1.59375 0.4375q1.046875 0 1.765625 -0.59375q0.71875 -0.609375 0.984375 -1.796875zm2.7753296 3.296875l0 -9.390625l3.234375 0q1.09375 0 1.671875 0.125q0.8125 0.1875 1.375 0.671875q0.75 0.640625 1.109375 1.625q0.375 0.96875 0.375 2.21875q0 1.078125 -0.25 1.90625q-0.25 0.8125 -0.640625 1.359375q-0.390625 0.546875 -0.859375 0.859375q-0.46875 0.296875 -1.125 0.46875q-0.65625 0.15625 -1.5 0.15625l-3.390625 0zm1.234375 -1.109375l2.015625 0q0.921875 0 1.453125 -0.171875q0.53125 -0.171875 0.84375 -0.484375q0.4375 -0.453125 0.6875 -1.1875q0.25 -0.75 0.25 -1.8125q0 -1.46875 -0.484375 -2.265625q-0.484375 -0.796875 -1.171875 -1.0625q-0.5 -0.1875 -1.609375 -0.1875l-1.984375 0l0 7.171875zm11.890625 1.109375l0 -9.390625l3.234375 0q1.09375 0 1.671875 0.125q0.8125 0.1875 1.375 0.671875q0.75 0.640625 1.109375 1.625q0.375 0.96875 0.375 2.21875q0 1.078125 -0.25 1.90625q-0.25 0.8125 -0.640625 1.359375q-0.390625 0.546875 -0.859375 0.859375q-0.46875 0.296875 -1.125 0.46875q-0.65625 0.15625 -1.5 0.15625l-3.390625 0zm1.234375 -1.109375l2.015625 0q0.921875 0 1.453125 -0.171875q0.53125 -0.171875 0.84375 -0.484375q0.4375 -0.453125 0.6875 -1.1875q0.25 -0.75 0.25 -1.8125q0 -1.46875 -0.484375 -2.265625q-0.484375 -0.796875 -1.171875 -1.0625q-0.5 -0.1875 -1.609375 -0.1875l-1.984375 0l0 7.171875zm8.103455 -6.953125l0 -1.328125l1.15625 0l0 1.328125l-1.15625 0zm0 8.0625l0 -6.8125l1.15625 0l0 6.8125l-1.15625 0zm2.4472046 -2.03125l1.140625 -0.1875q0.09375 0.6875 0.53125 1.0625q0.4375 0.359375 1.234375 0.359375q0.796875 0 1.171875 -0.3125q0.390625 -0.328125 0.390625 -0.765625q0 -0.390625 -0.34375 -0.625q-0.234375 -0.140625 -1.171875 -0.390625q-1.28125 -0.3125 -1.765625 -0.546875q-0.484375 -0.234375 -0.75 -0.640625q-0.25 -0.421875 -0.25 -0.921875q0 -0.453125 0.203125 -0.84375q0.21875 -0.390625 0.578125 -0.640625q0.265625 -0.203125 0.71875 -0.328125q0.46875 -0.140625 1.015625 -0.140625q0.796875 0 1.390625 0.234375q0.609375 0.21875 0.890625 0.625q0.296875 0.390625 0.40625 1.046875l-1.125 0.15625q-0.078125 -0.53125 -0.453125 -0.828125q-0.359375 -0.296875 -1.03125 -0.296875q-0.796875 0 -1.140625 0.265625q-0.328125 0.265625 -0.328125 0.609375q0 0.234375 0.140625 0.40625q0.140625 0.1875 0.4375 0.3125q0.171875 0.0625 1.015625 0.296875q1.21875 0.328125 1.703125 0.53125q0.484375 0.203125 0.765625 0.609375q0.28125 0.390625 0.28125 0.984375q0 0.578125 -0.34375 1.09375q-0.328125 0.5 -0.96875 0.78125q-0.640625 0.28125 -1.4375 0.28125q-1.328125 0 -2.03125 -0.546875q-0.6875 -0.5625 -0.875 -1.640625zm7.015625 4.640625l0 -9.421875l1.0625 0l0 0.890625q0.359375 -0.515625 0.828125 -0.765625q0.46875 -0.265625 1.140625 -0.265625q0.875 0 1.53125 0.453125q0.671875 0.4375 1.015625 1.265625q0.34375 0.8125 0.34375 1.78125q0 1.046875 -0.375 1.890625q-0.375 0.828125 -1.09375 1.28125q-0.71875 0.4375 -1.5 0.4375q-0.578125 0 -1.046875 -0.234375q-0.453125 -0.25 -0.75 -0.625l0 3.3125l-1.15625 0zm1.046875 -5.96875q0 1.3125 0.53125 1.9375q0.53125 0.625 1.296875 0.625q0.765625 0 1.3125 -0.640625q0.546875 -0.65625 0.546875 -2.015625q0 -1.3125 -0.53125 -1.953125q-0.53125 -0.65625 -1.28125 -0.65625q-0.734375 0 -1.3125 0.703125q-0.5625 0.6875 -0.5625 2.0zm6.2369995 3.359375l0 -9.390625l1.15625 0l0 9.390625l-1.15625 0zm7.3847046 -0.84375q-0.640625 0.546875 -1.234375 0.78125q-0.59375 0.21875 -1.28125 0.21875q-1.125 0 -1.734375 -0.546875q-0.59375 -0.546875 -0.59375 -1.40625q0 -0.5 0.21875 -0.90625q0.234375 -0.421875 0.609375 -0.671875q0.375 -0.25 0.828125 -0.375q0.34375 -0.09375 1.03125 -0.171875q1.390625 -0.171875 2.046875 -0.390625q0.015625 -0.25 0.015625 -0.3125q0 -0.703125 -0.328125 -0.984375q-0.4375 -0.390625 -1.3125 -0.390625q-0.8125 0 -1.203125 0.28125q-0.390625 0.28125 -0.578125 1.015625l-1.125 -0.15625q0.15625 -0.734375 0.5 -1.171875q0.359375 -0.453125 1.015625 -0.6875q0.671875 -0.234375 1.5625 -0.234375q0.859375 0 1.40625 0.203125q0.546875 0.203125 0.796875 0.515625q0.265625 0.3125 0.359375 0.78125q0.0625 0.296875 0.0625 1.0625l0 1.53125q0 1.609375 0.078125 2.046875q0.078125 0.421875 0.28125 0.8125l-1.203125 0q-0.171875 -0.359375 -0.21875 -0.84375zm-0.109375 -2.578125q-0.625 0.265625 -1.875 0.4375q-0.71875 0.109375 -1.015625 0.234375q-0.28125 0.125 -0.453125 0.375q-0.15625 0.25 -0.15625 0.546875q0 0.46875 0.34375 0.78125q0.359375 0.296875 1.03125 0.296875q0.671875 0 1.1875 -0.28125q0.515625 -0.296875 0.765625 -0.8125q0.171875 -0.390625 0.171875 -1.15625l0 -0.421875zm2.9088745 6.046875l-0.125 -1.09375q0.375 0.109375 0.65625 0.109375q0.390625 0 0.609375 -0.125q0.234375 -0.125 0.390625 -0.359375q0.109375 -0.171875 0.34375 -0.859375q0.03125 -0.09375 0.109375 -0.28125l-2.578125 -6.828125l1.234375 0l1.421875 3.953125q0.265625 0.75 0.484375 1.578125q0.203125 -0.796875 0.484375 -1.5625l1.453125 -3.96875l1.15625 0l-2.59375 6.921875q-0.421875 1.125 -0.65625 1.546875q-0.296875 0.578125 -0.703125 0.84375q-0.390625 0.265625 -0.9375 0.265625q-0.34375 0 -0.75 -0.140625z" fill-rule="nonzero"/><path fill="#cfe2f3" d="m504.22046 117.47769l83.33862 0l0 73.98425l-83.33862 0z" fill-rule="evenodd"/><path stroke="#000000" stroke-width="0.7060367454068242" stroke-linejoin="round" stroke-linecap="butt" d="m504.22046 117.47769l83.33862 0l0 73.98425l-83.33862 0z" fill-rule="evenodd"/><path fill="#000000" d="m518.77563 159.0736l0 -9.390625l1.234375 0l0 8.28125l4.625 0l0 1.109375l-5.859375 0zm7.3619995 0l0 -9.390625l6.796875 0l0 1.109375l-5.546875 0l0 2.875l5.203125 0l0 1.09375l-5.203125 0l0 3.203125l5.765625 0l0 1.109375l-7.015625 0zm8.738647 0l0 -9.390625l3.234375 0q1.09375 0 1.671875 0.125q0.8125 0.1875 1.375 0.671875q0.75 0.640625 1.109375 1.625q0.375 0.96875 0.375 2.21875q0 1.078125 -0.25 1.90625q-0.25 0.8125 -0.640625 1.359375q-0.390625 0.546875 -0.859375 0.859375q-0.46875 0.296875 -1.125 0.46875q-0.65625 0.15625 -1.5 0.15625l-3.390625 0zm1.234375 -1.109375l2.015625 0q0.921875 0 1.453125 -0.171875q0.53125 -0.171875 0.84375 -0.484375q0.4375 -0.453125 0.6875 -1.1875q0.25 -0.75 0.25 -1.8125q0 -1.46875 -0.484375 -2.265625q-0.484375 -0.796875 -1.171875 -1.0625q-0.5 -0.1875 -1.609375 -0.1875l-1.984375 0l0 7.171875zm11.46875 -1.90625l1.171875 -0.109375q0.078125 0.703125 0.375 1.15625q0.3125 0.453125 0.953125 0.734375q0.640625 0.28125 1.4375 0.28125q0.71875 0 1.265625 -0.203125q0.546875 -0.21875 0.8125 -0.578125q0.265625 -0.375 0.265625 -0.8125q0 -0.453125 -0.265625 -0.78125q-0.25 -0.328125 -0.84375 -0.546875q-0.375 -0.15625 -1.671875 -0.453125q-1.296875 -0.3125 -1.8125 -0.59375q-0.671875 -0.359375 -1.0 -0.875q-0.328125 -0.515625 -0.328125 -1.171875q0 -0.703125 0.390625 -1.328125q0.40625 -0.625 1.1875 -0.9375q0.78125 -0.328125 1.71875 -0.328125q1.046875 0 1.84375 0.34375q0.796875 0.34375 1.21875 1.0q0.4375 0.640625 0.46875 1.46875l-1.1875 0.09375q-0.09375 -0.890625 -0.65625 -1.34375q-0.546875 -0.453125 -1.625 -0.453125q-1.140625 0 -1.65625 0.421875q-0.515625 0.40625 -0.515625 0.984375q0 0.5 0.375 0.828125q0.359375 0.328125 1.875 0.671875q1.515625 0.34375 2.078125 0.59375q0.8125 0.390625 1.203125 0.96875q0.390625 0.578125 0.390625 1.328125q0 0.75 -0.4375 1.421875q-0.421875 0.65625 -1.234375 1.03125q-0.796875 0.359375 -1.796875 0.359375q-1.28125 0 -2.140625 -0.359375q-0.859375 -0.375 -1.359375 -1.125q-0.484375 -0.75 -0.5 -1.6875zm11.551147 1.984375l0.15625 1.015625q-0.484375 0.109375 -0.875 0.109375q-0.625 0 -0.96875 -0.203125q-0.34375 -0.203125 -0.484375 -0.515625q-0.140625 -0.328125 -0.140625 -1.375l0 -3.90625l-0.84375 0l0 -0.90625l0.84375 0l0 -1.671875l1.140625 -0.703125l0 2.375l1.171875 0l0 0.90625l-1.171875 0l0 3.984375q0 0.484375 0.0625 0.625q0.0625 0.140625 0.203125 0.234375q0.140625 0.078125 0.390625 0.078125q0.1875 0 0.515625 -0.046875zm1.1152954 1.03125l0 -6.8125l1.03125 0l0 1.03125q0.390625 -0.71875 0.71875 -0.9375q0.34375 -0.234375 0.75 -0.234375q0.59375 0 1.1875 0.359375l-0.390625 1.078125q-0.421875 -0.25 -0.84375 -0.25q-0.390625 0 -0.6875 0.234375q-0.296875 0.21875 -0.421875 0.625q-0.203125 0.609375 -0.203125 1.34375l0 3.5625l-1.140625 0zm4.3863525 -8.0625l0 -1.328125l1.15625 0l0 1.328125l-1.15625 0zm0 8.0625l0 -6.8125l1.15625 0l0 6.8125l-1.15625 0zm2.9003296 2.609375l0 -9.421875l1.0625 0l0 0.890625q0.359375 -0.515625 0.828125 -0.765625q0.46875 -0.265625 1.140625 -0.265625q0.875 0 1.53125 0.453125q0.671875 0.4375 1.015625 1.265625q0.34375 0.8125 0.34375 1.78125q0 1.046875 -0.375 1.890625q-0.375 0.828125 -1.09375 1.28125q-0.71875 0.4375 -1.5 0.4375q-0.578125 0 -1.046875 -0.234375q-0.453125 -0.25 -0.75 -0.625l0 3.3125l-1.15625 0zm1.046875 -5.96875q0 1.3125 0.53125 1.9375q0.53125 0.625 1.296875 0.625q0.765625 0 1.3125 -0.640625q0.546875 -0.65625 0.546875 -2.015625q0 -1.3125 -0.53125 -1.953125q-0.53125 -0.65625 -1.28125 -0.65625q-0.734375 0 -1.3125 0.703125q-0.5625 0.6875 -0.5625 2.0z" fill-rule="nonzero"/><path fill="#000000" fill-opacity="0.0" d="m637.9048 276.53064l0 35.590546" fill-rule="evenodd"/><path stroke="#000000" stroke-width="1.8083989501312336" stroke-linejoin="round" stroke-linecap="butt" d="m637.9048 276.53064l0 24.740143" fill-rule="evenodd"/><path fill="#000000" stroke="#000000" stroke-width="1.8083989501312336" stroke-linecap="butt" d="m634.91785 301.27078l2.9869385 8.206696l2.9869995 -8.206696z" fill-rule="evenodd"/><path fill="#000000" fill-opacity="0.0" d="m499.52914 312.1365l0 -16.850403l113.700775 0" fill-rule="evenodd"/><path stroke="#000000" stroke-width="1.8083989501312336" stroke-linejoin="round" stroke-linecap="butt" d="m499.52914 301.2861l0 -6.0l113.700775 0" fill-rule="evenodd"/><path fill="#000000" stroke="#000000" stroke-width="1.8083989501312336" stroke-linecap="butt" d="m496.54218 301.2861l2.986969 8.206696l2.9869995 -8.206696z" fill-rule="evenodd"/><path fill="#cfe2f3" d="m587.3064 216.15268l101.19684 0l0 60.37796l-101.19684 0z" fill-rule="evenodd"/><path stroke="#000000" stroke-width="0.7060367454068242" stroke-linejoin="round" stroke-linecap="butt" d="m587.3064 216.15268l101.19684 0l0 60.37796l-101.19684 0z" fill-rule="evenodd"/><path fill="#000000" d="m617.3467 247.92981l1.171875 -0.109375q0.078125 0.703125 0.375 1.15625q0.3125 0.453125 0.953125 0.734375q0.640625 0.28125 1.4375 0.28125q0.71875 0 1.265625 -0.203125q0.546875 -0.21875 0.8125 -0.578125q0.265625 -0.375 0.265625 -0.8125q0 -0.453125 -0.265625 -0.78125q-0.25 -0.328125 -0.84375 -0.546875q-0.375 -0.15625 -1.671875 -0.453125q-1.296875 -0.3125 -1.8125 -0.59375q-0.671875 -0.359375 -1.0 -0.875q-0.328125 -0.515625 -0.328125 -1.171875q0 -0.703125 0.390625 -1.328125q0.40625 -0.625 1.1875 -0.9375q0.78125 -0.328125 1.71875 -0.328125q1.046875 0 1.84375 0.34375q0.796875 0.34375 1.21875 1.0q0.4375 0.640625 0.46875 1.46875l-1.1875 0.09375q-0.09375 -0.890625 -0.65625 -1.34375q-0.546875 -0.453125 -1.625 -0.453125q-1.140625 0 -1.65625 0.421875q-0.515625 0.40625 -0.515625 0.984375q0 0.5 0.375 0.828125q0.359375 0.328125 1.875 0.671875q1.515625 0.34375 2.078125 0.59375q0.8125 0.390625 1.203125 0.96875q0.390625 0.578125 0.390625 1.328125q0 0.75 -0.4375 1.421875q-0.421875 0.65625 -1.234375 1.03125q-0.796875 0.359375 -1.796875 0.359375q-1.28125 0 -2.140625 -0.359375q-0.859375 -0.375 -1.359375 -1.125q-0.484375 -0.75 -0.5 -1.6875zm11.566772 3.015625l0 -8.28125l-3.09375 0l0 -1.109375l7.4375 0l0 1.109375l-3.109375 0l0 8.28125l-1.234375 0zm5.579773 0l0 -9.390625l1.875 0l2.21875 6.640625q0.3125 0.9375 0.453125 1.390625q0.15625 -0.5 0.5 -1.5l2.25 -6.53125l1.671875 0l0 9.390625l-1.203125 0l0 -7.859375l-2.71875 7.859375l-1.125 0l-2.71875 -8.0l0 8.0l-1.203125 0zm10.511353 -2.484375l1.15625 -0.15625q0.203125 0.984375 0.671875 1.421875q0.484375 0.4375 1.171875 0.4375q0.8125 0 1.375 -0.5625q0.5625 -0.578125 0.5625 -1.40625q0 -0.796875 -0.53125 -1.3125q-0.515625 -0.515625 -1.3125 -0.515625q-0.328125 0 -0.8125 0.125l0.125 -1.0q0.109375 0 0.1875 0q0.734375 0 1.328125 -0.375q0.59375 -0.390625 0.59375 -1.1875q0 -0.640625 -0.4375 -1.046875q-0.421875 -0.421875 -1.109375 -0.421875q-0.671875 0 -1.125 0.421875q-0.4375 0.421875 -0.578125 1.265625l-1.140625 -0.203125q0.203125 -1.15625 0.953125 -1.796875q0.75 -0.640625 1.875 -0.640625q0.765625 0 1.40625 0.328125q0.65625 0.328125 0.984375 0.90625q0.34375 0.578125 0.34375 1.21875q0 0.59375 -0.328125 1.09375q-0.3125 0.5 -0.953125 0.796875q0.828125 0.203125 1.28125 0.8125q0.46875 0.59375 0.46875 1.5q0 1.234375 -0.90625 2.09375q-0.890625 0.859375 -2.265625 0.859375q-1.234375 0 -2.046875 -0.734375q-0.8125 -0.75 -0.9375 -1.921875zm13.3619995 1.375l0 1.109375l-6.21875 0q0 -0.421875 0.140625 -0.796875q0.234375 -0.640625 0.75 -1.25q0.53125 -0.625 1.515625 -1.421875q1.53125 -1.265625 2.0625 -2.0q0.546875 -0.734375 0.546875 -1.375q0 -0.6875 -0.5 -1.15625q-0.484375 -0.484375 -1.265625 -0.484375q-0.828125 0 -1.328125 0.5q-0.5 0.5 -0.515625 1.390625l-1.1875 -0.125q0.125 -1.328125 0.921875 -2.015625q0.796875 -0.703125 2.140625 -0.703125q1.34375 0 2.125 0.75q0.796875 0.75 0.796875 1.859375q0 0.5625 -0.234375 1.109375q-0.21875 0.546875 -0.765625 1.15625q-0.53125 0.59375 -1.78125 1.640625q-1.03125 0.875 -1.328125 1.1875q-0.296875 0.3125 -0.484375 0.625l4.609375 0z" fill-rule="nonzero"/><path fill="#000000" fill-opacity="0.0" d="m612.5932 277.08136l0 18.236237" fill-rule="evenodd"/><path stroke="#000000" stroke-width="2.0" stroke-linejoin="round" stroke-linecap="butt" d="m612.5932 277.08136l0 18.236237" fill-rule="evenodd"/><path fill="#000000" fill-opacity="0.0" d="m316.3727 171.17848l85.543304 0l0 60.377945l-85.543304 0z" fill-rule="evenodd"/><path fill="#000000" d="m342.33865 190.41847l0 -7.5625l1.546875 0l0 6.28125l3.828125 0l0 1.28125l-5.375 0zm6.4624023 -6.28125l0 -1.34375l1.46875 0l0 1.34375l-1.46875 0zm0 6.28125l0 -5.53125l1.46875 0l0 5.53125l-1.46875 0zm8.023132 0l-1.359375 0l0 -0.8125q-0.328125 0.46875 -0.796875 0.703125q-0.453125 0.234375 -0.921875 0.234375q-0.953125 0 -1.640625 -0.765625q-0.671875 -0.765625 -0.671875 -2.140625q0 -1.40625 0.65625 -2.140625q0.671875 -0.734375 1.671875 -0.734375q0.921875 0 1.609375 0.78125l0 -2.75l1.453125 0l0 7.625zm-3.890625 -2.875q0 0.875 0.234375 1.265625q0.359375 0.578125 0.984375 0.578125q0.515625 0 0.859375 -0.421875q0.359375 -0.4375 0.359375 -1.28125q0 -0.953125 -0.34375 -1.375q-0.34375 -0.421875 -0.875 -0.421875q-0.515625 0 -0.875 0.421875q-0.34375 0.40625 -0.34375 1.234375zm6.4311523 -0.96875l-1.328125 -0.234375q0.21875 -0.796875 0.765625 -1.1875q0.546875 -0.390625 1.625 -0.390625q0.984375 0 1.453125 0.234375q0.484375 0.234375 0.671875 0.59375q0.203125 0.359375 0.203125 1.3125l-0.015625 1.703125q0 0.71875 0.0625 1.078125q0.078125 0.34375 0.265625 0.734375l-1.4375 0q-0.0625 -0.140625 -0.140625 -0.4375q-0.046875 -0.125 -0.0625 -0.171875q-0.375 0.375 -0.796875 0.5625q-0.421875 0.171875 -0.90625 0.171875q-0.859375 0 -1.359375 -0.453125q-0.484375 -0.46875 -0.484375 -1.1875q0 -0.46875 0.21875 -0.828125q0.234375 -0.359375 0.640625 -0.546875q0.40625 -0.203125 1.15625 -0.359375q1.03125 -0.1875 1.421875 -0.359375l0 -0.140625q0 -0.421875 -0.21875 -0.59375q-0.203125 -0.1875 -0.78125 -0.1875q-0.375 0 -0.59375 0.15625q-0.21875 0.15625 -0.359375 0.53125zm1.953125 1.1875q-0.28125 0.09375 -0.890625 0.234375q-0.609375 0.125 -0.796875 0.25q-0.28125 0.203125 -0.28125 0.515625q0 0.296875 0.21875 0.53125q0.234375 0.21875 0.59375 0.21875q0.390625 0 0.75 -0.265625q0.265625 -0.1875 0.34375 -0.484375q0.0625 -0.1875 0.0625 -0.703125l0 -0.296875zm4.285858 2.65625l-1.46875 0l0 -5.53125l1.359375 0l0 0.796875q0.34375 -0.5625 0.625 -0.734375q0.28125 -0.1875 0.625 -0.1875q0.5 0 0.96875 0.28125l-0.453125 1.28125q-0.375 -0.25 -0.6875 -0.25q-0.3125 0 -0.53125 0.171875q-0.203125 0.171875 -0.328125 0.625q-0.109375 0.4375 -0.109375 1.84375l0 1.703125zm7.3732605 -1.09375l0 -1.984375l-2.0 0l0 -1.375l2.0 0l0 -1.984375l1.328125 0l0 1.984375l2.015625 0l0 1.375l-2.015625 0l0 1.984375l-1.328125 0z" fill-rule="nonzero"/><path fill="#000000" d="m331.19556 199.45285q0 -1.171875 0.34375 -1.953125q0.265625 -0.59375 0.703125 -1.046875q0.453125 -0.46875 1.0 -0.6875q0.703125 -0.3125 1.640625 -0.3125q1.6875 0 2.6875 1.046875q1.015625 1.046875 1.015625 2.921875q0 1.84375 -1.0 2.890625q-1.0 1.03125 -2.6875 1.03125q-1.703125 0 -2.703125 -1.03125q-1.0 -1.046875 -1.0 -2.859375zm1.578125 -0.046875q0 1.28125 0.59375 1.953125q0.609375 0.671875 1.53125 0.671875q0.921875 0 1.5 -0.65625q0.59375 -0.671875 0.59375 -2.0q0 -1.3125 -0.578125 -1.953125q-0.5625 -0.640625 -1.515625 -0.640625q-0.953125 0 -1.546875 0.65625q-0.578125 0.640625 -0.578125 1.96875zm8.413788 3.8125l-1.46875 0l0 -5.53125l1.359375 0l0 0.796875q0.34375 -0.5625 0.625 -0.734375q0.28125 -0.1875 0.625 -0.1875q0.5 0 0.96875 0.28125l-0.453125 1.28125q-0.375 -0.25 -0.6875 -0.25q-0.3125 0 -0.53125 0.171875q-0.203125 0.171875 -0.328125 0.625q-0.109375 0.4375 -0.109375 1.84375l0 1.703125zm2.7407227 -6.28125l0 -1.34375l1.46875 0l0 1.34375l-1.46875 0zm0 6.28125l0 -5.53125l1.46875 0l0 5.53125l-1.46875 0zm6.163788 -1.765625l1.453125 0.25q-0.28125 0.796875 -0.890625 1.21875q-0.609375 0.421875 -1.515625 0.421875q-1.4375 0 -2.125 -0.9375q-0.546875 -0.765625 -0.546875 -1.90625q0 -1.375 0.71875 -2.15625q0.71875 -0.78125 1.8125 -0.78125q1.234375 0 1.9375 0.828125q0.71875 0.8125 0.6875 2.484375l-3.65625 0q0.015625 0.65625 0.34375 1.015625q0.34375 0.359375 0.84375 0.359375q0.34375 0 0.578125 -0.1875q0.234375 -0.1875 0.359375 -0.609375zm0.078125 -1.46875q-0.015625 -0.640625 -0.328125 -0.96875q-0.3125 -0.328125 -0.765625 -0.328125q-0.46875 0 -0.78125 0.34375q-0.3125 0.359375 -0.3125 0.953125l2.1875 0zm7.676483 3.234375l-1.46875 0l0 -2.8125q0 -0.90625 -0.09375 -1.15625q-0.09375 -0.265625 -0.3125 -0.40625q-0.203125 -0.15625 -0.5 -0.15625q-0.375 0 -0.6875 0.21875q-0.296875 0.203125 -0.40625 0.546875q-0.109375 0.34375 -0.109375 1.265625l0 2.5l-1.46875 0l0 -5.53125l1.359375 0l0 0.8125q0.71875 -0.9375 1.828125 -0.9375q0.484375 0 0.875 0.1875q0.40625 0.171875 0.609375 0.4375q0.203125 0.265625 0.28125 0.609375q0.09375 0.34375 0.09375 0.984375l0 3.4375zm4.0092773 -5.53125l0 1.171875l-1.0 0l0 2.21875q0 0.6875 0.03125 0.796875q0.03125 0.109375 0.125 0.1875q0.109375 0.0625 0.25 0.0625q0.203125 0 0.59375 -0.140625l0.125 1.140625q-0.515625 0.21875 -1.15625 0.21875q-0.390625 0 -0.71875 -0.125q-0.3125 -0.140625 -0.46875 -0.34375q-0.140625 -0.21875 -0.203125 -0.578125q-0.046875 -0.25 -0.046875 -1.03125l0 -2.40625l-0.671875 0l0 -1.171875l0.671875 0l0 -1.09375l1.46875 -0.859375l0 1.953125l1.0 0zm2.1111145 1.6875l-1.328125 -0.234375q0.21875 -0.796875 0.765625 -1.1875q0.546875 -0.390625 1.625 -0.390625q0.984375 0 1.453125 0.234375q0.484375 0.234375 0.671875 0.59375q0.203125 0.359375 0.203125 1.3125l-0.015625 1.703125q0 0.71875 0.0625 1.078125q0.078125 0.34375 0.265625 0.734375l-1.4375 0q-0.0625 -0.140625 -0.140625 -0.4375q-0.046875 -0.125 -0.0625 -0.171875q-0.375 0.375 -0.796875 0.5625q-0.421875 0.171875 -0.90625 0.171875q-0.859375 0 -1.359375 -0.453125q-0.484375 -0.46875 -0.484375 -1.1875q0 -0.46875 0.21875 -0.828125q0.234375 -0.359375 0.640625 -0.546875q0.40625 -0.203125 1.15625 -0.359375q1.03125 -0.1875 1.421875 -0.359375l0 -0.140625q0 -0.421875 -0.21875 -0.59375q-0.203125 -0.1875 -0.78125 -0.1875q-0.375 0 -0.59375 0.15625q-0.21875 0.15625 -0.359375 0.53125zm1.953125 1.1875q-0.28125 0.09375 -0.890625 0.234375q-0.609375 0.125 -0.796875 0.25q-0.28125 0.203125 -0.28125 0.515625q0 0.296875 0.21875 0.53125q0.234375 0.21875 0.59375 0.21875q0.390625 0 0.75 -0.265625q0.265625 -0.1875 0.34375 -0.484375q0.0625 -0.1875 0.0625 -0.703125l0 -0.296875zm5.410858 -2.875l0 1.171875l-1.0 0l0 2.21875q0 0.6875 0.03125 0.796875q0.03125 0.109375 0.125 0.1875q0.109375 0.0625 0.25 0.0625q0.203125 0 0.59375 -0.140625l0.125 1.140625q-0.515625 0.21875 -1.15625 0.21875q-0.390625 0 -0.71875 -0.125q-0.3125 -0.140625 -0.46875 -0.34375q-0.140625 -0.21875 -0.203125 -0.578125q-0.046875 -0.25 -0.046875 -1.03125l0 -2.40625l-0.671875 0l0 -1.171875l0.671875 0l0 -1.09375l1.46875 -0.859375l0 1.953125l1.0 0zm1.0173645 -0.75l0 -1.34375l1.46875 0l0 1.34375l-1.46875 0zm0 6.28125l0 -5.53125l1.46875 0l0 5.53125l-1.46875 0zm2.6169128 -2.84375q0 -0.71875 0.359375 -1.40625q0.359375 -0.6875 1.015625 -1.046875q0.671875 -0.359375 1.46875 -0.359375q1.265625 0 2.0625 0.828125q0.796875 0.8125 0.796875 2.046875q0 1.25 -0.8125 2.078125q-0.796875 0.828125 -2.03125 0.828125q-0.75 0 -1.453125 -0.34375q-0.6875 -0.34375 -1.046875 -1.0q-0.359375 -0.671875 -0.359375 -1.625zm1.5 0.078125q0 0.828125 0.390625 1.265625q0.390625 0.4375 0.96875 0.4375q0.5625 0 0.953125 -0.4375q0.390625 -0.4375 0.390625 -1.265625q0 -0.8125 -0.390625 -1.25q-0.390625 -0.4375 -0.953125 -0.4375q-0.578125 0 -0.96875 0.4375q-0.390625 0.4375 -0.390625 1.25zm10.384247 2.765625l-1.46875 0l0 -2.8125q0 -0.90625 -0.09375 -1.15625q-0.09375 -0.265625 -0.3125 -0.40625q-0.203125 -0.15625 -0.5 -0.15625q-0.375 0 -0.6875 0.21875q-0.296875 0.203125 -0.40625 0.546875q-0.109375 0.34375 -0.109375 1.265625l0 2.5l-1.46875 0l0 -5.53125l1.359375 0l0 0.8125q0.71875 -0.9375 1.828125 -0.9375q0.484375 0 0.875 0.1875q0.40625 0.171875 0.609375 0.4375q0.203125 0.265625 0.28125 0.609375q0.09375 0.34375 0.09375 0.984375l0 3.4375z" fill-rule="nonzero"/><path fill="#000000" d="m328.44296 213.5341l1.5 -0.140625q0.125 0.75 0.53125 1.109375q0.421875 0.34375 1.125 0.34375q0.75 0 1.125 -0.3125q0.375 -0.3125 0.375 -0.734375q0 -0.265625 -0.15625 -0.453125q-0.15625 -0.1875 -0.5625 -0.328125q-0.265625 -0.09375 -1.234375 -0.34375q-1.234375 -0.296875 -1.734375 -0.75q-0.703125 -0.625 -0.703125 -1.53125q0 -0.59375 0.328125 -1.09375q0.34375 -0.515625 0.953125 -0.78125q0.625 -0.265625 1.5 -0.265625q1.4375 0 2.15625 0.640625q0.734375 0.625 0.78125 1.671875l-1.546875 0.078125q-0.09375 -0.59375 -0.421875 -0.84375q-0.328125 -0.265625 -0.984375 -0.265625q-0.671875 0 -1.046875 0.28125q-0.234375 0.171875 -0.234375 0.46875q0 0.265625 0.21875 0.46875q0.296875 0.234375 1.421875 0.5q1.125 0.265625 1.65625 0.5625q0.546875 0.28125 0.84375 0.78125q0.3125 0.484375 0.3125 1.203125q0 0.65625 -0.375 1.234375q-0.359375 0.5625 -1.03125 0.84375q-0.65625 0.28125 -1.65625 0.28125q-1.4375 0 -2.21875 -0.671875q-0.78125 -0.671875 -0.921875 -1.953125zm10.6857605 0.71875l1.453125 0.25q-0.28125 0.796875 -0.890625 1.21875q-0.609375 0.421875 -1.515625 0.421875q-1.4375 0 -2.125 -0.9375q-0.546875 -0.765625 -0.546875 -1.90625q0 -1.375 0.71875 -2.15625q0.71875 -0.78125 1.8125 -0.78125q1.234375 0 1.9375 0.828125q0.71875 0.8125 0.6875 2.484375l-3.65625 0q0.015625 0.65625 0.34375 1.015625q0.34375 0.359375 0.84375 0.359375q0.34375 0 0.578125 -0.1875q0.234375 -0.1875 0.359375 -0.609375zm0.078125 -1.46875q-0.015625 -0.640625 -0.328125 -0.96875q-0.3125 -0.328125 -0.765625 -0.328125q-0.46875 0 -0.78125 0.34375q-0.3125 0.359375 -0.3125 0.953125l2.1875 0zm7.6765137 3.234375l-1.46875 0l0 -2.8125q0 -0.90625 -0.09375 -1.15625q-0.09375 -0.265625 -0.3125 -0.40625q-0.203125 -0.15625 -0.5 -0.15625q-0.375 0 -0.6875 0.21875q-0.296875 0.203125 -0.40625 0.546875q-0.109375 0.34375 -0.109375 1.265625l0 2.5l-1.46875 0l0 -5.53125l1.359375 0l0 0.8125q0.71875 -0.9375 1.828125 -0.9375q0.484375 0 0.875 0.1875q0.40625 0.171875 0.609375 0.4375q0.203125 0.265625 0.28125 0.609375q0.09375 0.34375 0.09375 0.984375l0 3.4375zm0.9623718 -1.578125l1.46875 -0.21875q0.09375 0.421875 0.375 0.640625q0.296875 0.21875 0.796875 0.21875q0.578125 0 0.859375 -0.203125q0.1875 -0.140625 0.1875 -0.390625q0 -0.171875 -0.09375 -0.28125q-0.109375 -0.09375 -0.5 -0.1875q-1.765625 -0.390625 -2.234375 -0.703125q-0.65625 -0.453125 -0.65625 -1.25q0 -0.71875 0.5625 -1.203125q0.578125 -0.5 1.765625 -0.5q1.125 0 1.671875 0.375q0.5625 0.375 0.765625 1.09375l-1.375 0.25q-0.09375 -0.3125 -0.34375 -0.484375q-0.234375 -0.171875 -0.703125 -0.171875q-0.5625 0 -0.8125 0.15625q-0.171875 0.109375 -0.171875 0.296875q0 0.15625 0.140625 0.265625q0.203125 0.140625 1.359375 0.40625q1.171875 0.265625 1.640625 0.65625q0.453125 0.390625 0.453125 1.078125q0 0.765625 -0.640625 1.3125q-0.625 0.546875 -1.875 0.546875q-1.125 0 -1.78125 -0.453125q-0.65625 -0.46875 -0.859375 -1.25zm6.0983887 -1.265625q0 -0.71875 0.359375 -1.40625q0.359375 -0.6875 1.015625 -1.046875q0.671875 -0.359375 1.46875 -0.359375q1.265625 0 2.0625 0.828125q0.796875 0.8125 0.796875 2.046875q0 1.25 -0.8125 2.078125q-0.796875 0.828125 -2.03125 0.828125q-0.75 0 -1.453125 -0.34375q-0.6875 -0.34375 -1.046875 -1.0q-0.359375 -0.671875 -0.359375 -1.625zm1.5 0.078125q0 0.828125 0.390625 1.265625q0.390625 0.4375 0.96875 0.4375q0.5625 0 0.953125 -0.4375q0.390625 -0.4375 0.390625 -1.265625q0 -0.8125 -0.390625 -1.25q-0.390625 -0.4375 -0.953125 -0.4375q-0.578125 0 -0.96875 0.4375q-0.390625 0.4375 -0.390625 1.25zm6.759247 2.765625l-1.46875 0l0 -5.53125l1.359375 0l0 0.796875q0.34375 -0.5625 0.625 -0.734375q0.28125 -0.1875 0.625 -0.1875q0.5 0 0.96875 0.28125l-0.453125 1.28125q-0.375 -0.25 -0.6875 -0.25q-0.3125 0 -0.53125 0.171875q-0.203125 0.171875 -0.328125 0.625q-0.109375 0.4375 -0.109375 1.84375l0 1.703125zm5.7013855 -7.625l2.8125 0q0.953125 0 1.453125 0.140625q0.671875 0.203125 1.15625 0.703125q0.484375 0.5 0.734375 1.234375q0.25 0.734375 0.25 1.8125q0 0.9375 -0.234375 1.609375q-0.296875 0.84375 -0.828125 1.359375q-0.390625 0.390625 -1.078125 0.609375q-0.515625 0.15625 -1.359375 0.15625l-2.90625 0l0 -7.625zm1.546875 1.28125l0 5.0625l1.140625 0q0.65625 0 0.9375 -0.078125q0.375 -0.09375 0.625 -0.3125q0.25 -0.234375 0.40625 -0.734375q0.15625 -0.515625 0.15625 -1.40625q0 -0.875 -0.15625 -1.34375q-0.15625 -0.484375 -0.4375 -0.75q-0.28125 -0.265625 -0.71875 -0.359375q-0.328125 -0.078125 -1.265625 -0.078125l-0.6875 0zm7.2424927 2.5l-1.328125 -0.234375q0.21875 -0.796875 0.765625 -1.1875q0.546875 -0.390625 1.625 -0.390625q0.984375 0 1.453125 0.234375q0.484375 0.234375 0.671875 0.59375q0.203125 0.359375 0.203125 1.3125l-0.015625 1.703125q0 0.71875 0.0625 1.078125q0.078125 0.34375 0.265625 0.734375l-1.4375 0q-0.0625 -0.140625 -0.140625 -0.4375q-0.046875 -0.125 -0.0625 -0.171875q-0.375 0.375 -0.796875 0.5625q-0.421875 0.171875 -0.90625 0.171875q-0.859375 0 -1.359375 -0.453125q-0.484375 -0.46875 -0.484375 -1.1875q0 -0.46875 0.21875 -0.828125q0.234375 -0.359375 0.640625 -0.546875q0.40625 -0.203125 1.15625 -0.359375q1.03125 -0.1875 1.421875 -0.359375l0 -0.140625q0 -0.421875 -0.21875 -0.59375q-0.203125 -0.1875 -0.78125 -0.1875q-0.375 0 -0.59375 0.15625q-0.21875 0.15625 -0.359375 0.53125zm1.953125 1.1875q-0.28125 0.09375 -0.890625 0.234375q-0.609375 0.125 -0.796875 0.25q-0.28125 0.203125 -0.28125 0.515625q0 0.296875 0.21875 0.53125q0.234375 0.21875 0.59375 0.21875q0.390625 0 0.75 -0.265625q0.265625 -0.1875 0.34375 -0.484375q0.0625 -0.1875 0.0625 -0.703125l0 -0.296875zm5.410858 -2.875l0 1.171875l-1.0 0l0 2.21875q0 0.6875 0.03125 0.796875q0.03125 0.109375 0.125 0.1875q0.109375 0.0625 0.25 0.0625q0.203125 0 0.59375 -0.140625l0.125 1.140625q-0.515625 0.21875 -1.15625 0.21875q-0.390625 0 -0.71875 -0.125q-0.3125 -0.140625 -0.46875 -0.34375q-0.140625 -0.21875 -0.203125 -0.578125q-0.046875 -0.25 -0.046875 -1.03125l0 -2.40625l-0.671875 0l0 -1.171875l0.671875 0l0 -1.09375l1.46875 -0.859375l0 1.953125l1.0 0zm2.1111145 1.6875l-1.328125 -0.234375q0.21875 -0.796875 0.765625 -1.1875q0.546875 -0.390625 1.625 -0.390625q0.984375 0 1.453125 0.234375q0.484375 0.234375 0.671875 0.59375q0.203125 0.359375 0.203125 1.3125l-0.015625 1.703125q0 0.71875 0.0625 1.078125q0.078125 0.34375 0.265625 0.734375l-1.4375 0q-0.0625 -0.140625 -0.140625 -0.4375q-0.046875 -0.125 -0.0625 -0.171875q-0.375 0.375 -0.796875 0.5625q-0.421875 0.171875 -0.90625 0.171875q-0.859375 0 -1.359375 -0.453125q-0.484375 -0.46875 -0.484375 -1.1875q0 -0.46875 0.21875 -0.828125q0.234375 -0.359375 0.640625 -0.546875q0.40625 -0.203125 1.15625 -0.359375q1.03125 -0.1875 1.421875 -0.359375l0 -0.140625q0 -0.421875 -0.21875 -0.59375q-0.203125 -0.1875 -0.78125 -0.1875q-0.375 0 -0.59375 0.15625q-0.21875 0.15625 -0.359375 0.53125zm1.953125 1.1875q-0.28125 0.09375 -0.890625 0.234375q-0.609375 0.125 -0.796875 0.25q-0.28125 0.203125 -0.28125 0.515625q0 0.296875 0.21875 0.53125q0.234375 0.21875 0.59375 0.21875q0.390625 0 0.75 -0.265625q0.265625 -0.1875 0.34375 -0.484375q0.0625 -0.1875 0.0625 -0.703125l0 -0.296875z" fill-rule="nonzero"/><path fill="#000000" fill-opacity="0.0" d="m312.07315 266.042l92.09448 0l0 40.314972l-92.09448 0z" fill-rule="evenodd"/><path fill="#000000" d="m345.9066 285.28198l0 -7.5625l1.546875 0l0 6.28125l3.828125 0l0 1.28125l-5.375 0zm6.462372 -6.28125l0 -1.34375l1.46875 0l0 1.34375l-1.46875 0zm0 6.28125l0 -5.53125l1.46875 0l0 5.53125l-1.46875 0zm8.023163 0l-1.359375 0l0 -0.8125q-0.328125 0.46875 -0.796875 0.703125q-0.453125 0.234375 -0.921875 0.234375q-0.953125 0 -1.640625 -0.765625q-0.671875 -0.765625 -0.671875 -2.140625q0 -1.40625 0.65625 -2.140625q0.671875 -0.734375 1.671875 -0.734375q0.921875 0 1.609375 0.78125l0 -2.75l1.453125 0l0 7.625zm-3.890625 -2.875q0 0.875 0.234375 1.265625q0.359375 0.578125 0.984375 0.578125q0.515625 0 0.859375 -0.421875q0.359375 -0.4375 0.359375 -1.28125q0 -0.953125 -0.34375 -1.375q-0.34375 -0.421875 -0.875 -0.421875q-0.515625 0 -0.875 0.421875q-0.34375 0.40625 -0.34375 1.234375zm6.431122 -0.96875l-1.328125 -0.234375q0.21875 -0.796875 0.765625 -1.1875q0.546875 -0.390625 1.625 -0.390625q0.984375 0 1.453125 0.234375q0.484375 0.234375 0.671875 0.59375q0.203125 0.359375 0.203125 1.3125l-0.015625 1.703125q0 0.71875 0.0625 1.078125q0.078125 0.34375 0.265625 0.734375l-1.4375 0q-0.0625 -0.140625 -0.140625 -0.4375q-0.046875 -0.125 -0.0625 -0.171875q-0.375 0.375 -0.796875 0.5625q-0.421875 0.171875 -0.90625 0.171875q-0.859375 0 -1.359375 -0.453125q-0.484375 -0.46875 -0.484375 -1.1875q0 -0.46875 0.21875 -0.828125q0.234375 -0.359375 0.640625 -0.546875q0.40625 -0.203125 1.15625 -0.359375q1.03125 -0.1875 1.421875 -0.359375l0 -0.140625q0 -0.421875 -0.21875 -0.59375q-0.203125 -0.1875 -0.78125 -0.1875q-0.375 0 -0.59375 0.15625q-0.21875 0.15625 -0.359375 0.53125zm1.953125 1.1875q-0.28125 0.09375 -0.890625 0.234375q-0.609375 0.125 -0.796875 0.25q-0.28125 0.203125 -0.28125 0.515625q0 0.296875 0.21875 0.53125q0.234375 0.21875 0.59375 0.21875q0.390625 0 0.75 -0.265625q0.265625 -0.1875 0.34375 -0.484375q0.0625 -0.1875 0.0625 -0.703125l0 -0.296875zm4.2858887 2.65625l-1.46875 0l0 -5.53125l1.359375 0l0 0.796875q0.34375 -0.5625 0.625 -0.734375q0.28125 -0.1875 0.625 -0.1875q0.5 0 0.96875 0.28125l-0.453125 1.28125q-0.375 -0.25 -0.6875 -0.25q-0.3125 0 -0.53125 0.171875q-0.203125 0.171875 -0.328125 0.625q-0.109375 0.4375 -0.109375 1.84375l0 1.703125z" fill-rule="nonzero"/><path fill="#000000" d="m334.76334 295.28513l1.5 0.46875q-0.34375 1.25 -1.15625 1.859375q-0.796875 0.59375 -2.015625 0.59375q-1.515625 0 -2.5 -1.03125q-0.984375 -1.046875 -0.984375 -2.84375q0 -1.90625 0.984375 -2.953125q0.984375 -1.0625 2.59375 -1.0625q1.390625 0 2.265625 0.828125q0.53125 0.5 0.78125 1.40625l-1.515625 0.375q-0.140625 -0.59375 -0.578125 -0.9375q-0.421875 -0.34375 -1.03125 -0.34375q-0.859375 0 -1.390625 0.609375q-0.515625 0.609375 -0.515625 1.96875q0 1.4375 0.515625 2.0625q0.515625 0.609375 1.359375 0.609375q0.609375 0 1.046875 -0.390625q0.453125 -0.390625 0.640625 -1.21875zm2.4612427 -0.046875q0 -0.71875 0.359375 -1.40625q0.359375 -0.6875 1.015625 -1.046875q0.671875 -0.359375 1.46875 -0.359375q1.265625 0 2.0625 0.828125q0.796875 0.8125 0.796875 2.046875q0 1.25 -0.8125 2.078125q-0.796875 0.828125 -2.03125 0.828125q-0.75 0 -1.453125 -0.34375q-0.6875 -0.34375 -1.046875 -1.0q-0.359375 -0.671875 -0.359375 -1.625zm1.5 0.078125q0 0.828125 0.390625 1.265625q0.390625 0.4375 0.96875 0.4375q0.5625 0 0.953125 -0.4375q0.390625 -0.4375 0.390625 -1.265625q0 -0.8125 -0.390625 -1.25q-0.390625 -0.4375 -0.953125 -0.4375q-0.578125 0 -0.96875 0.4375q-0.390625 0.4375 -0.390625 1.25zm5.243622 -2.765625l1.34375 0l0 0.765625q0.71875 -0.890625 1.71875 -0.890625q0.53125 0 0.921875 0.21875q0.390625 0.21875 0.640625 0.671875q0.375 -0.453125 0.796875 -0.671875q0.421875 -0.21875 0.890625 -0.21875q0.609375 0 1.03125 0.25q0.421875 0.25 0.625 0.734375q0.15625 0.34375 0.15625 1.140625l0 3.53125l-1.453125 0l0 -3.15625q0 -0.828125 -0.15625 -1.0625q-0.203125 -0.3125 -0.625 -0.3125q-0.3125 0 -0.578125 0.1875q-0.265625 0.1875 -0.390625 0.546875q-0.125 0.359375 -0.125 1.140625l0 2.65625l-1.453125 0l0 -3.03125q0 -0.796875 -0.078125 -1.03125q-0.078125 -0.234375 -0.25 -0.34375q-0.15625 -0.125 -0.4375 -0.125q-0.34375 0 -0.609375 0.1875q-0.265625 0.171875 -0.390625 0.515625q-0.109375 0.34375 -0.109375 1.140625l0 2.6875l-1.46875 0l0 -5.53125zm9.475128 0l1.34375 0l0 0.765625q0.71875 -0.890625 1.71875 -0.890625q0.53125 0 0.921875 0.21875q0.390625 0.21875 0.640625 0.671875q0.375 -0.453125 0.796875 -0.671875q0.421875 -0.21875 0.890625 -0.21875q0.609375 0 1.03125 0.25q0.421875 0.25 0.625 0.734375q0.15625 0.34375 0.15625 1.140625l0 3.53125l-1.453125 0l0 -3.15625q0 -0.828125 -0.15625 -1.0625q-0.203125 -0.3125 -0.625 -0.3125q-0.3125 0 -0.578125 0.1875q-0.265625 0.1875 -0.390625 0.546875q-0.125 0.359375 -0.125 1.140625l0 2.65625l-1.453125 0l0 -3.03125q0 -0.796875 -0.078125 -1.03125q-0.078125 -0.234375 -0.25 -0.34375q-0.15625 -0.125 -0.4375 -0.125q-0.34375 0 -0.609375 0.1875q-0.265625 0.171875 -0.390625 0.515625q-0.109375 0.34375 -0.109375 1.140625l0 2.6875l-1.46875 0l0 -5.53125zm10.678223 1.6875l-1.328125 -0.234375q0.21875 -0.796875 0.765625 -1.1875q0.546875 -0.390625 1.625 -0.390625q0.984375 0 1.453125 0.234375q0.484375 0.234375 0.671875 0.59375q0.203125 0.359375 0.203125 1.3125l-0.015625 1.703125q0 0.71875 0.0625 1.078125q0.078125 0.34375 0.265625 0.734375l-1.4375 0q-0.0625 -0.140625 -0.140625 -0.4375q-0.046875 -0.125 -0.0625 -0.171875q-0.375 0.375 -0.796875 0.5625q-0.421875 0.171875 -0.90625 0.171875q-0.859375 0 -1.359375 -0.453125q-0.484375 -0.46875 -0.484375 -1.1875q0 -0.46875 0.21875 -0.828125q0.234375 -0.359375 0.640625 -0.546875q0.40625 -0.203125 1.15625 -0.359375q1.03125 -0.1875 1.421875 -0.359375l0 -0.140625q0 -0.421875 -0.21875 -0.59375q-0.203125 -0.1875 -0.78125 -0.1875q-0.375 0 -0.59375 0.15625q-0.21875 0.15625 -0.359375 0.53125zm1.953125 1.1875q-0.28125 0.09375 -0.890625 0.234375q-0.609375 0.125 -0.796875 0.25q-0.28125 0.203125 -0.28125 0.515625q0 0.296875 0.21875 0.53125q0.234375 0.21875 0.59375 0.21875q0.390625 0 0.75 -0.265625q0.265625 -0.1875 0.34375 -0.484375q0.0625 -0.1875 0.0625 -0.703125l0 -0.296875zm7.9108887 2.65625l-1.46875 0l0 -2.8125q0 -0.90625 -0.09375 -1.15625q-0.09375 -0.265625 -0.3125 -0.40625q-0.203125 -0.15625 -0.5 -0.15625q-0.375 0 -0.6875 0.21875q-0.296875 0.203125 -0.40625 0.546875q-0.109375 0.34375 -0.109375 1.265625l0 2.5l-1.46875 0l0 -5.53125l1.359375 0l0 0.8125q0.71875 -0.9375 1.828125 -0.9375q0.484375 0 0.875 0.1875q0.40625 0.171875 0.609375 0.4375q0.203125 0.265625 0.28125 0.609375q0.09375 0.34375 0.09375 0.984375l0 3.4375zm6.540497 0l-1.359375 0l0 -0.8125q-0.328125 0.46875 -0.796875 0.703125q-0.453125 0.234375 -0.921875 0.234375q-0.953125 0 -1.640625 -0.765625q-0.671875 -0.765625 -0.671875 -2.140625q0 -1.40625 0.65625 -2.140625q0.671875 -0.734375 1.671875 -0.734375q0.921875 0 1.609375 0.78125l0 -2.75l1.453125 0l0 7.625zm-3.890625 -2.875q0 0.875 0.234375 1.265625q0.359375 0.578125 0.984375 0.578125q0.515625 0 0.859375 -0.421875q0.359375 -0.4375 0.359375 -1.28125q0 -0.953125 -0.34375 -1.375q-0.34375 -0.421875 -0.875 -0.421875q-0.515625 0 -0.875 0.421875q-0.34375 0.40625 -0.34375 1.234375zm4.8217773 1.296875l1.46875 -0.21875q0.09375 0.421875 0.375 0.640625q0.296875 0.21875 0.796875 0.21875q0.578125 0 0.859375 -0.203125q0.1875 -0.140625 0.1875 -0.390625q0 -0.171875 -0.09375 -0.28125q-0.109375 -0.09375 -0.5 -0.1875q-1.765625 -0.390625 -2.234375 -0.703125q-0.65625 -0.453125 -0.65625 -1.25q0 -0.71875 0.5625 -1.203125q0.578125 -0.5 1.765625 -0.5q1.125 0 1.671875 0.375q0.5625 0.375 0.765625 1.09375l-1.375 0.25q-0.09375 -0.3125 -0.34375 -0.484375q-0.234375 -0.171875 -0.703125 -0.171875q-0.5625 0 -0.8125 0.15625q-0.171875 0.109375 -0.171875 0.296875q0 0.15625 0.140625 0.265625q0.203125 0.140625 1.359375 0.40625q1.171875 0.265625 1.640625 0.65625q0.453125 0.390625 0.453125 1.078125q0 0.765625 -0.640625 1.3125q-0.625 0.546875 -1.875 0.546875q-1.125 0 -1.78125 -0.453125q-0.65625 -0.46875 -0.859375 -1.25z" fill-rule="nonzero"/><path fill="#cfe2f3" d="m609.638 117.47769l78.86615 0l0 73.98425l-78.86615 0z" fill-rule="evenodd"/><path stroke="#000000" stroke-width="0.7060367454068242" stroke-linejoin="round" stroke-linecap="butt" d="m609.638 117.47769l78.86615 0l0 73.98425l-78.86615 0z" fill-rule="evenodd"/><path fill="#000000" d="m627.78564 159.0736l0 -9.390625l3.515625 0q1.078125 0 1.71875 0.28125q0.65625 0.28125 1.015625 0.875q0.375 0.59375 0.375 1.25q0 0.59375 -0.328125 1.125q-0.3125 0.53125 -0.984375 0.859375q0.859375 0.25 1.3125 0.859375q0.46875 0.59375 0.46875 1.421875q0 0.65625 -0.28125 1.234375q-0.28125 0.5625 -0.703125 0.875q-0.40625 0.296875 -1.03125 0.453125q-0.609375 0.15625 -1.5 0.15625l-3.578125 0zm1.234375 -5.453125l2.03125 0q0.828125 0 1.1875 -0.109375q0.46875 -0.140625 0.703125 -0.453125q0.25 -0.328125 0.25 -0.828125q0 -0.46875 -0.234375 -0.828125q-0.21875 -0.359375 -0.640625 -0.484375q-0.40625 -0.125 -1.421875 -0.125l-1.875 0l0 2.828125zm0 4.34375l2.34375 0q0.59375 0 0.84375 -0.046875q0.421875 -0.078125 0.703125 -0.25q0.296875 -0.1875 0.484375 -0.53125q0.1875 -0.34375 0.1875 -0.78125q0 -0.53125 -0.265625 -0.921875q-0.265625 -0.390625 -0.75 -0.546875q-0.46875 -0.15625 -1.375 -0.15625l-2.171875 0l0 3.234375zm11.879272 1.109375l0 -1.0q-0.796875 1.15625 -2.15625 1.15625q-0.609375 0 -1.140625 -0.234375q-0.515625 -0.234375 -0.765625 -0.578125q-0.25 -0.34375 -0.359375 -0.859375q-0.0625 -0.34375 -0.0625 -1.078125l0 -4.21875l1.15625 0l0 3.78125q0 0.90625 0.0625 1.21875q0.109375 0.453125 0.453125 0.71875q0.359375 0.25 0.875 0.25q0.53125 0 0.984375 -0.265625q0.453125 -0.265625 0.640625 -0.71875q0.1875 -0.453125 0.1875 -1.328125l0 -3.65625l1.15625 0l0 6.8125l-1.03125 0zm5.3619995 -1.03125l0.15625 1.015625q-0.484375 0.109375 -0.875 0.109375q-0.625 0 -0.96875 -0.203125q-0.34375 -0.203125 -0.484375 -0.515625q-0.140625 -0.328125 -0.140625 -1.375l0 -3.90625l-0.84375 0l0 -0.90625l0.84375 0l0 -1.671875l1.140625 -0.703125l0 2.375l1.171875 0l0 0.90625l-1.171875 0l0 3.984375q0 0.484375 0.0625 0.625q0.0625 0.140625 0.203125 0.234375q0.140625 0.078125 0.390625 0.078125q0.1875 0 0.515625 -0.046875zm3.6465454 0l0.15625 1.015625q-0.484375 0.109375 -0.875 0.109375q-0.625 0 -0.96875 -0.203125q-0.34375 -0.203125 -0.484375 -0.515625q-0.140625 -0.328125 -0.140625 -1.375l0 -3.90625l-0.84375 0l0 -0.90625l0.84375 0l0 -1.671875l1.140625 -0.703125l0 2.375l1.171875 0l0 0.90625l-1.171875 0l0 3.984375q0 0.484375 0.0625 0.625q0.0625 0.140625 0.203125 0.234375q0.140625 0.078125 0.390625 0.078125q0.1875 0 0.515625 -0.046875zm0.6934204 -2.375q0 -1.890625 1.046875 -2.796875q0.875 -0.75 2.140625 -0.75q1.40625 0 2.296875 0.921875q0.890625 0.90625 0.890625 2.53125q0 1.3125 -0.390625 2.078125q-0.390625 0.75 -1.15625 1.171875q-0.75 0.40625 -1.640625 0.40625q-1.421875 0 -2.3125 -0.90625q-0.875 -0.921875 -0.875 -2.65625zm1.1875 0q0 1.3125 0.5625 1.96875q0.578125 0.640625 1.4375 0.640625q0.859375 0 1.421875 -0.65625q0.578125 -0.65625 0.578125 -1.984375q0 -1.265625 -0.578125 -1.90625q-0.5625 -0.65625 -1.421875 -0.65625q-0.859375 0 -1.4375 0.65625q-0.5625 0.640625 -0.5625 1.9375zm6.5338745 3.40625l0 -6.8125l1.046875 0l0 0.96875q0.75 -1.109375 2.15625 -1.109375q0.625 0 1.140625 0.21875q0.515625 0.21875 0.765625 0.578125q0.265625 0.359375 0.359375 0.84375q0.0625 0.328125 0.0625 1.125l0 4.1875l-1.140625 0l0 -4.140625q0 -0.703125 -0.140625 -1.046875q-0.140625 -0.359375 -0.484375 -0.5625q-0.34375 -0.203125 -0.796875 -0.203125q-0.734375 0 -1.28125 0.46875q-0.53125 0.453125 -0.53125 1.765625l0 3.71875l-1.15625 0zm6.8463745 -2.03125l1.140625 -0.1875q0.09375 0.6875 0.53125 1.0625q0.4375 0.359375 1.234375 0.359375q0.796875 0 1.171875 -0.3125q0.390625 -0.328125 0.390625 -0.765625q0 -0.390625 -0.34375 -0.625q-0.234375 -0.140625 -1.171875 -0.390625q-1.28125 -0.3125 -1.765625 -0.546875q-0.484375 -0.234375 -0.75 -0.640625q-0.25 -0.421875 -0.25 -0.921875q0 -0.453125 0.203125 -0.84375q0.21875 -0.390625 0.578125 -0.640625q0.265625 -0.203125 0.71875 -0.328125q0.46875 -0.140625 1.015625 -0.140625q0.796875 0 1.390625 0.234375q0.609375 0.21875 0.890625 0.625q0.296875 0.390625 0.40625 1.046875l-1.125 0.15625q-0.078125 -0.53125 -0.453125 -0.828125q-0.359375 -0.296875 -1.03125 -0.296875q-0.796875 0 -1.140625 0.265625q-0.328125 0.265625 -0.328125 0.609375q0 0.234375 0.140625 0.40625q0.140625 0.1875 0.4375 0.3125q0.171875 0.0625 1.015625 0.296875q1.21875 0.328125 1.703125 0.53125q0.484375 0.203125 0.765625 0.609375q0.28125 0.390625 0.28125 0.984375q0 0.578125 -0.34375 1.09375q-0.328125 0.5 -0.96875 0.78125q-0.640625 0.28125 -1.4375 0.28125q-1.328125 0 -2.03125 -0.546875q-0.6875 -0.5625 -0.875 -1.640625z" fill-rule="nonzero"/><path fill="#000000" fill-opacity="0.0" d="m624.83203 215.7664l-0.19128418 0l0 -14.236221l-78.517395 0" fill-rule="evenodd"/><path stroke="#000000" stroke-width="1.8083989501312336" stroke-linejoin="round" stroke-linecap="butt" d="m624.64075 204.9177l0 -3.3875122l-78.517395 0" fill-rule="evenodd"/><path fill="#000000" stroke="#000000" stroke-width="1.8083989501312336" stroke-linecap="butt" d="m621.65424 204.97035l3.1311646 8.152756l2.841858 -8.258072z" fill-rule="evenodd"/><path fill="#000000" fill-opacity="0.0" d="m546.04675 191.46194l0.06298828 10.803146" fill-rule="evenodd"/><path stroke="#000000" stroke-width="2.0" stroke-linejoin="round" stroke-linecap="butt" d="m546.04675 191.46194l0.06298828 10.803146" fill-rule="evenodd"/></g></svg>