<svg version="1.1" viewBox="0.0 0.0 800.0 600.0" fill="none" stroke="none" stroke-linecap="square" stroke-miterlimit="10" xmlns:xlink="http://www.w3.org/1999/xlink" xmlns="http://www.w3.org/2000/svg"><clipPath id="p.0"><path d="m0 0l800.0 0l0 600.0l-800.0 0l0 -600.0z" clip-rule="nonzero"/></clipPath><g clip-path="url(#p.0)"><path fill="#000000" fill-opacity="0.0" d="m0 0l800.0 0l0 600.0l-800.0 0z" fill-rule="evenodd"/><path fill="#000000" fill-opacity="0.0" d="m130.14154 124.312996l266.3937 118.803154" fill-rule="evenodd"/><path stroke="#000000" stroke-width="1.8241469816272966" stroke-linejoin="round" stroke-linecap="butt" d="m130.14154 124.312996l266.3937 118.803154" fill-rule="evenodd"/><path fill="#000000" fill-opacity="0.0" d="m662.94617 124.312996l-266.39368 118.803154" fill-rule="evenodd"/><path stroke="#000000" stroke-width="1.8241469816272966" stroke-linejoin="round" stroke-linecap="butt" d="m652.9503 128.77084l-256.39783 114.34529" fill-rule="evenodd"/><path fill="#000000" stroke="#000000" stroke-width="1.8241469816272966" stroke-linecap="butt" d="m654.1775 131.5226l6.333191 -6.123451l-8.787598 0.6199417z" fill-rule="evenodd"/><path fill="#000000" fill-opacity="0.0" d="m0 109.333336l130.14174 0l0 25.921257l-130.14174 0z" fill-rule="evenodd"/><path fill="#000000" d="m9.34375 133.67894l0 -12.187508l5.390625 0q1.625 0 2.46875 0.328125q0.859375 0.328125 1.359375 1.171875q0.515625 0.828125 0.515625 1.828125q0 1.296875 -0.84375 2.1875q-0.84375 0.890625 -2.59375 1.1250076q0.640625 0.3125 0.96875 0.609375q0.71875 0.65625 1.34375 1.625l2.125 3.3125l-2.03125 0l-1.609375 -2.53125q-0.703125 -1.09375 -1.171875 -1.671875q-0.453125 -0.59375 -0.8125 -0.828125q-0.359375 -0.234375 -0.734375 -0.3125q-0.28125 -0.0625 -0.90625 -0.0625l-1.859375 0l0 5.40625l-1.609375 0zm1.609375 -6.7968826l3.46875 0q1.09375 0 1.71875 -0.234375q0.625 -0.234375 0.9375 -0.734375q0.328125 -0.5 0.328125 -1.09375q0 -0.859375 -0.625 -1.40625q-0.625 -0.5625 -1.984375 -0.5625l-3.84375 0l0 4.03125zm16.491272 3.9531326l1.546875 0.1875q-0.359375 1.359375 -1.359375 2.109375q-0.984375 0.75 -2.515625 0.75q-1.9375 0 -3.078125 -1.1875q-1.125 -1.203125 -1.125 -3.359375q0 -2.2187576 1.140625 -3.4375076q1.15625 -1.234375 2.984375 -1.234375q1.765625 0 2.875 1.203125q1.125 1.203125 1.125 3.3906326q0 0.125 0 0.390625l-6.578125 0q0.078125 1.453125 0.8125 2.234375q0.75 0.765625 1.84375 0.765625q0.828125 0 1.40625 -0.421875q0.59375 -0.4375 0.921875 -1.390625zm-4.90625 -2.421875l4.921875 0q-0.09375 -1.1093826 -0.5625 -1.6562576q-0.703125 -0.875 -1.84375 -0.875q-1.03125 0 -1.734375 0.6875q-0.703125 0.6875 -0.78125 1.8437576zm13.963287 8.640625l0 -4.3125q-0.359375 0.484375 -0.984375 0.8125q-0.625 0.328125 -1.328125 0.328125q-1.578125 0 -2.71875 -1.25q-1.125 -1.265625 -1.125 -3.453125q0 -1.3281326 0.453125 -2.3750076q0.46875 -1.0625 1.34375 -1.59375q0.890625 -0.546875 1.9375 -0.546875q1.625 0 2.5625 1.375l0 -1.1875l1.34375 0l0 12.203133l-1.484375 0zm-4.609375 -7.8125q0 1.703125 0.703125 2.5625q0.71875 0.84375 1.71875 0.84375q0.953125 0 1.640625 -0.8125q0.6875 -0.8125 0.6875 -2.453125q0 -1.7656326 -0.734375 -2.6562576q-0.71875 -0.890625 -1.6875 -0.890625q-0.984375 0 -1.65625 0.828125q-0.671875 0.828125 -0.671875 2.5781326zm14.228912 4.4375l0 -1.296875q-1.03125 1.5 -2.796875 1.5q-0.78125 0 -1.46875 -0.296875q-0.671875 -0.3125 -1.0 -0.75q-0.328125 -0.453125 -0.453125 -1.109375q-0.09375 -0.453125 -0.09375 -1.40625l0 -5.4687576l1.484375 0l0 4.8906326q0 1.171875 0.09375 1.59375q0.140625 0.578125 0.59375 0.921875q0.46875 0.328125 1.140625 0.328125q0.671875 0 1.25 -0.34375q0.59375 -0.34375 0.84375 -0.9375q0.25 -0.59375 0.25 -1.71875l0 -4.7343826l1.484375 0l0 8.828133l-1.328125 0zm3.6820374 -10.453133l0 -1.734375l1.5 0l0 1.734375l-1.5 0zm0 10.453133l0 -8.828133l1.5 0l0 8.828133l-1.5 0zm3.7647095 0l0 -8.828133l1.34375 0l0 1.34375q0.515625 -0.9375 0.953125 -1.234375q0.4375 -0.296875 0.953125 -0.296875q0.765625 0 1.546875 0.46875l-0.515625 1.390625q-0.5625 -0.328125 -1.109375 -0.328125q-0.484375 0 -0.875 0.296875q-0.390625 0.296875 -0.5625 0.828125q-0.25 0.7968826 -0.25 1.7343826l0 4.625l-1.484375 0zm11.713211 -2.84375l1.546875 0.1875q-0.359375 1.359375 -1.359375 2.109375q-0.984375 0.75 -2.515625 0.75q-1.9375 0 -3.078125 -1.1875q-1.125 -1.203125 -1.125 -3.359375q0 -2.2187576 1.140625 -3.4375076q1.15625 -1.234375 2.984375 -1.234375q1.765625 0 2.875 1.203125q1.125 1.203125 1.125 3.3906326q0 0.125 0 0.390625l-6.578125 0q0.078125 1.453125 0.8125 2.234375q0.75 0.765625 1.84375 0.765625q0.828125 0 1.40625 -0.421875q0.59375 -0.4375 0.921875 -1.390625zm-4.90625 -2.421875l4.921875 0q-0.09375 -1.1093826 -0.5625 -1.6562576q-0.703125 -0.875 -1.84375 -0.875q-1.03125 0 -1.734375 0.6875q-0.703125 0.6875 -0.78125 1.8437576zm8.338287 5.265625l0 -8.828133l1.328125 0l0 1.25q0.421875 -0.65625 1.109375 -1.046875q0.6875 -0.390625 1.578125 -0.390625q0.96875 0 1.59375 0.40625q0.640625 0.40625 0.890625 1.125q1.046875 -1.53125 2.734375 -1.53125q1.3125 0 2.015625 0.734375q0.703125 0.71875 0.703125 2.21875l0 6.0625076l-1.484375 0l0 -5.5625q0 -0.8906326 -0.15625 -1.2812576q-0.140625 -0.40625 -0.53125 -0.640625q-0.375 -0.25 -0.890625 -0.25q-0.921875 0 -1.546875 0.625q-0.609375 0.625 -0.609375 1.9843826l0 5.125l-1.5 0l0 -5.7343826q0 -1.0 -0.359375 -1.5q-0.359375 -0.5 -1.203125 -0.5q-0.625 0 -1.171875 0.34375q-0.53125 0.328125 -0.78125 0.96875q-0.234375 0.640625 -0.234375 1.8437576l0 4.578125l-1.484375 0zm20.205399 -2.84375l1.546875 0.1875q-0.359375 1.359375 -1.359375 2.109375q-0.984375 0.75 -2.515625 0.75q-1.9375 0 -3.078125 -1.1875q-1.125 -1.203125 -1.125 -3.359375q0 -2.2187576 1.140625 -3.4375076q1.15625 -1.234375 2.984375 -1.234375q1.765625 0 2.875 1.203125q1.125 1.203125 1.125 3.3906326q0 0.125 0 0.390625l-6.578125 0q0.078125 1.453125 0.8125 2.234375q0.75 0.765625 1.84375 0.765625q0.828125 0 1.40625 -0.421875q0.59375 -0.4375 0.921875 -1.390625zm-4.90625 -2.421875l4.921875 0q-0.09375 -1.1093826 -0.5625 -1.6562576q-0.703125 -0.875 -1.84375 -0.875q-1.03125 0 -1.734375 0.6875q-0.703125 0.6875 -0.78125 1.8437576zm8.338287 5.265625l0 -8.828133l1.34375 0l0 1.265625q0.96875 -1.453125 2.8125 -1.453125q0.796875 0 1.453125 0.28125q0.671875 0.28125 1.0 0.75q0.34375 0.46875 0.46875 1.109375q0.09375 0.40625 0.09375 1.4531326l0 5.421875l-1.5 0l0 -5.375q0 -0.9062576 -0.171875 -1.3593826q-0.171875 -0.453125 -0.625 -0.71875q-0.4375 -0.28125 -1.046875 -0.28125q-0.953125 0 -1.65625 0.609375q-0.6875 0.609375 -0.6875 2.3125076l0 4.8125l-1.484375 0zm12.728912 -1.34375l0.21875 1.328125q-0.640625 0.125 -1.140625 0.125q-0.8125 0 -1.265625 -0.25q-0.4375 -0.265625 -0.625 -0.671875q-0.1875 -0.421875 -0.1875 -1.765625l0 -5.0781326l-1.09375 0l0 -1.171875l1.09375 0l0 -2.1875l1.5 -0.890625l0 3.078125l1.5 0l0 1.171875l-1.5 0l0 5.1562576q0 0.640625 0.078125 0.828125q0.078125 0.171875 0.25 0.28125q0.171875 0.109375 0.515625 0.109375q0.25 0 0.65625 -0.0625zm0.8524933 -1.296875l1.484375 -0.21875q0.125 0.875 0.6875 1.359375q0.578125 0.46875 1.59375 0.46875q1.03125 0 1.53125 -0.421875q0.5 -0.421875 0.5 -0.984375q0 -0.5 -0.4375 -0.796875q-0.3125 -0.203125 -1.53125 -0.5q-1.640625 -0.421875 -2.28125 -0.71875q-0.640625 -0.3125 -0.96875 -0.84375q-0.328125 -0.5312576 -0.328125 -1.1875076q0 -0.59375 0.265625 -1.09375q0.28125 -0.5 0.75 -0.828125q0.34375 -0.265625 0.9375 -0.4375q0.609375 -0.171875 1.296875 -0.171875q1.046875 0 1.828125 0.296875q0.78125 0.296875 1.15625 0.8125q0.375 0.5 0.515625 1.359375l-1.453125 0.203125q-0.109375 -0.6875 -0.59375 -1.0625q-0.46875 -0.390625 -1.34375 -0.390625q-1.03125 0 -1.46875 0.34375q-0.4375 0.34375 -0.4375 0.796875q0 0.296875 0.1875 0.53125q0.171875 0.234375 0.5625 0.390625q0.234375 0.07813263 1.328125 0.39063263q1.578125 0.421875 2.203125 0.6875q0.640625 0.265625 0.984375 0.78125q0.359375 0.515625 0.359375 1.28125q0 0.75 -0.4375 1.421875q-0.421875 0.65625 -1.25 1.015625q-0.828125 0.359375 -1.859375 0.359375q-1.71875 0 -2.625 -0.71875q-0.90625 -0.71875 -1.15625 -2.125z" fill-rule="nonzero"/><path fill="#000000" fill-opacity="0.0" d="m77.90058 157.98073l167.84253 0l0 25.921265l-167.84253 0z" fill-rule="evenodd"/><path fill="#000000" d="m86.66621 178.42007l1.515625 -0.140625q0.109375 0.921875 0.5 1.515625q0.40625 0.578125 1.234375 0.9375q0.828125 0.359375 1.859375 0.359375q0.921875 0 1.625 -0.265625q0.71875 -0.28125 1.0625 -0.75q0.34375 -0.484375 0.34375 -1.0625q0 -0.5625 -0.34375 -0.984375q-0.328125 -0.4375 -1.078125 -0.734375q-0.5 -0.1875 -2.1875 -0.59375q-1.671875 -0.40625 -2.34375 -0.75q-0.875 -0.46875 -1.296875 -1.140625q-0.421875 -0.671875 -0.421875 -1.515625q0 -0.921875 0.515625 -1.71875q0.53125 -0.8125 1.53125 -1.21875q1.0 -0.421875 2.234375 -0.421875q1.359375 0 2.390625 0.4375q1.03125 0.4375 1.578125 1.28125q0.5625 0.84375 0.609375 1.921875l-1.546875 0.125q-0.125 -1.15625 -0.84375 -1.75q-0.71875 -0.59375 -2.125 -0.59375q-1.453125 0 -2.125 0.546875q-0.671875 0.53125 -0.671875 1.28125q0 0.65625 0.46875 1.078125q0.46875 0.421875 2.4375 0.875q1.96875 0.4375 2.703125 0.765625q1.0625 0.5 1.5625 1.25q0.5 0.75 0.5 1.734375q0 0.96875 -0.5625 1.828125q-0.546875 0.859375 -1.59375 1.34375q-1.03125 0.46875 -2.34375 0.46875q-1.65625 0 -2.78125 -0.46875q-1.109375 -0.484375 -1.75 -1.453125q-0.625 -0.96875 -0.65625 -2.1875zm11.646164 7.296875l-0.171875 -1.390625q0.484375 0.125 0.859375 0.125q0.5 0 0.796875 -0.171875q0.296875 -0.15625 0.484375 -0.453125q0.140625 -0.234375 0.453125 -1.125q0.046875 -0.125 0.140625 -0.359375l-3.34375 -8.84375l1.609375 0l1.828125 5.109375q0.359375 0.984375 0.640625 2.046875q0.265625 -1.03125 0.625 -2.015625l1.875 -5.140625l1.5 0l-3.359375 8.984375q-0.53125 1.453125 -0.84375 2.0q-0.390625 0.734375 -0.90625 1.078125q-0.515625 0.34375 -1.234375 0.34375q-0.421875 0 -0.953125 -0.1875zm7.9609375 -6.03125l1.484375 -0.21875q0.125 0.875 0.6875 1.359375q0.578125 0.46875 1.59375 0.46875q1.03125 0 1.53125 -0.421875q0.5 -0.421875 0.5 -0.984375q0 -0.5 -0.4375 -0.796875q-0.3125 -0.203125 -1.53125 -0.5q-1.640625 -0.421875 -2.28125 -0.71875q-0.640625 -0.3125 -0.96875 -0.84375q-0.328125 -0.53125 -0.328125 -1.1875q0 -0.59375 0.265625 -1.09375q0.28125 -0.5 0.75 -0.828125q0.34375 -0.265625 0.9375 -0.4375q0.609375 -0.171875 1.296875 -0.171875q1.046875 0 1.828125 0.296875q0.78125 0.296875 1.15625 0.8125q0.375 0.5 0.515625 1.359375l-1.453125 0.203125q-0.109375 -0.6875 -0.59375 -1.0625q-0.46875 -0.390625 -1.34375 -0.390625q-1.03125 0 -1.46875 0.34375q-0.4375 0.34375 -0.4375 0.796875q0 0.296875 0.1875 0.53125q0.171875 0.234375 0.5625 0.390625q0.234375 0.078125 1.328125 0.390625q1.578125 0.421875 2.203125 0.6875q0.640625 0.265625 0.984375 0.78125q0.359375 0.515625 0.359375 1.28125q0 0.75 -0.4375 1.421875q-0.421875 0.65625 -1.25 1.015625q-0.828125 0.359375 -1.859375 0.359375q-1.71875 0 -2.625 -0.71875q-0.90625 -0.71875 -1.15625 -2.125zm12.3828125 1.296875l0.21875 1.328125q-0.640625 0.125 -1.140625 0.125q-0.8125 0 -1.265625 -0.25q-0.4375 -0.265625 -0.625 -0.671875q-0.1875 -0.421875 -0.1875 -1.765625l0 -5.078125l-1.09375 0l0 -1.171875l1.09375 0l0 -2.1875l1.5 -0.890625l0 3.078125l1.5 0l0 1.171875l-1.5 0l0 5.15625q0 0.640625 0.078125 0.828125q0.078125 0.171875 0.25 0.28125q0.171875 0.109375 0.515625 0.109375q0.25 0 0.65625 -0.0625zm7.4931183 -1.5l1.546875 0.1875q-0.359375 1.359375 -1.359375 2.109375q-0.984375 0.75 -2.515625 0.75q-1.9375 0 -3.078125 -1.1875q-1.125 -1.203125 -1.125 -3.359375q0 -2.21875 1.140625 -3.4375q1.15625 -1.234375 2.984375 -1.234375q1.765625 0 2.875 1.203125q1.125 1.203125 1.125 3.390625q0 0.125 0 0.390625l-6.578125 0q0.078125 1.453125 0.8125 2.234375q0.75 0.765625 1.84375 0.765625q0.828125 0 1.40625 -0.421875q0.59375 -0.4375 0.921875 -1.390625zm-4.90625 -2.421875l4.921875 0q-0.09375 -1.109375 -0.5625 -1.65625q-0.703125 -0.875 -1.84375 -0.875q-1.03125 0 -1.734375 0.6875q-0.703125 0.6875 -0.78125 1.84375zm8.338295 5.265625l0 -8.828125l1.328125 0l0 1.25q0.421875 -0.65625 1.109375 -1.046875q0.6875 -0.390625 1.578125 -0.390625q0.96875 0 1.59375 0.40625q0.640625 0.40625 0.890625 1.125q1.046875 -1.53125 2.734375 -1.53125q1.3125 0 2.015625 0.734375q0.703125 0.71875 0.703125 2.21875l0 6.0625l-1.484375 0l0 -5.5625q0 -0.890625 -0.15625 -1.28125q-0.140625 -0.40625 -0.53125 -0.640625q-0.375 -0.25 -0.890625 -0.25q-0.921875 0 -1.546875 0.625q-0.609375 0.625 -0.609375 1.984375l0 5.125l-1.5 0l0 -5.734375q0 -1.0 -0.359375 -1.5q-0.359375 -0.5 -1.203125 -0.5q-0.625 0 -1.171875 0.34375q-0.53125 0.328125 -0.78125 0.96875q-0.234375 0.640625 -0.234375 1.84375l0 4.578125l-1.484375 0zm19.089142 0l0 -12.1875l4.203125 0q1.40625 0 2.15625 0.1875q1.046875 0.234375 1.796875 0.859375q0.953125 0.828125 1.421875 2.09375q0.484375 1.265625 0.484375 2.890625q0 1.390625 -0.328125 2.46875q-0.3125 1.0625 -0.828125 1.765625q-0.5 0.703125 -1.109375 1.109375q-0.59375 0.390625 -1.453125 0.609375q-0.84375 0.203125 -1.953125 0.203125l-4.390625 0zm1.609375 -1.4375l2.609375 0q1.203125 0 1.875 -0.21875q0.6875 -0.234375 1.109375 -0.640625q0.5625 -0.5625 0.875 -1.53125q0.328125 -0.96875 0.328125 -2.359375q0 -1.90625 -0.625 -2.921875q-0.625 -1.03125 -1.53125 -1.390625q-0.640625 -0.25 -2.078125 -0.25l-2.5625 0l0 9.3125zm16.522522 -1.40625l1.546875 0.1875q-0.359375 1.359375 -1.359375 2.109375q-0.984375 0.75 -2.515625 0.75q-1.9375 0 -3.078125 -1.1875q-1.125 -1.203125 -1.125 -3.359375q0 -2.21875 1.140625 -3.4375q1.15625 -1.234375 2.984375 -1.234375q1.765625 0 2.875 1.203125q1.125 1.203125 1.125 3.390625q0 0.125 0 0.390625l-6.578125 0q0.078125 1.453125 0.8125 2.234375q0.75 0.765625 1.84375 0.765625q0.828125 0 1.40625 -0.421875q0.59375 -0.4375 0.921875 -1.390625zm-4.90625 -2.421875l4.921875 0q-0.09375 -1.109375 -0.5625 -1.65625q-0.703125 -0.875 -1.84375 -0.875q-1.03125 0 -1.734375 0.6875q-0.703125 0.6875 -0.78125 1.84375zm7.7289124 2.625l1.484375 -0.21875q0.125 0.875 0.6875 1.359375q0.578125 0.46875 1.59375 0.46875q1.03125 0 1.53125 -0.421875q0.5 -0.421875 0.5 -0.984375q0 -0.5 -0.4375 -0.796875q-0.3125 -0.203125 -1.53125 -0.5q-1.640625 -0.421875 -2.28125 -0.71875q-0.640625 -0.3125 -0.96875 -0.84375q-0.328125 -0.53125 -0.328125 -1.1875q0 -0.59375 0.265625 -1.09375q0.28125 -0.5 0.75 -0.828125q0.34375 -0.265625 0.9375 -0.4375q0.609375 -0.171875 1.296875 -0.171875q1.046875 0 1.828125 0.296875q0.78125 0.296875 1.15625 0.8125q0.375 0.5 0.515625 1.359375l-1.453125 0.203125q-0.109375 -0.6875 -0.59375 -1.0625q-0.46875 -0.390625 -1.34375 -0.390625q-1.03125 0 -1.46875 0.34375q-0.4375 0.34375 -0.4375 0.796875q0 0.296875 0.1875 0.53125q0.171875 0.234375 0.5625 0.390625q0.234375 0.078125 1.328125 0.390625q1.578125 0.421875 2.203125 0.6875q0.640625 0.265625 0.984375 0.78125q0.359375 0.515625 0.359375 1.28125q0 0.75 -0.4375 1.421875q-0.421875 0.65625 -1.25 1.015625q-0.828125 0.359375 -1.859375 0.359375q-1.71875 0 -2.625 -0.71875q-0.90625 -0.71875 -1.15625 -2.125zm9.1171875 -7.8125l0 -1.734375l1.5 0l0 1.734375l-1.5 0zm0 10.453125l0 -8.828125l1.5 0l0 8.828125l-1.5 0zm3.4990845 0.734375l1.453125 0.21875q0.09375 0.671875 0.515625 0.96875q0.546875 0.421875 1.515625 0.421875q1.046875 0 1.609375 -0.421875q0.5625 -0.40625 0.765625 -1.15625q0.109375 -0.453125 0.09375 -1.921875q-0.96875 1.15625 -2.4375 1.15625q-1.8125 0 -2.8125 -1.3125q-1.0 -1.3125 -1.0 -3.15625q0 -1.25 0.453125 -2.3125q0.46875 -1.078125 1.328125 -1.65625q0.875 -0.578125 2.046875 -0.578125q1.5625 0 2.578125 1.25l0 -1.0625l1.375 0l0 7.625q0 2.0625 -0.421875 2.921875q-0.421875 0.859375 -1.328125 1.359375q-0.90625 0.5 -2.234375 0.5q-1.578125 0 -2.5625 -0.71875q-0.96875 -0.703125 -0.9375 -2.125zm1.234375 -5.296875q0 1.734375 0.6875 2.53125q0.703125 0.796875 1.734375 0.796875q1.03125 0 1.71875 -0.796875q0.703125 -0.796875 0.703125 -2.484375q0 -1.625 -0.71875 -2.4375q-0.71875 -0.828125 -1.71875 -0.828125q-1.0 0 -1.703125 0.8125q-0.703125 0.796875 -0.703125 2.40625zm8.510162 4.5625l0 -8.828125l1.34375 0l0 1.265625q0.96875 -1.453125 2.8125 -1.453125q0.796875 0 1.453125 0.28125q0.671875 0.28125 1.0 0.75q0.34375 0.46875 0.46875 1.109375q0.09375 0.40625 0.09375 1.453125l0 5.421875l-1.5 0l0 -5.375q0 -0.90625 -0.171875 -1.359375q-0.171875 -0.453125 -0.625 -0.71875q-0.4375 -0.28125 -1.046875 -0.28125q-0.953125 0 -1.65625 0.609375q-0.6875 0.609375 -0.6875 2.3125l0 4.8125l-1.484375 0z" fill-rule="nonzero"/><path fill="#000000" fill-opacity="0.0" d="m158.1689 201.76338l167.84251 0l0 25.921265l-167.84251 0z" fill-rule="evenodd"/><path fill="#000000" d="m176.1689 221.84337l1.609375 0.40625q-0.5 1.984375 -1.828125 3.03125q-1.3125 1.03125 -3.203125 1.03125q-1.96875 0 -3.203125 -0.796875q-1.234375 -0.796875 -1.890625 -2.3125q-0.640625 -1.53125 -0.640625 -3.28125q0 -1.890625 0.71875 -3.3125q0.734375 -1.421875 2.078125 -2.15625q1.34375 -0.734375 2.953125 -0.734375q1.828125 0 3.078125 0.9375q1.25 0.921875 1.734375 2.609375l-1.578125 0.375q-0.4375 -1.328125 -1.25 -1.9375q-0.796875 -0.609375 -2.015625 -0.609375q-1.40625 0 -2.34375 0.6875q-0.9375 0.671875 -1.328125 1.8125q-0.375 1.125 -0.375 2.328125q0 1.546875 0.453125 2.71875q0.453125 1.15625 1.40625 1.734375q0.953125 0.5625 2.0625 0.5625q1.359375 0 2.296875 -0.78125q0.9375 -0.78125 1.265625 -2.3125zm2.850647 -0.140625q0 -2.453125 1.359375 -3.640625q1.140625 -0.96875 2.78125 -0.96875q1.8125 0 2.96875 1.1875q1.15625 1.1875 1.15625 3.296875q0 1.703125 -0.515625 2.6875q-0.5 0.96875 -1.484375 1.515625q-0.96875 0.53125 -2.125 0.53125q-1.859375 0 -3.0 -1.1875q-1.140625 -1.1875 -1.140625 -3.421875zm1.546875 0q0 1.6875 0.734375 2.53125q0.734375 0.84375 1.859375 0.84375q1.109375 0 1.84375 -0.84375q0.75 -0.84375 0.75 -2.59375q0 -1.625 -0.75 -2.46875q-0.734375 -0.84375 -1.84375 -0.84375q-1.125 0 -1.859375 0.84375q-0.734375 0.828125 -0.734375 2.53125zm8.478912 4.40625l0 -8.828125l1.328125 0l0 1.25q0.421875 -0.65625 1.109375 -1.046875q0.6875 -0.390625 1.578125 -0.390625q0.96875 0 1.59375 0.40625q0.640625 0.40625 0.890625 1.125q1.046875 -1.53125 2.734375 -1.53125q1.3125 0 2.015625 0.734375q0.703125 0.71875 0.703125 2.21875l0 6.0625l-1.484375 0l0 -5.5625q0 -0.890625 -0.15625 -1.28125q-0.140625 -0.40625 -0.53125 -0.640625q-0.375 -0.25 -0.890625 -0.25q-0.921875 0 -1.546875 0.625q-0.609375 0.625 -0.609375 1.984375l0 5.125l-1.5 0l0 -5.734375q0 -1.0 -0.359375 -1.5q-0.359375 -0.5 -1.203125 -0.5q-0.625 0 -1.171875 0.34375q-0.53125 0.328125 -0.78125 0.96875q-0.234375 0.640625 -0.234375 1.84375l0 4.578125l-1.484375 0zm14.174149 3.375l0 -12.203125l1.359375 0l0 1.15625q0.484375 -0.671875 1.078125 -1.0q0.609375 -0.34375 1.484375 -0.34375q1.125 0 1.984375 0.578125q0.875 0.578125 1.3125 1.640625q0.4375 1.0625 0.4375 2.3125q0 1.359375 -0.484375 2.453125q-0.484375 1.078125 -1.421875 1.65625q-0.921875 0.578125 -1.9375 0.578125q-0.75 0 -1.34375 -0.3125q-0.59375 -0.328125 -0.984375 -0.796875l0 4.28125l-1.484375 0zm1.34375 -7.734375q0 1.703125 0.6875 2.515625q0.703125 0.8125 1.671875 0.8125q1.0 0 1.703125 -0.84375q0.71875 -0.84375 0.71875 -2.609375q0 -1.6875 -0.703125 -2.515625q-0.6875 -0.84375 -1.640625 -0.84375q-0.953125 0 -1.703125 0.890625q-0.734375 0.890625 -0.734375 2.59375zm7.5570374 -0.046875q0 -2.453125 1.359375 -3.640625q1.140625 -0.96875 2.78125 -0.96875q1.8125 0 2.96875 1.1875q1.15625 1.1875 1.15625 3.296875q0 1.703125 -0.515625 2.6875q-0.5 0.96875 -1.484375 1.515625q-0.96875 0.53125 -2.125 0.53125q-1.859375 0 -3.0 -1.1875q-1.140625 -1.1875 -1.140625 -3.421875zm1.546875 0q0 1.6875 0.734375 2.53125q0.734375 0.84375 1.859375 0.84375q1.109375 0 1.84375 -0.84375q0.75 -0.84375 0.75 -2.59375q0 -1.625 -0.75 -2.46875q-0.734375 -0.84375 -1.84375 -0.84375q-1.125 0 -1.859375 0.84375q-0.734375 0.828125 -0.734375 2.53125zm8.478912 4.40625l0 -8.828125l1.34375 0l0 1.265625q0.96875 -1.453125 2.8125 -1.453125q0.796875 0 1.453125 0.28125q0.671875 0.28125 1.0 0.75q0.34375 0.46875 0.46875 1.109375q0.09375 0.40625 0.09375 1.453125l0 5.421875l-1.5 0l0 -5.375q0 -0.90625 -0.171875 -1.359375q-0.171875 -0.453125 -0.625 -0.71875q-0.4375 -0.28125 -1.046875 -0.28125q-0.953125 0 -1.65625 0.609375q-0.6875 0.609375 -0.6875 2.3125l0 4.8125l-1.484375 0zm15.494537 -2.84375l1.546875 0.1875q-0.359375 1.359375 -1.359375 2.109375q-0.984375 0.75 -2.515625 0.75q-1.9375 0 -3.078125 -1.1875q-1.125 -1.203125 -1.125 -3.359375q0 -2.21875 1.140625 -3.4375q1.15625 -1.234375 2.984375 -1.234375q1.765625 0 2.875 1.203125q1.125 1.203125 1.125 3.390625q0 0.125 0 0.390625l-6.578125 0q0.078125 1.453125 0.8125 2.234375q0.75 0.765625 1.84375 0.765625q0.828125 0 1.40625 -0.421875q0.59375 -0.4375 0.921875 -1.390625zm-4.90625 -2.421875l4.921875 0q-0.09375 -1.109375 -0.5625 -1.65625q-0.703125 -0.875 -1.84375 -0.875q-1.03125 0 -1.734375 0.6875q-0.703125 0.6875 -0.78125 1.84375zm8.338287 5.265625l0 -8.828125l1.34375 0l0 1.265625q0.96875 -1.453125 2.8125 -1.453125q0.796875 0 1.453125 0.28125q0.671875 0.28125 1.0 0.75q0.34375 0.46875 0.46875 1.109375q0.09375 0.40625 0.09375 1.453125l0 5.421875l-1.5 0l0 -5.375q0 -0.90625 -0.171875 -1.359375q-0.171875 -0.453125 -0.625 -0.71875q-0.4375 -0.28125 -1.046875 -0.28125q-0.953125 0 -1.65625 0.609375q-0.6875 0.609375 -0.6875 2.3125l0 4.8125l-1.484375 0zm12.728912 -1.34375l0.21875 1.328125q-0.640625 0.125 -1.140625 0.125q-0.8125 0 -1.265625 -0.25q-0.4375 -0.265625 -0.625 -0.671875q-0.1875 -0.421875 -0.1875 -1.765625l0 -5.078125l-1.09375 0l0 -1.171875l1.09375 0l0 -2.1875l1.5 -0.890625l0 3.078125l1.5 0l0 1.171875l-1.5 0l0 5.15625q0 0.640625 0.078125 0.828125q0.078125 0.171875 0.25 0.28125q0.171875 0.109375 0.515625 0.109375q0.25 0 0.65625 -0.0625zm6.3768616 1.34375l0 -12.1875l4.203125 0q1.40625 0 2.15625 0.1875q1.046875 0.234375 1.796875 0.859375q0.953125 0.828125 1.421875 2.09375q0.484375 1.265625 0.484375 2.890625q0 1.390625 -0.328125 2.46875q-0.3125 1.0625 -0.828125 1.765625q-0.5 0.703125 -1.109375 1.109375q-0.59375 0.390625 -1.453125 0.609375q-0.84375 0.203125 -1.953125 0.203125l-4.390625 0zm1.609375 -1.4375l2.609375 0q1.203125 0 1.875 -0.21875q0.6875 -0.234375 1.109375 -0.640625q0.5625 -0.5625 0.875 -1.53125q0.328125 -0.96875 0.328125 -2.359375q0 -1.90625 -0.625 -2.921875q-0.625 -1.03125 -1.53125 -1.390625q-0.640625 -0.25 -2.078125 -0.25l-2.5625 0l0 9.3125zm16.522522 -1.40625l1.546875 0.1875q-0.359375 1.359375 -1.359375 2.109375q-0.984375 0.75 -2.515625 0.75q-1.9375 0 -3.078125 -1.1875q-1.125 -1.203125 -1.125 -3.359375q0 -2.21875 1.140625 -3.4375q1.15625 -1.234375 2.984375 -1.234375q1.765625 0 2.875 1.203125q1.125 1.203125 1.125 3.390625q0 0.125 0 0.390625l-6.578125 0q0.078125 1.453125 0.8125 2.234375q0.75 0.765625 1.84375 0.765625q0.828125 0 1.40625 -0.421875q0.59375 -0.4375 0.921875 -1.390625zm-4.90625 -2.421875l4.921875 0q-0.09375 -1.109375 -0.5625 -1.65625q-0.703125 -0.875 -1.84375 -0.875q-1.03125 0 -1.734375 0.6875q-0.703125 0.6875 -0.78125 1.84375zm7.7289124 2.625l1.484375 -0.21875q0.125 0.875 0.6875 1.359375q0.578125 0.46875 1.59375 0.46875q1.03125 0 1.53125 -0.421875q0.5 -0.421875 0.5 -0.984375q0 -0.5 -0.4375 -0.796875q-0.3125 -0.203125 -1.53125 -0.5q-1.640625 -0.421875 -2.28125 -0.71875q-0.640625 -0.3125 -0.96875 -0.84375q-0.328125 -0.53125 -0.328125 -1.1875q0 -0.59375 0.265625 -1.09375q0.28125 -0.5 0.75 -0.828125q0.34375 -0.265625 0.9375 -0.4375q0.609375 -0.171875 1.296875 -0.171875q1.046875 0 1.828125 0.296875q0.78125 0.296875 1.15625 0.8125q0.375 0.5 0.515625 1.359375l-1.453125 0.203125q-0.109375 -0.6875 -0.59375 -1.0625q-0.46875 -0.390625 -1.34375 -0.390625q-1.03125 0 -1.46875 0.34375q-0.4375 0.34375 -0.4375 0.796875q0 0.296875 0.1875 0.53125q0.171875 0.234375 0.5625 0.390625q0.234375 0.078125 1.328125 0.390625q1.578125 0.421875 2.203125 0.6875q0.640625 0.265625 0.984375 0.78125q0.359375 0.515625 0.359375 1.28125q0 0.75 -0.4375 1.421875q-0.421875 0.65625 -1.25 1.015625q-0.828125 0.359375 -1.859375 0.359375q-1.71875 0 -2.625 -0.71875q-0.90625 -0.71875 -1.15625 -2.125zm9.1171875 -7.8125l0 -1.734375l1.5 0l0 1.734375l-1.5 0zm0 10.453125l0 -8.828125l1.5 0l0 8.828125l-1.5 0zm3.4990845 0.734375l1.453125 0.21875q0.09375 0.671875 0.515625 0.96875q0.546875 0.421875 1.515625 0.421875q1.046875 0 1.609375 -0.421875q0.5625 -0.40625 0.765625 -1.15625q0.109375 -0.453125 0.09375 -1.921875q-0.96875 1.15625 -2.4375 1.15625q-1.8125 0 -2.8125 -1.3125q-1.0 -1.3125 -1.0 -3.15625q0 -1.25 0.453125 -2.3125q0.46875 -1.078125 1.328125 -1.65625q0.875 -0.578125 2.046875 -0.578125q1.5625 0 2.578125 1.25l0 -1.0625l1.375 0l0 7.625q0 2.0625 -0.421875 2.921875q-0.421875 0.859375 -1.328125 1.359375q-0.90625 0.5 -2.234375 0.5q-1.578125 0 -2.5625 -0.71875q-0.96875 -0.703125 -0.9375 -2.125zm1.234375 -5.296875q0 1.734375 0.6875 2.53125q0.703125 0.796875 1.734375 0.796875q1.03125 0 1.71875 -0.796875q0.703125 -0.796875 0.703125 -2.484375q0 -1.625 -0.71875 -2.4375q-0.71875 -0.828125 -1.71875 -0.828125q-1.0 0 -1.703125 0.8125q-0.703125 0.796875 -0.703125 2.40625zm8.510162 4.5625l0 -8.828125l1.34375 0l0 1.265625q0.96875 -1.453125 2.8125 -1.453125q0.796875 0 1.453125 0.28125q0.671875 0.28125 1.0 0.75q0.34375 0.46875 0.46875 1.109375q0.09375 0.40625 0.09375 1.453125l0 5.421875l-1.5 0l0 -5.375q0 -0.90625 -0.171875 -1.359375q-0.171875 -0.453125 -0.625 -0.71875q-0.4375 -0.28125 -1.046875 -0.28125q-0.953125 0 -1.65625 0.609375q-0.6875 0.609375 -0.6875 2.3125l0 4.8125l-1.484375 0z" fill-rule="nonzero"/><path fill="#000000" fill-opacity="0.0" d="m325.9951 252.76047l136.94489 0l0 25.921265l-136.94489 0z" fill-rule="evenodd"/><path fill="#000000" d="m335.58884 277.10608l0 -12.1875l1.609375 0l0 12.1875l-1.609375 0zm4.258728 0l0 -8.828125l1.328125 0l0 1.25q0.421875 -0.65625 1.109375 -1.046875q0.6875 -0.390625 1.578125 -0.390625q0.96875 0 1.59375 0.40625q0.640625 0.40625 0.890625 1.125q1.046875 -1.53125 2.734375 -1.53125q1.3125 0 2.015625 0.734375q0.703125 0.71875 0.703125 2.21875l0 6.0625l-1.484375 0l0 -5.5625q0 -0.890625 -0.15625 -1.28125q-0.140625 -0.40625 -0.53125 -0.640625q-0.375 -0.25 -0.890625 -0.25q-0.921875 0 -1.546875 0.625q-0.609375 0.625 -0.609375 1.984375l0 5.125l-1.5 0l0 -5.734375q0 -1.0 -0.359375 -1.5q-0.359375 -0.5 -1.203125 -0.5q-0.625 0 -1.171875 0.34375q-0.53125 0.328125 -0.78125 0.96875q-0.234375 0.640625 -0.234375 1.84375l0 4.578125l-1.484375 0zm14.174164 3.375l0 -12.203125l1.359375 0l0 1.15625q0.484375 -0.671875 1.078125 -1.0q0.609375 -0.34375 1.484375 -0.34375q1.125 0 1.984375 0.578125q0.875 0.578125 1.3125 1.640625q0.4375 1.0625 0.4375 2.3125q0 1.359375 -0.484375 2.453125q-0.484375 1.078125 -1.421875 1.65625q-0.921875 0.578125 -1.9375 0.578125q-0.75 0 -1.34375 -0.3125q-0.59375 -0.328125 -0.984375 -0.796875l0 4.28125l-1.484375 0zm1.34375 -7.734375q0 1.703125 0.6875 2.515625q0.703125 0.8125 1.671875 0.8125q1.0 0 1.703125 -0.84375q0.71875 -0.84375 0.71875 -2.609375q0 -1.6875 -0.703125 -2.515625q-0.6875 -0.84375 -1.640625 -0.84375q-0.953125 0 -1.703125 0.890625q-0.734375 0.890625 -0.734375 2.59375zm8.088287 4.359375l0 -12.1875l1.484375 0l0 12.1875l-1.484375 0zm9.842834 -2.84375l1.546875 0.1875q-0.359375 1.359375 -1.359375 2.109375q-0.984375 0.75 -2.515625 0.75q-1.9375 0 -3.078125 -1.1875q-1.125 -1.203125 -1.125 -3.359375q0 -2.21875 1.140625 -3.4375q1.15625 -1.234375 2.984375 -1.234375q1.765625 0 2.875 1.203125q1.125 1.203125 1.125 3.390625q0 0.125 0 0.390625l-6.578125 0q0.078125 1.453125 0.8125 2.234375q0.75 0.765625 1.84375 0.765625q0.828125 0 1.40625 -0.421875q0.59375 -0.4375 0.921875 -1.390625zm-4.90625 -2.421875l4.921875 0q-0.09375 -1.109375 -0.5625 -1.65625q-0.703125 -0.875 -1.84375 -0.875q-1.03125 0 -1.734375 0.6875q-0.703125 0.6875 -0.78125 1.84375zm8.338287 5.265625l0 -8.828125l1.328125 0l0 1.25q0.421875 -0.65625 1.109375 -1.046875q0.6875 -0.390625 1.578125 -0.390625q0.96875 0 1.59375 0.40625q0.640625 0.40625 0.890625 1.125q1.046875 -1.53125 2.734375 -1.53125q1.3125 0 2.015625 0.734375q0.703125 0.71875 0.703125 2.21875l0 6.0625l-1.484375 0l0 -5.5625q0 -0.890625 -0.15625 -1.28125q-0.140625 -0.40625 -0.53125 -0.640625q-0.375 -0.25 -0.890625 -0.25q-0.921875 0 -1.546875 0.625q-0.609375 0.625 -0.609375 1.984375l0 5.125l-1.5 0l0 -5.734375q0 -1.0 -0.359375 -1.5q-0.359375 -0.5 -1.203125 -0.5q-0.625 0 -1.171875 0.34375q-0.53125 0.328125 -0.78125 0.96875q-0.234375 0.640625 -0.234375 1.84375l0 4.578125l-1.484375 0zm20.205383 -2.84375l1.546875 0.1875q-0.359375 1.359375 -1.359375 2.109375q-0.984375 0.75 -2.515625 0.75q-1.9375 0 -3.078125 -1.1875q-1.125 -1.203125 -1.125 -3.359375q0 -2.21875 1.140625 -3.4375q1.15625 -1.234375 2.984375 -1.234375q1.765625 0 2.875 1.203125q1.125 1.203125 1.125 3.390625q0 0.125 0 0.390625l-6.578125 0q0.078125 1.453125 0.8125 2.234375q0.75 0.765625 1.84375 0.765625q0.828125 0 1.40625 -0.421875q0.59375 -0.4375 0.921875 -1.390625zm-4.90625 -2.421875l4.921875 0q-0.09375 -1.109375 -0.5625 -1.65625q-0.703125 -0.875 -1.84375 -0.875q-1.03125 0 -1.734375 0.6875q-0.703125 0.6875 -0.78125 1.84375zm8.338287 5.265625l0 -8.828125l1.34375 0l0 1.265625q0.96875 -1.453125 2.8125 -1.453125q0.796875 0 1.453125 0.28125q0.671875 0.28125 1.0 0.75q0.34375 0.46875 0.46875 1.109375q0.09375 0.40625 0.09375 1.453125l0 5.421875l-1.5 0l0 -5.375q0 -0.90625 -0.171875 -1.359375q-0.171875 -0.453125 -0.625 -0.71875q-0.4375 -0.28125 -1.046875 -0.28125q-0.953125 0 -1.65625 0.609375q-0.6875 0.609375 -0.6875 2.3125l0 4.8125l-1.484375 0zm12.728912 -1.34375l0.21875 1.328125q-0.640625 0.125 -1.140625 0.125q-0.8125 0 -1.265625 -0.25q-0.4375 -0.265625 -0.625 -0.671875q-0.1875 -0.421875 -0.1875 -1.765625l0 -5.078125l-1.09375 0l0 -1.171875l1.09375 0l0 -2.1875l1.5 -0.890625l0 3.078125l1.5 0l0 1.171875l-1.5 0l0 5.15625q0 0.640625 0.078125 0.828125q0.078125 0.171875 0.25 0.28125q0.171875 0.109375 0.515625 0.109375q0.25 0 0.65625 -0.0625zm7.2118835 0.25q-0.828125 0.71875 -1.59375 1.015625q-0.765625 0.28125 -1.65625 0.28125q-1.453125 0 -2.234375 -0.703125q-0.78125 -0.71875 -0.78125 -1.828125q0 -0.640625 0.296875 -1.171875q0.296875 -0.546875 0.765625 -0.859375q0.484375 -0.328125 1.09375 -0.5q0.4375 -0.125 1.328125 -0.21875q1.8125 -0.21875 2.65625 -0.515625q0.015625 -0.3125 0.015625 -0.390625q0 -0.921875 -0.421875 -1.296875q-0.578125 -0.5 -1.703125 -0.5q-1.0625 0 -1.5625 0.375q-0.5 0.359375 -0.75 1.296875l-1.453125 -0.203125q0.203125 -0.9375 0.65625 -1.515625q0.453125 -0.578125 1.3125 -0.875q0.875 -0.3125 2.015625 -0.3125q1.125 0 1.828125 0.265625q0.703125 0.265625 1.03125 0.671875q0.34375 0.390625 0.46875 1.0q0.078125 0.390625 0.078125 1.390625l0 1.984375q0 2.09375 0.09375 2.65625q0.09375 0.546875 0.375 1.046875l-1.5625 0q-0.21875 -0.46875 -0.296875 -1.09375zm-0.125 -3.328125q-0.8125 0.328125 -2.4375 0.5625q-0.921875 0.125 -1.3125 0.296875q-0.375 0.171875 -0.59375 0.484375q-0.203125 0.3125 -0.203125 0.703125q0 0.609375 0.453125 1.015625q0.453125 0.390625 1.328125 0.390625q0.875 0 1.546875 -0.375q0.671875 -0.390625 0.984375 -1.046875q0.234375 -0.5 0.234375 -1.484375l0 -0.546875zm7.1039124 3.078125l0.21875 1.328125q-0.640625 0.125 -1.140625 0.125q-0.8125 0 -1.265625 -0.25q-0.4375 -0.265625 -0.625 -0.671875q-0.1875 -0.421875 -0.1875 -1.765625l0 -5.078125l-1.09375 0l0 -1.171875l1.09375 0l0 -2.1875l1.5 -0.890625l0 3.078125l1.5 0l0 1.171875l-1.5 0l0 5.15625q0 0.640625 0.078125 0.828125q0.078125 0.171875 0.25 0.28125q0.171875 0.109375 0.515625 0.109375q0.25 0 0.65625 -0.0625zm1.461853 -9.109375l0 -1.734375l1.5 0l0 1.734375l-1.5 0zm0 10.453125l0 -8.828125l1.5 0l0 8.828125l-1.5 0zm3.2178345 -4.40625q0 -2.453125 1.359375 -3.640625q1.140625 -0.96875 2.78125 -0.96875q1.8125 0 2.96875 1.1875q1.15625 1.1875 1.15625 3.296875q0 1.703125 -0.515625 2.6875q-0.5 0.96875 -1.484375 1.515625q-0.96875 0.53125 -2.125 0.53125q-1.859375 0 -3.0 -1.1875q-1.140625 -1.1875 -1.140625 -3.421875zm1.546875 0q0 1.6875 0.734375 2.53125q0.734375 0.84375 1.859375 0.84375q1.109375 0 1.84375 -0.84375q0.75 -0.84375 0.75 -2.59375q0 -1.625 -0.75 -2.46875q-0.734375 -0.84375 -1.84375 -0.84375q-1.125 0 -1.859375 0.84375q-0.734375 0.828125 -0.734375 2.53125zm8.478912 4.40625l0 -8.828125l1.34375 0l0 1.265625q0.96875 -1.453125 2.8125 -1.453125q0.796875 0 1.453125 0.28125q0.671875 0.28125 1.0 0.75q0.34375 0.46875 0.46875 1.109375q0.09375 0.40625 0.09375 1.453125l0 5.421875l-1.5 0l0 -5.375q0 -0.90625 -0.171875 -1.359375q-0.171875 -0.453125 -0.625 -0.71875q-0.4375 -0.28125 -1.046875 -0.28125q-0.953125 0 -1.65625 0.609375q-0.6875 0.609375 -0.6875 2.3125l0 4.8125l-1.484375 0z" fill-rule="nonzero"/><path fill="#000000" fill-opacity="0.0" d="m484.09967 201.76346l167.84253 0l0 25.921265l-167.84253 0z" fill-rule="evenodd"/><path fill="#000000" d="m502.09967 221.84343l1.609375 0.40625q-0.5 1.984375 -1.828125 3.03125q-1.3125 1.03125 -3.203125 1.03125q-1.96875 0 -3.203125 -0.796875q-1.234375 -0.796875 -1.890625 -2.3125q-0.640625 -1.53125 -0.640625 -3.28125q0 -1.890625 0.71875 -3.3125q0.734375 -1.421875 2.078125 -2.15625q1.34375 -0.734375 2.953125 -0.734375q1.828125 0 3.078125 0.9375q1.25 0.921875 1.734375 2.609375l-1.578125 0.375q-0.4375 -1.328125 -1.25 -1.9375q-0.796875 -0.609375 -2.015625 -0.609375q-1.40625 0 -2.34375 0.6875q-0.9375 0.671875 -1.328125 1.8125q-0.375 1.125 -0.375 2.328125q0 1.546875 0.453125 2.71875q0.453125 1.15625 1.40625 1.734375q0.953125 0.5625 2.0625 0.5625q1.359375 0 2.296875 -0.78125q0.9375 -0.78125 1.265625 -2.3125zm2.850647 -0.140625q0 -2.453125 1.359375 -3.640625q1.140625 -0.96875 2.78125 -0.96875q1.8125 0 2.96875 1.1875q1.15625 1.1875 1.15625 3.296875q0 1.703125 -0.515625 2.6875q-0.5 0.96875 -1.484375 1.515625q-0.96875 0.53125 -2.125 0.53125q-1.859375 0 -3.0 -1.1875q-1.140625 -1.1875 -1.140625 -3.421875zm1.546875 0q0 1.6875 0.734375 2.53125q0.734375 0.84375 1.859375 0.84375q1.109375 0 1.84375 -0.84375q0.75 -0.84375 0.75 -2.59375q0 -1.625 -0.75 -2.46875q-0.734375 -0.84375 -1.84375 -0.84375q-1.125 0 -1.859375 0.84375q-0.734375 0.828125 -0.734375 2.53125zm8.478882 4.40625l0 -8.828125l1.328125 0l0 1.25q0.421875 -0.65625 1.109375 -1.046875q0.6875 -0.390625 1.578125 -0.390625q0.96875 0 1.59375 0.40625q0.640625 0.40625 0.890625 1.125q1.046875 -1.53125 2.734375 -1.53125q1.3125 0 2.015625 0.734375q0.703125 0.71875 0.703125 2.21875l0 6.0625l-1.484375 0l0 -5.5625q0 -0.890625 -0.15625 -1.28125q-0.140625 -0.40625 -0.53125 -0.640625q-0.375 -0.25 -0.890625 -0.25q-0.921875 0 -1.546875 0.625q-0.609375 0.625 -0.609375 1.984375l0 5.125l-1.5 0l0 -5.734375q0 -1.0 -0.359375 -1.5q-0.359375 -0.5 -1.203125 -0.5q-0.625 0 -1.171875 0.34375q-0.53125 0.328125 -0.78125 0.96875q-0.234375 0.640625 -0.234375 1.84375l0 4.578125l-1.484375 0zm14.174194 3.375l0 -12.203125l1.359375 0l0 1.15625q0.484375 -0.671875 1.078125 -1.0q0.609375 -0.34375 1.484375 -0.34375q1.125 0 1.984375 0.578125q0.875 0.578125 1.3125 1.640625q0.4375 1.0625 0.4375 2.3125q0 1.359375 -0.484375 2.453125q-0.484375 1.078125 -1.421875 1.65625q-0.921875 0.578125 -1.9375 0.578125q-0.75 0 -1.34375 -0.3125q-0.59375 -0.328125 -0.984375 -0.796875l0 4.28125l-1.484375 0zm1.34375 -7.734375q0 1.703125 0.6875 2.515625q0.703125 0.8125 1.671875 0.8125q1.0 0 1.703125 -0.84375q0.71875 -0.84375 0.71875 -2.609375q0 -1.6875 -0.703125 -2.515625q-0.6875 -0.84375 -1.640625 -0.84375q-0.953125 0 -1.703125 0.890625q-0.734375 0.890625 -0.734375 2.59375zm7.557007 -0.046875q0 -2.453125 1.359375 -3.640625q1.140625 -0.96875 2.78125 -0.96875q1.8125 0 2.96875 1.1875q1.15625 1.1875 1.15625 3.296875q0 1.703125 -0.515625 2.6875q-0.5 0.96875 -1.484375 1.515625q-0.96875 0.53125 -2.125 0.53125q-1.859375 0 -3.0 -1.1875q-1.140625 -1.1875 -1.140625 -3.421875zm1.546875 0q0 1.6875 0.734375 2.53125q0.734375 0.84375 1.859375 0.84375q1.109375 0 1.84375 -0.84375q0.75 -0.84375 0.75 -2.59375q0 -1.625 -0.75 -2.46875q-0.734375 -0.84375 -1.84375 -0.84375q-1.125 0 -1.859375 0.84375q-0.734375 0.828125 -0.734375 2.53125zm8.478943 4.40625l0 -8.828125l1.34375 0l0 1.265625q0.96875 -1.453125 2.8125 -1.453125q0.796875 0 1.453125 0.28125q0.671875 0.28125 1.0 0.75q0.34375 0.46875 0.46875 1.109375q0.09375 0.40625 0.09375 1.453125l0 5.421875l-1.5 0l0 -5.375q0 -0.90625 -0.171875 -1.359375q-0.171875 -0.453125 -0.625 -0.71875q-0.4375 -0.28125 -1.046875 -0.28125q-0.953125 0 -1.65625 0.609375q-0.6875 0.609375 -0.6875 2.3125l0 4.8125l-1.484375 0zm15.494507 -2.84375l1.546875 0.1875q-0.359375 1.359375 -1.359375 2.109375q-0.984375 0.75 -2.515625 0.75q-1.9375 0 -3.078125 -1.1875q-1.125 -1.203125 -1.125 -3.359375q0 -2.21875 1.140625 -3.4375q1.15625 -1.234375 2.984375 -1.234375q1.765625 0 2.875 1.203125q1.125 1.203125 1.125 3.390625q0 0.125 0 0.390625l-6.578125 0q0.078125 1.453125 0.8125 2.234375q0.75 0.765625 1.84375 0.765625q0.828125 0 1.40625 -0.421875q0.59375 -0.4375 0.921875 -1.390625zm-4.90625 -2.421875l4.921875 0q-0.09375 -1.109375 -0.5625 -1.65625q-0.703125 -0.875 -1.84375 -0.875q-1.03125 0 -1.734375 0.6875q-0.703125 0.6875 -0.78125 1.84375zm8.338318 5.265625l0 -8.828125l1.34375 0l0 1.265625q0.96875 -1.453125 2.8125 -1.453125q0.796875 0 1.453125 0.28125q0.671875 0.28125 1.0 0.75q0.34375 0.46875 0.46875 1.109375q0.09375 0.40625 0.09375 1.453125l0 5.421875l-1.5 0l0 -5.375q0 -0.90625 -0.171875 -1.359375q-0.171875 -0.453125 -0.625 -0.71875q-0.4375 -0.28125 -1.046875 -0.28125q-0.953125 0 -1.65625 0.609375q-0.6875 0.609375 -0.6875 2.3125l0 4.8125l-1.484375 0zm12.728882 -1.34375l0.21875 1.328125q-0.640625 0.125 -1.140625 0.125q-0.8125 0 -1.265625 -0.25q-0.4375 -0.265625 -0.625 -0.671875q-0.1875 -0.421875 -0.1875 -1.765625l0 -5.078125l-1.09375 0l0 -1.171875l1.09375 0l0 -2.1875l1.5 -0.890625l0 3.078125l1.5 0l0 1.171875l-1.5 0l0 5.15625q0 0.640625 0.078125 0.828125q0.078125 0.171875 0.25 0.28125q0.171875 0.109375 0.515625 0.109375q0.25 0 0.65625 -0.0625zm9.163025 1.34375l0 -10.75l-4.0 0l0 -1.4375l9.640625 0l0 1.4375l-4.015625 0l0 10.75l-1.625 0zm11.256592 -2.84375l1.546875 0.1875q-0.359375 1.359375 -1.359375 2.109375q-0.984375 0.75 -2.515625 0.75q-1.9375 0 -3.078125 -1.1875q-1.125 -1.203125 -1.125 -3.359375q0 -2.21875 1.140625 -3.4375q1.15625 -1.234375 2.984375 -1.234375q1.765625 0 2.875 1.203125q1.125 1.203125 1.125 3.390625q0 0.125 0 0.390625l-6.578125 0q0.078125 1.453125 0.8125 2.234375q0.75 0.765625 1.84375 0.765625q0.828125 0 1.40625 -0.421875q0.59375 -0.4375 0.921875 -1.390625zm-4.90625 -2.421875l4.921875 0q-0.09375 -1.109375 -0.5625 -1.65625q-0.703125 -0.875 -1.84375 -0.875q-1.03125 0 -1.734375 0.6875q-0.703125 0.6875 -0.78125 1.84375zm7.728882 2.625l1.484375 -0.21875q0.125 0.875 0.6875 1.359375q0.578125 0.46875 1.59375 0.46875q1.03125 0 1.53125 -0.421875q0.5 -0.421875 0.5 -0.984375q0 -0.5 -0.4375 -0.796875q-0.3125 -0.203125 -1.53125 -0.5q-1.640625 -0.421875 -2.28125 -0.71875q-0.640625 -0.3125 -0.96875 -0.84375q-0.328125 -0.53125 -0.328125 -1.1875q0 -0.59375 0.265625 -1.09375q0.28125 -0.5 0.75 -0.828125q0.34375 -0.265625 0.9375 -0.4375q0.609375 -0.171875 1.296875 -0.171875q1.046875 0 1.828125 0.296875q0.78125 0.296875 1.15625 0.8125q0.375 0.5 0.515625 1.359375l-1.453125 0.203125q-0.109375 -0.6875 -0.59375 -1.0625q-0.46875 -0.390625 -1.34375 -0.390625q-1.03125 0 -1.46875 0.34375q-0.4375 0.34375 -0.4375 0.796875q0 0.296875 0.1875 0.53125q0.171875 0.234375 0.5625 0.390625q0.234375 0.078125 1.328125 0.390625q1.578125 0.421875 2.203125 0.6875q0.640625 0.265625 0.984375 0.78125q0.359375 0.515625 0.359375 1.28125q0 0.75 -0.4375 1.421875q-0.421875 0.65625 -1.25 1.015625q-0.828125 0.359375 -1.859375 0.359375q-1.71875 0 -2.625 -0.71875q-0.90625 -0.71875 -1.15625 -2.125zm12.3828125 1.296875l0.21875 1.328125q-0.640625 0.125 -1.140625 0.125q-0.8125 0 -1.265625 -0.25q-0.4375 -0.265625 -0.625 -0.671875q-0.1875 -0.421875 -0.1875 -1.765625l0 -5.078125l-1.09375 0l0 -1.171875l1.09375 0l0 -2.1875l1.5 -0.890625l0 3.078125l1.5 0l0 1.171875l-1.5 0l0 5.15625q0 0.640625 0.078125 0.828125q0.078125 0.171875 0.25 0.28125q0.171875 0.109375 0.515625 0.109375q0.25 0 0.65625 -0.0625zm1.461853 -9.109375l0 -1.734375l1.5 0l0 1.734375l-1.5 0zm0 10.453125l0 -8.828125l1.5 0l0 8.828125l-1.5 0zm3.7803345 0l0 -8.828125l1.34375 0l0 1.265625q0.96875 -1.453125 2.8125 -1.453125q0.796875 0 1.453125 0.28125q0.671875 0.28125 1.0 0.75q0.34375 0.46875 0.46875 1.109375q0.09375 0.40625 0.09375 1.453125l0 5.421875l-1.5 0l0 -5.375q0 -0.90625 -0.171875 -1.359375q-0.171875 -0.453125 -0.625 -0.71875q-0.4375 -0.28125 -1.046875 -0.28125q-0.953125 0 -1.65625 0.609375q-0.6875 0.609375 -0.6875 2.3125l0 4.8125l-1.484375 0zm9.182068 0.734375l1.453125 0.21875q0.09375 0.671875 0.515625 0.96875q0.546875 0.421875 1.515625 0.421875q1.046875 0 1.609375 -0.421875q0.5625 -0.40625 0.765625 -1.15625q0.109375 -0.453125 0.09375 -1.921875q-0.96875 1.15625 -2.4375 1.15625q-1.8125 0 -2.8125 -1.3125q-1.0 -1.3125 -1.0 -3.15625q0 -1.25 0.453125 -2.3125q0.46875 -1.078125 1.328125 -1.65625q0.875 -0.578125 2.046875 -0.578125q1.5625 0 2.578125 1.25l0 -1.0625l1.375 0l0 7.625q0 2.0625 -0.421875 2.921875q-0.421875 0.859375 -1.328125 1.359375q-0.90625 0.5 -2.234375 0.5q-1.578125 0 -2.5625 -0.71875q-0.96875 -0.703125 -0.9375 -2.125zm1.234375 -5.296875q0 1.734375 0.6875 2.53125q0.703125 0.796875 1.734375 0.796875q1.03125 0 1.71875 -0.796875q0.703125 -0.796875 0.703125 -2.484375q0 -1.625 -0.71875 -2.4375q-0.71875 -0.828125 -1.71875 -0.828125q-1.0 0 -1.703125 0.8125q-0.703125 0.796875 -0.703125 2.40625z" fill-rule="nonzero"/><path fill="#000000" fill-opacity="0.0" d="m601.0754 157.98006l167.84253 0l0 25.921265l-167.84253 0z" fill-rule="evenodd"/><path fill="#000000" d="m610.6691 182.32565l0 -12.1875l1.609375 0l0 12.1875l-1.609375 0zm4.258728 0l0 -8.828125l1.34375 0l0 1.265625q0.96875 -1.453125 2.8125 -1.453125q0.796875 0 1.453125 0.28125q0.671875 0.28125 1.0 0.75q0.34375 0.46875 0.46875 1.109375q0.09375 0.40625 0.09375 1.453125l0 5.421875l-1.5 0l0 -5.375q0 -0.90625 -0.171875 -1.359375q-0.171875 -0.453125 -0.625 -0.71875q-0.4375 -0.28125 -1.046875 -0.28125q-0.953125 0 -1.65625 0.609375q-0.6875 0.609375 -0.6875 2.3125l0 4.8125l-1.484375 0zm12.728943 -1.34375l0.21875 1.328125q-0.640625 0.125 -1.140625 0.125q-0.8125 0 -1.265625 -0.25q-0.4375 -0.265625 -0.625 -0.671875q-0.1875 -0.421875 -0.1875 -1.765625l0 -5.078125l-1.09375 0l0 -1.171875l1.09375 0l0 -2.1875l1.5 -0.890625l0 3.078125l1.5 0l0 1.171875l-1.5 0l0 5.15625q0 0.640625 0.078125 0.828125q0.078125 0.171875 0.25 0.28125q0.171875 0.109375 0.515625 0.109375q0.25 0 0.65625 -0.0625zm7.493103 -1.5l1.546875 0.1875q-0.359375 1.359375 -1.359375 2.109375q-0.984375 0.75 -2.515625 0.75q-1.9375 0 -3.078125 -1.1875q-1.125 -1.203125 -1.125 -3.359375q0 -2.21875 1.140625 -3.4375q1.15625 -1.234375 2.984375 -1.234375q1.765625 0 2.875 1.203125q1.125 1.203125 1.125 3.390625q0 0.125 0 0.390625l-6.578125 0q0.078125 1.453125 0.8125 2.234375q0.75 0.765625 1.84375 0.765625q0.828125 0 1.40625 -0.421875q0.59375 -0.4375 0.921875 -1.390625zm-4.90625 -2.421875l4.921875 0q-0.09375 -1.109375 -0.5625 -1.65625q-0.703125 -0.875 -1.84375 -0.875q-1.03125 0 -1.734375 0.6875q-0.703125 0.6875 -0.78125 1.84375zm8.057068 6.0l1.453125 0.21875q0.09375 0.671875 0.515625 0.96875q0.546875 0.421875 1.515625 0.421875q1.046875 0 1.609375 -0.421875q0.5625 -0.40625 0.765625 -1.15625q0.109375 -0.453125 0.09375 -1.921875q-0.96875 1.15625 -2.4375 1.15625q-1.8125 0 -2.8125 -1.3125q-1.0 -1.3125 -1.0 -3.15625q0 -1.25 0.453125 -2.3125q0.46875 -1.078125 1.328125 -1.65625q0.875 -0.578125 2.046875 -0.578125q1.5625 0 2.578125 1.25l0 -1.0625l1.375 0l0 7.625q0 2.0625 -0.421875 2.921875q-0.421875 0.859375 -1.328125 1.359375q-0.90625 0.5 -2.234375 0.5q-1.578125 0 -2.5625 -0.71875q-0.96875 -0.703125 -0.9375 -2.125zm1.234375 -5.296875q0 1.734375 0.6875 2.53125q0.703125 0.796875 1.734375 0.796875q1.03125 0 1.71875 -0.796875q0.703125 -0.796875 0.703125 -2.484375q0 -1.625 -0.71875 -2.4375q-0.71875 -0.828125 -1.71875 -0.828125q-1.0 0 -1.703125 0.8125q-0.703125 0.796875 -0.703125 2.40625zm8.494507 4.5625l0 -8.828125l1.34375 0l0 1.34375q0.515625 -0.9375 0.953125 -1.234375q0.4375 -0.296875 0.953125 -0.296875q0.765625 0 1.546875 0.46875l-0.515625 1.390625q-0.5625 -0.328125 -1.109375 -0.328125q-0.484375 0 -0.875 0.296875q-0.390625 0.296875 -0.5625 0.828125q-0.25 0.796875 -0.25 1.734375l0 4.625l-1.484375 0zm11.431946 -1.09375q-0.828125 0.71875 -1.59375 1.015625q-0.765625 0.28125 -1.65625 0.28125q-1.453125 0 -2.234375 -0.703125q-0.78125 -0.71875 -0.78125 -1.828125q0 -0.640625 0.296875 -1.171875q0.296875 -0.546875 0.765625 -0.859375q0.484375 -0.328125 1.09375 -0.5q0.4375 -0.125 1.328125 -0.21875q1.8125 -0.21875 2.65625 -0.515625q0.015625 -0.3125 0.015625 -0.390625q0 -0.921875 -0.421875 -1.296875q-0.578125 -0.5 -1.703125 -0.5q-1.0625 0 -1.5625 0.375q-0.5 0.359375 -0.75 1.296875l-1.453125 -0.203125q0.203125 -0.9375 0.65625 -1.515625q0.453125 -0.578125 1.3125 -0.875q0.875 -0.3125 2.015625 -0.3125q1.125 0 1.828125 0.265625q0.703125 0.265625 1.03125 0.671875q0.34375 0.390625 0.46875 1.0q0.078125 0.390625 0.078125 1.390625l0 1.984375q0 2.09375 0.09375 2.65625q0.09375 0.546875 0.375 1.046875l-1.5625 0q-0.21875 -0.46875 -0.296875 -1.09375zm-0.125 -3.328125q-0.8125 0.328125 -2.4375 0.5625q-0.921875 0.125 -1.3125 0.296875q-0.375 0.171875 -0.59375 0.484375q-0.203125 0.3125 -0.203125 0.703125q0 0.609375 0.453125 1.015625q0.453125 0.390625 1.328125 0.390625q0.875 0 1.546875 -0.375q0.671875 -0.390625 0.984375 -1.046875q0.234375 -0.5 0.234375 -1.484375l0 -0.546875zm7.103943 3.078125l0.21875 1.328125q-0.640625 0.125 -1.140625 0.125q-0.8125 0 -1.265625 -0.25q-0.4375 -0.265625 -0.625 -0.671875q-0.1875 -0.421875 -0.1875 -1.765625l0 -5.078125l-1.09375 0l0 -1.171875l1.09375 0l0 -2.1875l1.5 -0.890625l0 3.078125l1.5 0l0 1.171875l-1.5 0l0 5.15625q0 0.640625 0.078125 0.828125q0.078125 0.171875 0.25 0.28125q0.171875 0.109375 0.515625 0.109375q0.25 0 0.65625 -0.0625zm1.461853 -9.109375l0 -1.734375l1.5 0l0 1.734375l-1.5 0zm0 10.453125l0 -8.828125l1.5 0l0 8.828125l-1.5 0zm3.2178345 -4.40625q0 -2.453125 1.359375 -3.640625q1.140625 -0.96875 2.78125 -0.96875q1.8125 0 2.96875 1.1875q1.15625 1.1875 1.15625 3.296875q0 1.703125 -0.515625 2.6875q-0.5 0.96875 -1.484375 1.515625q-0.96875 0.53125 -2.125 0.53125q-1.859375 0 -3.0 -1.1875q-1.140625 -1.1875 -1.140625 -3.421875zm1.546875 0q0 1.6875 0.734375 2.53125q0.734375 0.84375 1.859375 0.84375q1.109375 0 1.84375 -0.84375q0.75 -0.84375 0.75 -2.59375q0 -1.625 -0.75 -2.46875q-0.734375 -0.84375 -1.84375 -0.84375q-1.125 0 -1.859375 0.84375q-0.734375 0.828125 -0.734375 2.53125zm8.478943 4.40625l0 -8.828125l1.34375 0l0 1.265625q0.96875 -1.453125 2.8125 -1.453125q0.796875 0 1.453125 0.28125q0.671875 0.28125 1.0 0.75q0.34375 0.46875 0.46875 1.109375q0.09375 0.40625 0.09375 1.453125l0 5.421875l-1.5 0l0 -5.375q0 -0.90625 -0.171875 -1.359375q-0.171875 -0.453125 -0.625 -0.71875q-0.4375 -0.28125 -1.046875 -0.28125q-0.953125 0 -1.65625 0.609375q-0.6875 0.609375 -0.6875 2.3125l0 4.8125l-1.484375 0z" fill-rule="nonzero"/><path fill="#000000" fill-opacity="0.0" d="m662.9447 109.33338l167.84253 0l0 25.921257l-167.84253 0z" fill-rule="evenodd"/><path fill="#000000" d="m671.7103 129.77274l1.515625 -0.140625q0.109375 0.921875 0.5 1.515625q0.40625 0.578125 1.234375 0.9375q0.828125 0.359375 1.859375 0.359375q0.921875 0 1.625 -0.265625q0.71875 -0.28125 1.0625 -0.75q0.34375 -0.484375 0.34375 -1.0625q0 -0.5625 -0.34375 -0.984375q-0.328125 -0.4375 -1.078125 -0.734375q-0.5 -0.1875 -2.1875 -0.59375q-1.671875 -0.40625 -2.34375 -0.75q-0.875 -0.46875 -1.296875 -1.140625q-0.421875 -0.671875 -0.421875 -1.515625q0 -0.921875 0.515625 -1.71875q0.53125 -0.8125 1.53125 -1.21875q1.0 -0.421875 2.234375 -0.421875q1.359375 0 2.390625 0.4375q1.03125 0.4375 1.578125 1.28125q0.5625 0.84375 0.609375 1.921875l-1.546875 0.125q-0.125 -1.15625 -0.84375 -1.75q-0.71875 -0.59375 -2.125 -0.59375q-1.453125 0 -2.125 0.546875q-0.671875 0.53125 -0.671875 1.28125q0 0.65625 0.46875 1.078125q0.46875 0.421875 2.4375 0.875q1.96875 0.4375 2.703125 0.765625q1.0625 0.5 1.5625 1.25q0.5 0.75 0.5 1.734375q0 0.96875 -0.5625 1.828125q-0.546875 0.859375 -1.59375 1.34375q-1.03125 0.46875 -2.34375 0.46875q-1.65625 0 -2.78125 -0.46875q-1.109375 -0.484375 -1.75 -1.453125q-0.625 -0.96875 -0.65625 -2.1875zm11.646179 7.296875l-0.171875 -1.390625q0.484375 0.125 0.859375 0.125q0.5 0 0.796875 -0.171875q0.296875 -0.15625 0.484375 -0.453125q0.140625 -0.234375 0.453125 -1.125q0.046875 -0.125 0.140625 -0.359375l-3.34375 -8.84375l1.609375 0l1.828125 5.109375q0.359375 0.984375 0.640625 2.046875q0.265625 -1.03125 0.625 -2.015625l1.875 -5.140625l1.5 0l-3.359375 8.984375q-0.53125 1.453125 -0.84375 2.0q-0.390625 0.734375 -0.90625 1.078125q-0.515625 0.34375 -1.234375 0.34375q-0.421875 0 -0.953125 -0.1875zm7.9609375 -6.03125l1.484375 -0.21875q0.125 0.875 0.6875 1.359375q0.578125 0.46875 1.59375 0.46875q1.03125 0 1.53125 -0.421875q0.5 -0.421875 0.5 -0.984375q0 -0.5 -0.4375 -0.796875q-0.3125 -0.203125 -1.53125 -0.5q-1.640625 -0.421875 -2.28125 -0.71875q-0.640625 -0.3125 -0.96875 -0.84375q-0.328125 -0.53125 -0.328125 -1.1875q0 -0.59375 0.265625 -1.09375q0.28125 -0.5 0.75 -0.828125q0.34375 -0.265625 0.9375 -0.4375q0.609375 -0.171875 1.296875 -0.171875q1.046875 0 1.828125 0.296875q0.78125 0.296875 1.15625 0.8125q0.375 0.5 0.515625 1.359375l-1.453125 0.203125q-0.109375 -0.6875 -0.59375 -1.0625q-0.46875 -0.390625 -1.34375 -0.390625q-1.03125 0 -1.46875 0.34375q-0.4375 0.34375 -0.4375 0.796875q0 0.296875 0.1875 0.53125q0.171875 0.234375 0.5625 0.390625q0.234375 0.078125 1.328125 0.390625q1.578125 0.421875 2.203125 0.6875q0.640625 0.265625 0.984375 0.78125q0.359375 0.515625 0.359375 1.28125q0 0.75 -0.4375 1.421875q-0.421875 0.65625 -1.25 1.015625q-0.828125 0.359375 -1.859375 0.359375q-1.71875 0 -2.625 -0.71875q-0.90625 -0.71875 -1.15625 -2.125zm12.3828125 1.296875l0.21875 1.328125q-0.640625 0.125 -1.140625 0.125q-0.8125 0 -1.265625 -0.25q-0.4375 -0.265625 -0.625 -0.671875q-0.1875 -0.421875 -0.1875 -1.765625l0 -5.078125l-1.09375 0l0 -1.171875l1.09375 0l0 -2.1875l1.5 -0.890625l0 3.078125l1.5 0l0 1.171875l-1.5 0l0 5.15625q0 0.640625 0.078125 0.828125q0.078125 0.171875 0.25 0.28125q0.171875 0.109375 0.515625 0.109375q0.25 0 0.65625 -0.0625zm7.493103 -1.5l1.546875 0.1875q-0.359375 1.359375 -1.359375 2.109375q-0.984375 0.75 -2.515625 0.75q-1.9375 0 -3.078125 -1.1875q-1.125 -1.203125 -1.125 -3.359375q0 -2.21875 1.140625 -3.4375q1.15625 -1.234375 2.984375 -1.234375q1.765625 0 2.875 1.203125q1.125 1.203125 1.125 3.390625q0 0.125 0 0.390625l-6.578125 0q0.078125 1.453125 0.8125 2.234375q0.75 0.765625 1.84375 0.765625q0.828125 0 1.40625 -0.421875q0.59375 -0.4375 0.921875 -1.390625zm-4.90625 -2.421875l4.921875 0q-0.09375 -1.109375 -0.5625 -1.65625q-0.703125 -0.875 -1.84375 -0.875q-1.03125 0 -1.734375 0.6875q-0.703125 0.6875 -0.78125 1.84375zm8.338257 5.265625l0 -8.828125l1.328125 0l0 1.25q0.421875 -0.65625 1.109375 -1.046875q0.6875 -0.390625 1.578125 -0.390625q0.96875 0 1.59375 0.40625q0.640625 0.40625 0.890625 1.125q1.046875 -1.53125 2.734375 -1.53125q1.3125 0 2.015625 0.734375q0.703125 0.71875 0.703125 2.21875l0 6.0625l-1.484375 0l0 -5.5625q0 -0.890625 -0.15625 -1.28125q-0.140625 -0.40625 -0.53125 -0.640625q-0.375 -0.25 -0.890625 -0.25q-0.921875 0 -1.546875 0.625q-0.609375 0.625 -0.609375 1.984375l0 5.125l-1.5 0l0 -5.734375q0 -1.0 -0.359375 -1.5q-0.359375 -0.5 -1.203125 -0.5q-0.625 0 -1.171875 0.34375q-0.53125 0.328125 -0.78125 0.96875q-0.234375 0.640625 -0.234375 1.84375l0 4.578125l-1.484375 0zm21.875305 0l0 -10.75l-4.0 0l0 -1.4375l9.640625 0l0 1.4375l-4.015625 0l0 10.75l-1.625 0zm11.256592 -2.84375l1.546875 0.1875q-0.359375 1.359375 -1.359375 2.109375q-0.984375 0.75 -2.515625 0.75q-1.9375 0 -3.078125 -1.1875q-1.125 -1.203125 -1.125 -3.359375q0 -2.21875 1.140625 -3.4375q1.15625 -1.234375 2.984375 -1.234375q1.765625 0 2.875 1.203125q1.125 1.203125 1.125 3.390625q0 0.125 0 0.390625l-6.578125 0q0.078125 1.453125 0.8125 2.234375q0.75 0.765625 1.84375 0.765625q0.828125 0 1.40625 -0.421875q0.59375 -0.4375 0.921875 -1.390625zm-4.90625 -2.421875l4.921875 0q-0.09375 -1.109375 -0.5625 -1.65625q-0.703125 -0.875 -1.84375 -0.875q-1.03125 0 -1.734375 0.6875q-0.703125 0.6875 -0.78125 1.84375zm7.728882 2.625l1.484375 -0.21875q0.125 0.875 0.6875 1.359375q0.578125 0.46875 1.59375 0.46875q1.03125 0 1.53125 -0.421875q0.5 -0.421875 0.5 -0.984375q0 -0.5 -0.4375 -0.796875q-0.3125 -0.203125 -1.53125 -0.5q-1.640625 -0.421875 -2.28125 -0.71875q-0.640625 -0.3125 -0.96875 -0.84375q-0.328125 -0.53125 -0.328125 -1.1875q0 -0.59375 0.265625 -1.09375q0.28125 -0.5 0.75 -0.828125q0.34375 -0.265625 0.9375 -0.4375q0.609375 -0.171875 1.296875 -0.171875q1.046875 0 1.828125 0.296875q0.78125 0.296875 1.15625 0.8125q0.375 0.5 0.515625 1.359375l-1.453125 0.203125q-0.109375 -0.6875 -0.59375 -1.0625q-0.46875 -0.390625 -1.34375 -0.390625q-1.03125 0 -1.46875 0.34375q-0.4375 0.34375 -0.4375 0.796875q0 0.296875 0.1875 0.53125q0.171875 0.234375 0.5625 0.390625q0.234375 0.078125 1.328125 0.390625q1.578125 0.421875 2.203125 0.6875q0.640625 0.265625 0.984375 0.78125q0.359375 0.515625 0.359375 1.28125q0 0.75 -0.4375 1.421875q-0.421875 0.65625 -1.25 1.015625q-0.828125 0.359375 -1.859375 0.359375q-1.71875 0 -2.625 -0.71875q-0.90625 -0.71875 -1.15625 -2.125zm12.3828125 1.296875l0.21875 1.328125q-0.640625 0.125 -1.140625 0.125q-0.8125 0 -1.265625 -0.25q-0.4375 -0.265625 -0.625 -0.671875q-0.1875 -0.421875 -0.1875 -1.765625l0 -5.078125l-1.09375 0l0 -1.171875l1.09375 0l0 -2.1875l1.5 -0.890625l0 3.078125l1.5 0l0 1.171875l-1.5 0l0 5.15625q0 0.640625 0.078125 0.828125q0.078125 0.171875 0.25 0.28125q0.171875 0.109375 0.515625 0.109375q0.25 0 0.65625 -0.0625zm1.4619141 -9.109375l0 -1.734375l1.5 0l0 1.734375l-1.5 0zm0 10.453125l0 -8.828125l1.5 0l0 8.828125l-1.5 0zm3.7803345 0l0 -8.828125l1.34375 0l0 1.265625q0.96875 -1.453125 2.8125 -1.453125q0.796875 0 1.453125 0.28125q0.671875 0.28125 1.0 0.75q0.34375 0.46875 0.46875 1.109375q0.09375 0.40625 0.09375 1.453125l0 5.421875l-1.5 0l0 -5.375q0 -0.90625 -0.171875 -1.359375q-0.171875 -0.453125 -0.625 -0.71875q-0.4375 -0.28125 -1.046875 -0.28125q-0.953125 0 -1.65625 0.609375q-0.6875 0.609375 -0.6875 2.3125l0 4.8125l-1.484375 0zm9.182007 0.734375l1.453125 0.21875q0.09375 0.671875 0.515625 0.96875q0.546875 0.421875 1.515625 0.421875q1.046875 0 1.609375 -0.421875q0.5625 -0.40625 0.765625 -1.15625q0.109375 -0.453125 0.09375 -1.921875q-0.96875 1.15625 -2.4375 1.15625q-1.8125 0 -2.8125 -1.3125q-1.0 -1.3125 -1.0 -3.15625q0 -1.25 0.453125 -2.3125q0.46875 -1.078125 1.328125 -1.65625q0.875 -0.578125 2.046875 -0.578125q1.5625 0 2.578125 1.25l0 -1.0625l1.375 0l0 7.625q0 2.0625 -0.421875 2.921875q-0.421875 0.859375 -1.328125 1.359375q-0.90625 0.5 -2.234375 0.5q-1.578125 0 -2.5625 -0.71875q-0.96875 -0.703125 -0.9375 -2.125zm1.234375 -5.296875q0 1.734375 0.6875 2.53125q0.703125 0.796875 1.734375 0.796875q1.03125 0 1.71875 -0.796875q0.703125 -0.796875 0.703125 -2.484375q0 -1.625 -0.71875 -2.4375q-0.71875 -0.828125 -1.71875 -0.828125q-1.0 0 -1.703125 0.8125q-0.703125 0.796875 -0.703125 2.40625z" fill-rule="nonzero"/><path fill="#000000" fill-opacity="0.0" d="m396.54507 240.31897c8.763336 0 -6.414276 -21.251968 17.526672 -42.503937c23.940948 -21.251968 87.00046 -42.503937 174.00089 -42.503937" fill-rule="evenodd"/><path stroke="#000000" stroke-width="1.057742782152231" stroke-linejoin="round" stroke-linecap="butt" d="m399.67102 234.79576l1.5258789E-4 -0.054397583c-0.0025939941 -0.70043945 -0.021728516 -1.4579468 -0.042022705 -2.2673492c-0.04055786 -1.6188049 -0.085754395 -3.4451447 -0.012359619 -5.4375153c0.29364014 -7.9694824 2.484497 -18.595474 14.454987 -29.22145c23.940948 -21.251968 87.0004 -42.503952 174.00085 -42.503952" fill-rule="evenodd"/><path fill="#000000" stroke="#000000" stroke-width="1.057742782152231" stroke-linecap="butt" d="m398.15054 233.93523l-0.84384155 5.038025l3.8847961 -3.3169403z" fill-rule="evenodd"/><path fill="#000000" fill-opacity="0.0" d="m449.3409 128.81761l147.62204 0l0 39.118103l-147.62204 0z" fill-rule="evenodd"/><path fill="#000000" d="m460.23154 149.65242l0 -8.078125l3.578125 0q1.078125 0 1.640625 0.21875q0.5625 0.21875 0.890625 0.78125q0.34375 0.546875 0.34375 1.203125q0 0.859375 -0.5625 1.453125q-0.546875 0.59375 -1.71875 0.75q0.421875 0.203125 0.65625 0.40625q0.46875 0.421875 0.875 1.0625l1.40625 2.203125l-1.34375 0l-1.0625 -1.6875q-0.46875 -0.71875 -0.78125 -1.09375q-0.296875 -0.390625 -0.546875 -0.546875q-0.234375 -0.15625 -0.46875 -0.21875q-0.1875 -0.046875 -0.609375 -0.046875l-1.234375 0l0 3.59375l-1.0625 0zm1.0625 -4.515625l2.296875 0q0.734375 0 1.140625 -0.140625q0.421875 -0.15625 0.625 -0.484375q0.21875 -0.34375 0.21875 -0.734375q0 -0.5625 -0.421875 -0.9375q-0.40625 -0.375 -1.296875 -0.375l-2.5625 0l0 2.671875zm10.943848 2.625l1.015625 0.140625q-0.234375 0.890625 -0.890625 1.390625q-0.65625 0.484375 -1.671875 0.484375q-1.28125 0 -2.046875 -0.78125q-0.75 -0.796875 -0.75 -2.21875q0 -1.484375 0.765625 -2.296875q0.765625 -0.8125 1.96875 -0.8125q1.171875 0 1.921875 0.796875q0.75 0.796875 0.75 2.25q0 0.09375 -0.015625 0.265625l-4.359375 0q0.0625 0.96875 0.546875 1.484375q0.484375 0.5 1.21875 0.5q0.546875 0 0.921875 -0.28125q0.390625 -0.28125 0.625 -0.921875zm-3.25 -1.59375l3.265625 0q-0.078125 -0.734375 -0.375 -1.109375q-0.484375 -0.578125 -1.234375 -0.578125q-0.6875 0 -1.15625 0.46875q-0.453125 0.453125 -0.5 1.21875zm5.5240784 5.71875l0 -8.078125l0.890625 0l0 0.75q0.328125 -0.4375 0.71875 -0.65625q0.40625 -0.234375 0.984375 -0.234375q0.75 0 1.3125 0.390625q0.578125 0.375 0.875 1.078125q0.296875 0.703125 0.296875 1.546875q0 0.890625 -0.328125 1.609375q-0.328125 0.71875 -0.9375 1.109375q-0.609375 0.375 -1.296875 0.375q-0.484375 0 -0.890625 -0.203125q-0.390625 -0.203125 -0.640625 -0.53125l0 2.84375l-0.984375 0zm0.890625 -5.125q0 1.125 0.453125 1.671875q0.46875 0.53125 1.109375 0.53125q0.65625 0 1.125 -0.546875q0.484375 -0.5625 0.484375 -1.734375q0 -1.125 -0.46875 -1.671875q-0.453125 -0.5625 -1.09375 -0.5625q-0.640625 0 -1.125 0.59375q-0.484375 0.59375 -0.484375 1.71875zm9.383484 1.0l1.015625 0.140625q-0.234375 0.890625 -0.890625 1.390625q-0.65625 0.484375 -1.671875 0.484375q-1.28125 0 -2.046875 -0.78125q-0.75 -0.796875 -0.75 -2.21875q0 -1.484375 0.765625 -2.296875q0.765625 -0.8125 1.96875 -0.8125q1.171875 0 1.921875 0.796875q0.75 0.796875 0.75 2.25q0 0.09375 -0.015625 0.265625l-4.359375 0q0.0625 0.96875 0.546875 1.484375q0.484375 0.5 1.21875 0.5q0.546875 0 0.921875 -0.28125q0.390625 -0.28125 0.625 -0.921875zm-3.25 -1.59375l3.265625 0q-0.078125 -0.734375 -0.375 -1.109375q-0.484375 -0.578125 -1.234375 -0.578125q-0.6875 0 -1.15625 0.46875q-0.453125 0.453125 -0.5 1.21875zm9.336578 2.765625q-0.546875 0.46875 -1.0625 0.65625q-0.515625 0.1875 -1.09375 0.1875q-0.96875 0 -1.484375 -0.46875q-0.515625 -0.46875 -0.515625 -1.203125q0 -0.421875 0.1875 -0.78125q0.203125 -0.359375 0.515625 -0.5625q0.328125 -0.21875 0.71875 -0.328125q0.296875 -0.078125 0.875 -0.15625q1.203125 -0.140625 1.78125 -0.34375q0 -0.203125 0 -0.25q0 -0.609375 -0.28125 -0.859375q-0.375 -0.328125 -1.125 -0.328125q-0.703125 0 -1.046875 0.25q-0.328125 0.234375 -0.484375 0.859375l-0.96875 -0.140625q0.125 -0.609375 0.421875 -0.984375q0.3125 -0.390625 0.890625 -0.59375q0.578125 -0.21875 1.328125 -0.21875q0.75 0 1.21875 0.1875q0.46875 0.171875 0.6875 0.4375q0.21875 0.265625 0.3125 0.671875q0.046875 0.25 0.046875 0.921875l0 1.3125q0 1.390625 0.0625 1.75q0.0625 0.359375 0.25 0.703125l-1.03125 0q-0.15625 -0.3125 -0.203125 -0.71875zm-0.078125 -2.21875q-0.546875 0.21875 -1.625 0.375q-0.609375 0.09375 -0.875 0.203125q-0.25 0.109375 -0.390625 0.328125q-0.125 0.203125 -0.125 0.46875q0 0.390625 0.296875 0.65625q0.296875 0.265625 0.875 0.265625q0.578125 0 1.015625 -0.25q0.453125 -0.25 0.65625 -0.6875q0.171875 -0.34375 0.171875 -1.0l0 -0.359375zm4.695984 2.046875l0.140625 0.875q-0.40625 0.09375 -0.75 0.09375q-0.53125 0 -0.828125 -0.171875q-0.296875 -0.171875 -0.421875 -0.453125q-0.125 -0.28125 -0.125 -1.171875l0 -3.359375l-0.71875 0l0 -0.765625l0.71875 0l0 -1.453125l0.984375 -0.59375l0 2.046875l1.0 0l0 0.765625l-1.0 0l0 3.421875q0 0.421875 0.046875 0.546875q0.0625 0.125 0.171875 0.203125q0.125 0.0625 0.34375 0.0625q0.171875 0 0.4375 -0.046875zm4.112335 3.125l0 -8.078125l0.890625 0l0 0.75q0.328125 -0.4375 0.71875 -0.65625q0.40625 -0.234375 0.984375 -0.234375q0.75 0 1.3125 0.390625q0.578125 0.375 0.875 1.078125q0.296875 0.703125 0.296875 1.546875q0 0.890625 -0.328125 1.609375q-0.328125 0.71875 -0.9375 1.109375q-0.609375 0.375 -1.296875 0.375q-0.484375 0 -0.890625 -0.203125q-0.390625 -0.203125 -0.640625 -0.53125l0 2.84375l-0.984375 0zm0.890625 -5.125q0 1.125 0.453125 1.671875q0.46875 0.53125 1.109375 0.53125q0.65625 0 1.125 -0.546875q0.484375 -0.5625 0.484375 -1.734375q0 -1.125 -0.46875 -1.671875q-0.453125 -0.5625 -1.09375 -0.5625q-0.640625 0 -1.125 0.59375q-0.484375 0.59375 -0.484375 1.71875zm9.383453 1.0l1.015625 0.140625q-0.234375 0.890625 -0.890625 1.390625q-0.65625 0.484375 -1.671875 0.484375q-1.28125 0 -2.046875 -0.78125q-0.75 -0.796875 -0.75 -2.21875q0 -1.484375 0.765625 -2.296875q0.765625 -0.8125 1.96875 -0.8125q1.171875 0 1.921875 0.796875q0.75 0.796875 0.75 2.25q0 0.09375 -0.015625 0.265625l-4.359375 0q0.0625 0.96875 0.546875 1.484375q0.484375 0.5 1.21875 0.5q0.546875 0 0.921875 -0.28125q0.390625 -0.28125 0.625 -0.921875zm-3.25 -1.59375l3.265625 0q-0.078125 -0.734375 -0.375 -1.109375q-0.484375 -0.578125 -1.234375 -0.578125q-0.6875 0 -1.15625 0.46875q-0.453125 0.453125 -0.5 1.21875zm5.5084534 3.484375l0 -5.84375l0.890625 0l0 0.875q0.34375 -0.609375 0.625 -0.8125q0.296875 -0.203125 0.640625 -0.203125q0.5 0 1.015625 0.328125l-0.34375 0.90625q-0.359375 -0.203125 -0.71875 -0.203125q-0.328125 0 -0.59375 0.203125q-0.25 0.1875 -0.359375 0.53125q-0.171875 0.53125 -0.171875 1.15625l0 3.0625l-0.984375 0zm10.719177 -2.140625l0.96875 0.125q-0.15625 1.0 -0.8125 1.578125q-0.65625 0.5625 -1.625 0.5625q-1.1875 0 -1.921875 -0.78125q-0.734375 -0.78125 -0.734375 -2.25q0 -0.9375 0.3125 -1.640625q0.3125 -0.71875 0.953125 -1.078125q0.65625 -0.359375 1.40625 -0.359375q0.953125 0 1.546875 0.484375q0.609375 0.484375 0.78125 1.375l-0.953125 0.140625q-0.140625 -0.59375 -0.5 -0.890625q-0.34375 -0.296875 -0.84375 -0.296875q-0.75 0 -1.21875 0.546875q-0.46875 0.53125 -0.46875 1.6875q0 1.1875 0.453125 1.71875q0.453125 0.53125 1.1875 0.53125q0.578125 0 0.96875 -0.359375q0.390625 -0.359375 0.5 -1.09375zm1.453125 -0.78125q0 -1.625 0.90625 -2.40625q0.75 -0.65625 1.84375 -0.65625q1.203125 0 1.96875 0.796875q0.765625 0.78125 0.765625 2.1875q0 1.125 -0.34375 1.78125q-0.34375 0.640625 -0.984375 1.0q-0.640625 0.34375 -1.40625 0.34375q-1.234375 0 -2.0 -0.78125q-0.75 -0.78125 -0.75 -2.265625zm1.015625 0q0 1.125 0.484375 1.6875q0.5 0.546875 1.25 0.546875q0.734375 0 1.21875 -0.5625q0.5 -0.5625 0.5 -1.703125q0 -1.09375 -0.5 -1.640625q-0.5 -0.5625 -1.21875 -0.5625q-0.75 0 -1.25 0.5625q-0.484375 0.546875 -0.484375 1.671875zm5.633484 2.921875l0 -5.84375l0.875 0l0 0.8125q0.28125 -0.421875 0.734375 -0.6875q0.46875 -0.265625 1.046875 -0.265625q0.640625 0 1.0625 0.28125q0.421875 0.265625 0.59375 0.75q0.6875 -1.03125 1.796875 -1.03125q0.875 0 1.34375 0.484375q0.46875 0.484375 0.46875 1.484375l0 4.015625l-0.984375 0l0 -3.6875q0 -0.59375 -0.109375 -0.84375q-0.09375 -0.265625 -0.34375 -0.421875q-0.25 -0.171875 -0.59375 -0.171875q-0.609375 0 -1.015625 0.421875q-0.40625 0.40625 -0.40625 1.296875l0 3.40625l-1.0 0l0 -3.796875q0 -0.671875 -0.25 -1.0q-0.234375 -0.328125 -0.78125 -0.328125q-0.421875 0 -0.78125 0.21875q-0.359375 0.21875 -0.515625 0.65625q-0.15625 0.421875 -0.15625 1.21875l0 3.03125l-0.984375 0zm9.397339 2.234375l0 -8.078125l0.890625 0l0 0.75q0.328125 -0.4375 0.71875 -0.65625q0.40625 -0.234375 0.984375 -0.234375q0.75 0 1.3125 0.390625q0.578125 0.375 0.875 1.078125q0.296875 0.703125 0.296875 1.546875q0 0.890625 -0.328125 1.609375q-0.328125 0.71875 -0.9375 1.109375q-0.609375 0.375 -1.296875 0.375q-0.484375 0 -0.890625 -0.203125q-0.390625 -0.203125 -0.640625 -0.53125l0 2.84375l-0.984375 0zm0.890625 -5.125q0 1.125 0.453125 1.671875q0.46875 0.53125 1.109375 0.53125q0.65625 0 1.125 -0.546875q0.484375 -0.5625 0.484375 -1.734375q0 -1.125 -0.46875 -1.671875q-0.453125 -0.5625 -1.09375 -0.5625q-0.640625 0 -1.125 0.59375q-0.484375 0.59375 -0.484375 1.71875zm5.008484 -0.03125q0 -1.625 0.90625 -2.40625q0.75 -0.65625 1.84375 -0.65625q1.203125 0 1.96875 0.796875q0.765625 0.78125 0.765625 2.1875q0 1.125 -0.34375 1.78125q-0.34375 0.640625 -0.984375 1.0q-0.640625 0.34375 -1.40625 0.34375q-1.234375 0 -2.0 -0.78125q-0.75 -0.78125 -0.75 -2.265625zm1.015625 0q0 1.125 0.484375 1.6875q0.5 0.546875 1.25 0.546875q0.734375 0 1.21875 -0.5625q0.5 -0.5625 0.5 -1.703125q0 -1.09375 -0.5 -1.640625q-0.5 -0.5625 -1.21875 -0.5625q-0.75 0 -1.25 0.5625q-0.484375 0.546875 -0.484375 1.671875zm5.633484 2.921875l0 -5.84375l0.890625 0l0 0.828125q0.640625 -0.96875 1.859375 -0.96875q0.53125 0 0.96875 0.1875q0.4375 0.1875 0.65625 0.5q0.234375 0.3125 0.3125 0.734375q0.0625 0.28125 0.0625 0.96875l0 3.59375l-1.0 0l0 -3.5625q0 -0.609375 -0.109375 -0.90625q-0.109375 -0.296875 -0.40625 -0.46875q-0.296875 -0.1875 -0.703125 -0.1875q-0.625 0 -1.09375 0.40625q-0.453125 0.40625 -0.453125 1.53125l0 3.1875l-0.984375 0zm10.274109 -1.890625l1.015625 0.140625q-0.234375 0.890625 -0.890625 1.390625q-0.65625 0.484375 -1.671875 0.484375q-1.28125 0 -2.046875 -0.78125q-0.75 -0.796875 -0.75 -2.21875q0 -1.484375 0.765625 -2.296875q0.765625 -0.8125 1.96875 -0.8125q1.171875 0 1.921875 0.796875q0.75 0.796875 0.75 2.25q0 0.09375 -0.015625 0.265625l-4.359375 0q0.0625 0.96875 0.546875 1.484375q0.484375 0.5 1.21875 0.5q0.546875 0 0.921875 -0.28125q0.390625 -0.28125 0.625 -0.921875zm-3.25 -1.59375l3.265625 0q-0.078125 -0.734375 -0.375 -1.109375q-0.484375 -0.578125 -1.234375 -0.578125q-0.6875 0 -1.15625 0.46875q-0.453125 0.453125 -0.5 1.21875zm5.524048 3.484375l0 -5.84375l0.890625 0l0 0.828125q0.640625 -0.96875 1.859375 -0.96875q0.53125 0 0.96875 0.1875q0.4375 0.1875 0.65625 0.5q0.234375 0.3125 0.3125 0.734375q0.0625 0.28125 0.0625 0.96875l0 3.59375l-1.0 0l0 -3.5625q0 -0.609375 -0.109375 -0.90625q-0.109375 -0.296875 -0.40625 -0.46875q-0.296875 -0.1875 -0.703125 -0.1875q-0.625 0 -1.09375 0.40625q-0.453125 0.40625 -0.453125 1.53125l0 3.1875l-0.984375 0zm8.430359 -0.890625l0.140625 0.875q-0.40625 0.09375 -0.75 0.09375q-0.53125 0 -0.828125 -0.171875q-0.296875 -0.171875 -0.421875 -0.453125q-0.125 -0.28125 -0.125 -1.171875l0 -3.359375l-0.71875 0l0 -0.765625l0.71875 0l0 -1.453125l0.984375 -0.59375l0 2.046875l1.0 0l0 0.765625l-1.0 0l0 3.421875q0 0.421875 0.046875 0.546875q0.0625 0.125 0.171875 0.203125q0.125 0.0625 0.34375 0.0625q0.171875 0 0.4375 -0.046875z" fill-rule="nonzero"/></g></svg>